<mxfile host="Electron" agent="Mozilla/5.0 (Windows NT 10.0; Win64; x64) AppleWebKit/537.36 (KHTML, like Gecko) draw.io/27.0.5 Chrome/134.0.6998.205 Electron/35.3.0 Safari/537.36" version="27.0.5" pages="4">
  <diagram id="wYr5zFBdpTMbSLRcshZS" name="One Page">
    <mxGraphModel dx="4244" dy="2772" grid="1" gridSize="10" guides="1" tooltips="1" connect="1" arrows="1" fold="1" page="1" pageScale="1" pageWidth="827" pageHeight="1169" math="1" shadow="0">
      <root>
        <mxCell id="0" />
        <mxCell id="1" parent="0" />
        <mxCell id="RMnD2rOGrsvT4yJd_46u-33" value="" style="group" vertex="1" connectable="0" parent="1">
          <mxGeometry x="27" y="-1150" width="772" height="1195" as="geometry" />
        </mxCell>
        <mxCell id="RMnD2rOGrsvT4yJd_46u-1" value="" style="rounded=1;whiteSpace=wrap;html=1;hachureGap=4;fontFamily=Mina;strokeWidth=2;fillColor=none;strokeColor=#000000;fontSize=16;fontStyle=1;labelBorderColor=none;textShadow=0;labelBackgroundColor=none;align=left;spacing=7;verticalAlign=middle;arcSize=7;fontColor=#333333;" vertex="1" parent="RMnD2rOGrsvT4yJd_46u-33">
          <mxGeometry y="45" width="760" height="1150" as="geometry" />
        </mxCell>
        <mxCell id="RMnD2rOGrsvT4yJd_46u-2" value="&lt;div style=&quot;line-height: 130%;&quot;&gt;&lt;div style=&quot;font-weight: 700; text-wrap-mode: nowrap;&quot;&gt;&lt;font data-font-src=&quot;https://fonts.googleapis.com/css?family=Fustat&quot; face=&quot;Fustat&quot; style=&quot;color: rgb(204, 0, 0);&quot;&gt;ا&lt;font data-font-src=&quot;https://fonts.googleapis.com/css?family=Kufam&quot;&gt;لتوضيح للفهم:&lt;/font&gt;&lt;/font&gt;&lt;/div&gt;&lt;div style=&quot;font-weight: 700; text-wrap-mode: nowrap;&quot;&gt;&lt;font style=&quot;line-height: 130%;&quot; face=&quot;Beiruti&quot; size=&quot;1&quot;&gt;هل الـ Firewall بيحمي من كل حاجة؟&amp;nbsp;&amp;nbsp;&lt;/font&gt;&lt;span style=&quot;font-family: Beiruti; font-size: x-small; background-color: transparent; color: light-dark(rgb(0, 0, 0), rgb(255, 255, 255)); line-height: 130%;&quot;&gt;لأ، فيه مخاطر مش بيعالجها الـ Firewall.&lt;/span&gt;&lt;/div&gt;&lt;div style=&quot;font-weight: 700; text-wrap-mode: nowrap;&quot;&gt;&lt;span style=&quot;color: rgb(82, 136, 127); font-family: Beiruti; font-size: x-small; background-color: transparent; line-height: 130%;&quot;&gt;لو في موظف من جوه الشركة هو اللي بيهاجم، الـ Firewall مش هيقدر يلاحظه، لأنه بيكون مركز على اللي جاي من برّه مش من جوّه.&lt;/span&gt;&lt;/div&gt;&lt;div style=&quot;font-weight: 700; text-wrap-mode: nowrap;&quot;&gt;&lt;font data-font-src=&quot;https://fonts.googleapis.com/css?family=Katibeh&quot; style=&quot;background-color: transparent;&quot;&gt;&lt;font style=&quot;line-height: 130%;&quot; face=&quot;Beiruti&quot; size=&quot;1&quot;&gt;&lt;font style=&quot;color: rgb(163, 158, 0);&quot;&gt;لو في يوزر في الشبكة الخاصة فتح وصلة مباشرة بالإنترنت (زي مودم أو VPN أو Dial-up)، ساعتها البيانات مش هتمر على الـ Firewall، وبالتالي مش هيقدر&amp;nbsp; يحميها.&lt;/font&gt;&lt;/font&gt;&lt;/font&gt;&lt;/div&gt;&lt;div style=&quot;font-weight: 700; text-wrap-mode: nowrap;&quot;&gt;&lt;font data-font-src=&quot;https://fonts.googleapis.com/css?family=Katibeh&quot; style=&quot;background-color: transparent;&quot;&gt;&lt;font style=&quot;line-height: 130%;&quot; face=&quot;Beiruti&quot; size=&quot;1&quot;&gt;&lt;font style=&quot;color: light-dark(rgb(204, 0, 0), rgb(237, 237, 237));&quot;&gt;لو فايل جه عن طريق FTP أو إيميل فيه فيروس، ممكن يعدي من الـ Firewall عادي لو هو مش مبرمج يكشف الفيروسات.&lt;/font&gt;&lt;/font&gt;&lt;/font&gt;&lt;/div&gt;&lt;/div&gt;" style="whiteSpace=wrap;html=1;align=right;fillColor=none;strokeColor=none;textDirection=rtl;labelPosition=center;verticalLabelPosition=middle;verticalAlign=middle;" vertex="1" parent="RMnD2rOGrsvT4yJd_46u-33">
          <mxGeometry x="192" y="691" width="580" height="80" as="geometry" />
        </mxCell>
        <mxCell id="RMnD2rOGrsvT4yJd_46u-3" value="" style="group" vertex="1" connectable="0" parent="RMnD2rOGrsvT4yJd_46u-33">
          <mxGeometry x="52" y="311" width="670" height="470" as="geometry" />
        </mxCell>
        <mxCell id="RMnD2rOGrsvT4yJd_46u-4" value="" style="rounded=1;whiteSpace=wrap;html=1;sketch=1;hachureGap=4;jiggle=2;curveFitting=1;fontFamily=Architects Daughter;fontSource=https%3A%2F%2Ffonts.googleapis.com%2Fcss%3Ffamily%3DArchitects%2BDaughter;fillColor=none;arcSize=4;strokeWidth=2;" vertex="1" parent="RMnD2rOGrsvT4yJd_46u-3">
          <mxGeometry y="40" width="670" height="430" as="geometry" />
        </mxCell>
        <mxCell id="RMnD2rOGrsvT4yJd_46u-5" value="&lt;span style=&quot;font-size: 20px;&quot;&gt;Risks Not Addressed By Firewalls&lt;/span&gt;" style="rounded=1;html=1;sketch=1;hachureGap=4;jiggle=2;curveFitting=1;fontFamily=Mali;fontSource=https%3A%2F%2Ffonts.googleapis.com%2Fcss%3Ffamily%3DMali;strokeWidth=2;fillColor=#E6E6E6;strokeColor=default;fontSize=23;fontStyle=1;labelBorderColor=none;textShadow=0;labelBackgroundColor=none;arcSize=33;fillStyle=cross-hatch;fontColor=#000000;whiteSpace=wrap;" vertex="1" parent="RMnD2rOGrsvT4yJd_46u-3">
          <mxGeometry x="150" width="340" height="40" as="geometry" />
        </mxCell>
        <mxCell id="RMnD2rOGrsvT4yJd_46u-6" value="" style="group;fontFamily=Mali;fontSource=https%3A%2F%2Ffonts.googleapis.com%2Fcss%3Ffamily%3DMali;" vertex="1" connectable="0" parent="RMnD2rOGrsvT4yJd_46u-3">
          <mxGeometry x="14" y="60" width="640" height="100" as="geometry" />
        </mxCell>
        <mxCell id="RMnD2rOGrsvT4yJd_46u-7" value="Insider&#39;s Intrusion" style="rounded=1;whiteSpace=wrap;html=1;sketch=1;hachureGap=4;jiggle=2;curveFitting=1;fontFamily=Mali;fontSource=https%3A%2F%2Ffonts.googleapis.com%2Fcss%3Ffamily%3DMali;strokeWidth=2;fillColor=#D5E8D4;strokeColor=#36393d;fontSize=20;fontStyle=1;labelBorderColor=none;textShadow=0;labelBackgroundColor=none;verticalAlign=bottom;spacingBottom=3;fillStyle=cross-hatch;" vertex="1" parent="RMnD2rOGrsvT4yJd_46u-6">
          <mxGeometry x="20" width="190" height="30" as="geometry" />
        </mxCell>
        <mxCell id="RMnD2rOGrsvT4yJd_46u-8" value="firewall cannot protect the resources from attack by an internal user of the private network, also is a gateway that simply intercepts the traffic between a private network and the Internet" style="rounded=1;whiteSpace=wrap;html=1;sketch=1;hachureGap=4;jiggle=2;curveFitting=1;fontFamily=Mali;fontSource=https%3A%2F%2Ffonts.googleapis.com%2Fcss%3Ffamily%3DMali;strokeWidth=2;fillColor=#D5E8D4;strokeColor=#36393d;fontSize=16;fontStyle=1;labelBorderColor=none;textShadow=0;labelBackgroundColor=none;align=left;spacing=7;verticalAlign=middle;fillStyle=cross-hatch;" vertex="1" parent="RMnD2rOGrsvT4yJd_46u-6">
          <mxGeometry y="30" width="640" height="70" as="geometry" />
        </mxCell>
        <mxCell id="RMnD2rOGrsvT4yJd_46u-9" value="" style="group" vertex="1" connectable="0" parent="RMnD2rOGrsvT4yJd_46u-3">
          <mxGeometry x="14" y="190" width="640" height="80" as="geometry" />
        </mxCell>
        <mxCell id="RMnD2rOGrsvT4yJd_46u-10" value="" style="group" vertex="1" connectable="0" parent="RMnD2rOGrsvT4yJd_46u-9">
          <mxGeometry y="30" width="640" height="50" as="geometry" />
        </mxCell>
        <mxCell id="RMnD2rOGrsvT4yJd_46u-11" value="&lt;div&gt;A firewall protects the network only if all Internet traffic passes through it. Traffic that&amp;nbsp;&lt;span style=&quot;background-color: transparent; color: light-dark(rgb(0, 0, 0), rgb(255, 255, 255));&quot;&gt;bypasses the firewall cannot be protected.&amp;nbsp;&lt;/span&gt;&lt;/div&gt;" style="rounded=1;whiteSpace=wrap;html=1;sketch=1;hachureGap=4;jiggle=2;curveFitting=1;fontFamily=Mali;fontSource=https%3A%2F%2Ffonts.googleapis.com%2Fcss%3Ffamily%3DMali;strokeWidth=2;fillColor=#FFF2CC;strokeColor=#36393d;fontSize=16;fontStyle=1;labelBorderColor=none;textShadow=0;labelBackgroundColor=none;align=left;spacing=7;verticalAlign=middle;fillStyle=cross-hatch;" vertex="1" parent="RMnD2rOGrsvT4yJd_46u-10">
          <mxGeometry width="640" height="50" as="geometry" />
        </mxCell>
        <mxCell id="RMnD2rOGrsvT4yJd_46u-12" value="Direct Internet Traffic&amp;nbsp;" style="rounded=1;whiteSpace=wrap;html=1;sketch=1;hachureGap=4;jiggle=2;curveFitting=1;fontFamily=Mali;fontSource=https%3A%2F%2Ffonts.googleapis.com%2Fcss%3Ffamily%3DMali;strokeWidth=2;fillColor=#FFF2CC;strokeColor=#36393d;fontSize=20;fontStyle=1;labelBorderColor=none;textShadow=0;labelBackgroundColor=none;fillStyle=cross-hatch;" vertex="1" parent="RMnD2rOGrsvT4yJd_46u-9">
          <mxGeometry x="16" width="240" height="30" as="geometry" />
        </mxCell>
        <mxCell id="RMnD2rOGrsvT4yJd_46u-13" value="" style="group;fontFamily=Mali;fontSource=https%3A%2F%2Ffonts.googleapis.com%2Fcss%3Ffamily%3DMali;" vertex="1" connectable="0" parent="RMnD2rOGrsvT4yJd_46u-3">
          <mxGeometry x="14" y="290" width="640" height="80" as="geometry" />
        </mxCell>
        <mxCell id="RMnD2rOGrsvT4yJd_46u-14" value="Virus Protection" style="rounded=1;whiteSpace=wrap;html=1;sketch=1;hachureGap=4;jiggle=2;curveFitting=1;fontFamily=Mali;fontSource=https%3A%2F%2Ffonts.googleapis.com%2Fcss%3Ffamily%3DMali;strokeWidth=2;fillColor=#F8CECC;strokeColor=#36393d;fontSize=20;fontStyle=1;labelBorderColor=none;textShadow=0;labelBackgroundColor=none;verticalAlign=bottom;spacingBottom=3;fillStyle=cross-hatch;" vertex="1" parent="RMnD2rOGrsvT4yJd_46u-13">
          <mxGeometry x="16" width="180" height="30" as="geometry" />
        </mxCell>
        <mxCell id="RMnD2rOGrsvT4yJd_46u-15" value="firewall cannot protect a private network from external viruses. A virus may be transferred to the private network using File Transfer Protocol (FTP)&amp;nbsp;" style="rounded=1;whiteSpace=wrap;html=1;sketch=1;hachureGap=4;jiggle=2;curveFitting=1;fontFamily=Mali;fontSource=https%3A%2F%2Ffonts.googleapis.com%2Fcss%3Ffamily%3DMali;strokeWidth=2;fillColor=#F8CECC;strokeColor=#36393d;fontSize=16;fontStyle=1;labelBorderColor=none;textShadow=0;labelBackgroundColor=none;align=left;spacing=7;verticalAlign=middle;fillStyle=cross-hatch;" vertex="1" parent="RMnD2rOGrsvT4yJd_46u-13">
          <mxGeometry y="30" width="640" height="50" as="geometry" />
        </mxCell>
        <mxCell id="RMnD2rOGrsvT4yJd_46u-16" value="" style="group" vertex="1" connectable="0" parent="RMnD2rOGrsvT4yJd_46u-33">
          <mxGeometry x="50" y="811" width="670" height="360" as="geometry" />
        </mxCell>
        <mxCell id="RMnD2rOGrsvT4yJd_46u-17" value="" style="rounded=1;whiteSpace=wrap;html=1;sketch=1;hachureGap=4;jiggle=2;curveFitting=1;fontFamily=Architects Daughter;fontSource=https%3A%2F%2Ffonts.googleapis.com%2Fcss%3Ffamily%3DArchitects%2BDaughter;fillColor=none;arcSize=4;strokeWidth=2;" vertex="1" parent="RMnD2rOGrsvT4yJd_46u-16">
          <mxGeometry y="40" width="670" height="320" as="geometry" />
        </mxCell>
        <mxCell id="RMnD2rOGrsvT4yJd_46u-18" value="&lt;span style=&quot;font-size: 20px;&quot;&gt;Three areas of risks&lt;/span&gt;" style="rounded=1;html=1;sketch=1;hachureGap=4;jiggle=2;curveFitting=1;fontFamily=Mali;fontSource=https%3A%2F%2Ffonts.googleapis.com%2Fcss%3Ffamily%3DMali;strokeWidth=2;fillColor=#E6E6E6;strokeColor=default;fontSize=23;fontStyle=1;labelBorderColor=none;textShadow=0;labelBackgroundColor=none;arcSize=33;fillStyle=cross-hatch;fontColor=#000000;whiteSpace=wrap;" vertex="1" parent="RMnD2rOGrsvT4yJd_46u-16">
          <mxGeometry x="232" width="220" height="40" as="geometry" />
        </mxCell>
        <mxCell id="RMnD2rOGrsvT4yJd_46u-19" value="" style="group;fontFamily=Mali;fontSource=https%3A%2F%2Ffonts.googleapis.com%2Fcss%3Ffamily%3DMali;" vertex="1" connectable="0" parent="RMnD2rOGrsvT4yJd_46u-16">
          <mxGeometry x="14" y="60" width="380" height="80" as="geometry" />
        </mxCell>
        <mxCell id="RMnD2rOGrsvT4yJd_46u-20" value="Information" style="rounded=1;whiteSpace=wrap;html=1;sketch=1;hachureGap=4;jiggle=2;curveFitting=1;fontFamily=Mali;fontSource=https%3A%2F%2Ffonts.googleapis.com%2Fcss%3Ffamily%3DMali;strokeWidth=2;fillColor=#D5E8D4;strokeColor=#36393d;fontSize=20;fontStyle=1;labelBorderColor=none;textShadow=0;labelBackgroundColor=none;verticalAlign=bottom;spacingBottom=3;fillStyle=cross-hatch;" vertex="1" parent="RMnD2rOGrsvT4yJd_46u-19">
          <mxGeometry x="20" width="130" height="30" as="geometry" />
        </mxCell>
        <mxCell id="RMnD2rOGrsvT4yJd_46u-21" value="Someone can steal or destroy the information that is stored on the private network." style="rounded=1;whiteSpace=wrap;html=1;sketch=1;hachureGap=4;jiggle=2;curveFitting=1;fontFamily=Mali;fontSource=https%3A%2F%2Ffonts.googleapis.com%2Fcss%3Ffamily%3DMali;strokeWidth=2;fillColor=#D5E8D4;strokeColor=#36393d;fontSize=16;fontStyle=1;labelBorderColor=none;textShadow=0;labelBackgroundColor=none;align=left;spacing=7;verticalAlign=middle;fillStyle=cross-hatch;" vertex="1" parent="RMnD2rOGrsvT4yJd_46u-19">
          <mxGeometry y="30" width="380" height="50" as="geometry" />
        </mxCell>
        <mxCell id="RMnD2rOGrsvT4yJd_46u-22" value="" style="group;fontFamily=Mali;fontSource=https%3A%2F%2Ffonts.googleapis.com%2Fcss%3Ffamily%3DMali;" vertex="1" connectable="0" parent="RMnD2rOGrsvT4yJd_46u-16">
          <mxGeometry x="14" y="260" width="440" height="80" as="geometry" />
        </mxCell>
        <mxCell id="RMnD2rOGrsvT4yJd_46u-23" value="Reputation" style="rounded=1;whiteSpace=wrap;html=1;sketch=1;hachureGap=4;jiggle=2;curveFitting=1;fontFamily=Mali;fontSource=https%3A%2F%2Ffonts.googleapis.com%2Fcss%3Ffamily%3DMali;strokeWidth=2;fillColor=#F8CECC;strokeColor=#36393d;fontSize=20;fontStyle=1;labelBorderColor=none;textShadow=0;labelBackgroundColor=none;verticalAlign=bottom;spacingBottom=3;fillStyle=cross-hatch;" vertex="1" parent="RMnD2rOGrsvT4yJd_46u-22">
          <mxGeometry x="16" width="124" height="30" as="geometry" />
        </mxCell>
        <mxCell id="RMnD2rOGrsvT4yJd_46u-24" value="Someone can damage the reputation of a business by demonstrating vulnerabilities in its network security." style="rounded=1;whiteSpace=wrap;html=1;sketch=1;hachureGap=4;jiggle=2;curveFitting=1;fontFamily=Mali;fontSource=https%3A%2F%2Ffonts.googleapis.com%2Fcss%3Ffamily%3DMali;strokeWidth=2;fillColor=#F8CECC;strokeColor=#36393d;fontSize=16;fontStyle=1;labelBorderColor=none;textShadow=0;labelBackgroundColor=none;align=left;spacing=7;verticalAlign=middle;fillStyle=cross-hatch;" vertex="1" parent="RMnD2rOGrsvT4yJd_46u-22">
          <mxGeometry y="30" width="440" height="50" as="geometry" />
        </mxCell>
        <mxCell id="RMnD2rOGrsvT4yJd_46u-25" value="" style="group" vertex="1" connectable="0" parent="RMnD2rOGrsvT4yJd_46u-16">
          <mxGeometry x="12" y="160" width="350" height="80" as="geometry" />
        </mxCell>
        <mxCell id="RMnD2rOGrsvT4yJd_46u-26" value="Resources" style="rounded=1;whiteSpace=wrap;html=1;sketch=1;hachureGap=4;jiggle=2;curveFitting=1;fontFamily=Mali;fontSource=https%3A%2F%2Ffonts.googleapis.com%2Fcss%3Ffamily%3DMali;strokeWidth=2;fillColor=#FFF2CC;strokeColor=#36393d;fontSize=20;fontStyle=1;labelBorderColor=none;textShadow=0;labelBackgroundColor=none;fillStyle=cross-hatch;" vertex="1" parent="RMnD2rOGrsvT4yJd_46u-25">
          <mxGeometry x="10" width="114" height="30" as="geometry" />
        </mxCell>
        <mxCell id="RMnD2rOGrsvT4yJd_46u-27" value="Someone can damage or misuse the computer systems on the private network." style="rounded=1;whiteSpace=wrap;html=1;sketch=1;hachureGap=4;jiggle=2;curveFitting=1;fontFamily=Mali;fontSource=https%3A%2F%2Ffonts.googleapis.com%2Fcss%3Ffamily%3DMali;strokeWidth=2;fillColor=#FFF2CC;strokeColor=#36393d;fontSize=16;fontStyle=1;labelBorderColor=none;textShadow=0;labelBackgroundColor=none;align=left;spacing=7;verticalAlign=middle;fillStyle=cross-hatch;" vertex="1" parent="RMnD2rOGrsvT4yJd_46u-25">
          <mxGeometry y="30" width="350" height="50" as="geometry" />
        </mxCell>
        <mxCell id="RMnD2rOGrsvT4yJd_46u-28" value="&lt;div style=&quot;line-height: 130%;&quot;&gt;&lt;div style=&quot;font-weight: 700; text-wrap-mode: nowrap;&quot;&gt;&lt;font data-font-src=&quot;https://fonts.googleapis.com/css?family=Fustat&quot; face=&quot;Fustat&quot; style=&quot;color: rgb(204, 0, 0);&quot;&gt;ا&lt;font data-font-src=&quot;https://fonts.googleapis.com/css?family=Kufam&quot;&gt;لتوضيح للفهم:&lt;/font&gt;&lt;/font&gt;&lt;/div&gt;&lt;div style=&quot;&quot;&gt;&lt;span style=&quot;background-color: transparent; text-wrap-mode: nowrap;&quot;&gt;&lt;font size=&quot;1&quot; face=&quot;Beiruti&quot;&gt;&lt;b&gt;لما الشبكة الخاصة تتوصل بالإنترنت، إيه المخاطر اللي ممكن تحصل؟&lt;/b&gt;&lt;/font&gt;&lt;/span&gt;&lt;b style=&quot;font-weight: 700; text-wrap-mode: nowrap; color: rgb(82, 136, 127); font-family: Beiruti; font-size: x-small; background-color: transparent;&quot;&gt;حد ممكن يسرق أو يمسح البيانات اللي على الشبكة&amp;nbsp;&lt;/b&gt;&lt;/div&gt;&lt;div style=&quot;&quot;&gt;&lt;font data-font-src=&quot;https://fonts.googleapis.com/css?family=Katibeh&quot; style=&quot;background-color: transparent;&quot;&gt;&lt;font style=&quot;line-height: 130%;&quot; face=&quot;Beiruti&quot; size=&quot;1&quot;&gt;&lt;font style=&quot;&quot;&gt;&lt;span style=&quot;background-color: transparent; text-wrap-mode: nowrap;&quot;&gt;&lt;font color=&quot;#a39e00&quot;&gt;&lt;b&gt;حد ممكن يبوّظ أو يستخدم أجهزة الشركة بطريقة غلط&amp;nbsp;&lt;br&gt;&lt;/b&gt;&lt;/font&gt;&lt;/span&gt;&lt;font color=&quot;#ba0000&quot;&gt;&lt;span style=&quot;text-wrap-mode: nowrap;&quot;&gt;&lt;b&gt;حد يهاجم الشركة ويكشف ضعف في سيستمها&amp;nbsp;&lt;/b&gt;&lt;/span&gt;&lt;/font&gt;&lt;/font&gt;&lt;/font&gt;&lt;/font&gt;&lt;/div&gt;&lt;/div&gt;" style="whiteSpace=wrap;html=1;align=right;fillColor=none;strokeColor=none;textDirection=rtl;labelPosition=center;verticalLabelPosition=middle;verticalAlign=middle;" vertex="1" parent="RMnD2rOGrsvT4yJd_46u-16">
          <mxGeometry x="392" y="160" width="251" height="80" as="geometry" />
        </mxCell>
        <mxCell id="RMnD2rOGrsvT4yJd_46u-29" value="Firewalls" style="rounded=1;whiteSpace=wrap;html=1;sketch=1;hachureGap=4;jiggle=2;curveFitting=1;fontFamily=Mali;fontSource=https%3A%2F%2Ffonts.googleapis.com%2Fcss%3Ffamily%3DMali;strokeWidth=2;fillColor=#E5E5FF;strokeColor=#36393d;fontSize=20;fontStyle=1;labelBorderColor=none;textShadow=0;labelBackgroundColor=none;fillStyle=cross-hatch;" vertex="1" parent="RMnD2rOGrsvT4yJd_46u-33">
          <mxGeometry x="68" y="65" width="111" height="30" as="geometry" />
        </mxCell>
        <mxCell id="RMnD2rOGrsvT4yJd_46u-30" value="are provides controlled access between a private network and the Internet. Depending on the configuration, the firewall determines whether a data packet or a connection request should be permitted to pass through the firewall or be discarded." style="rounded=1;whiteSpace=wrap;html=1;sketch=1;hachureGap=4;jiggle=2;curveFitting=1;fontFamily=Mali;fontSource=https%3A%2F%2Ffonts.googleapis.com%2Fcss%3Ffamily%3DMali;strokeWidth=2;fillColor=#E5E5FF;strokeColor=#36393d;fontSize=16;fontStyle=1;labelBorderColor=none;textShadow=0;labelBackgroundColor=none;align=left;spacing=7;verticalAlign=middle;fillStyle=cross-hatch;" vertex="1" parent="RMnD2rOGrsvT4yJd_46u-33">
          <mxGeometry x="55" y="95" width="667" height="100" as="geometry" />
        </mxCell>
        <mxCell id="RMnD2rOGrsvT4yJd_46u-31" value="&lt;div style=&quot;line-height: 130%;&quot;&gt;&lt;div style=&quot;font-weight: 700; text-wrap-mode: nowrap;&quot;&gt;&lt;font data-font-src=&quot;https://fonts.googleapis.com/css?family=Fustat&quot; face=&quot;Fustat&quot; style=&quot;color: rgb(204, 0, 0);&quot;&gt;ا&lt;font data-font-src=&quot;https://fonts.googleapis.com/css?family=Kufam&quot;&gt;لتوضيح للفهم:&lt;/font&gt;&lt;/font&gt;&lt;/div&gt;&lt;div style=&quot;&quot;&gt;&lt;span style=&quot;background-color: transparent; text-wrap-mode: nowrap;&quot;&gt;&lt;font size=&quot;1&quot; face=&quot;Beiruti&quot;&gt;&lt;b&gt;إيه هو الـ Firewall؟&lt;/b&gt;&lt;/font&gt;&lt;/span&gt;&lt;font style=&quot;font-weight: normal; text-wrap-mode: wrap; color: rgb(129, 82, 114); background-color: transparent;&quot; size=&quot;1&quot; face=&quot;Beiruti&quot;&gt;&lt;span style=&quot;text-wrap-mode: nowrap;&quot;&gt;&lt;b&gt;الـ Firewall هو زي البوابة اللي بتحكم الدخول والخروج بين الشبكة الخاصة بتاعتك&amp;nbsp; وبين الإنترنت.&amp;nbsp;&lt;/b&gt;&lt;/span&gt;&lt;/font&gt;&lt;b style=&quot;font-weight: 700; text-wrap-mode: nowrap; color: rgb(129, 82, 114); background-color: transparent; font-family: Beiruti; font-size: x-small;&quot;&gt;يعني مش أي حد من الإنترنت يقدر&amp;nbsp; يدخل على الشبكة بتاعتك كده وخلاص.&lt;/b&gt;&lt;/div&gt;&lt;div style=&quot;&quot;&gt;&lt;div style=&quot;&quot;&gt;&lt;font style=&quot;color: rgb(129, 82, 114);&quot;&gt;&lt;font size=&quot;1&quot; face=&quot;Beiruti&quot;&gt;&lt;span style=&quot;text-wrap-mode: nowrap;&quot;&gt;&lt;b&gt;الـ Firewall بيشوف كل الـ data packets (البيانات اللي بتتنقل) أو connection requests (طلبات الاتصال) ويقرر:&lt;br&gt;&lt;/b&gt;&lt;/span&gt;&lt;/font&gt;&lt;b style=&quot;text-wrap-mode: nowrap; font-family: Beiruti; font-size: x-small; background-color: transparent;&quot;&gt;هل الطلب ده مسموح؟ → يفتحه ويدخل.&lt;/b&gt;&lt;/font&gt;&lt;/div&gt;&lt;div style=&quot;&quot;&gt;&lt;font style=&quot;color: rgb(129, 82, 114);&quot; size=&quot;1&quot; face=&quot;Beiruti&quot;&gt;&lt;span style=&quot;text-wrap-mode: nowrap;&quot;&gt;&lt;b style=&quot;&quot;&gt;&amp;nbsp;ولا خطر أو مش مصرح؟ → يرميه ويرفضه.&lt;/b&gt;&lt;/span&gt;&lt;/font&gt;&lt;/div&gt;&lt;/div&gt;&lt;/div&gt;" style="whiteSpace=wrap;html=1;align=right;fillColor=none;strokeColor=none;textDirection=rtl;labelPosition=center;verticalLabelPosition=middle;verticalAlign=middle;" vertex="1" parent="RMnD2rOGrsvT4yJd_46u-33">
          <mxGeometry x="155" y="199" width="550" height="100" as="geometry" />
        </mxCell>
        <mxCell id="RMnD2rOGrsvT4yJd_46u-32" value="&lt;span style=&quot;text-align: right;&quot;&gt;Chapter `7`&lt;/span&gt;" style="rounded=1;whiteSpace=wrap;html=1;hachureGap=4;fontFamily=Mina;strokeWidth=2;fillColor=#333333;strokeColor=#FFFFFF;fontSize=22;fontStyle=1;labelBorderColor=none;textShadow=0;labelBackgroundColor=none;align=center;spacing=5;verticalAlign=middle;spacingTop=0;spacingRight=0;fontColor=#FFFFFF;container=0;" vertex="1" parent="RMnD2rOGrsvT4yJd_46u-33">
          <mxGeometry x="308" width="155.78" height="45" as="geometry" />
        </mxCell>
        <mxCell id="RMnD2rOGrsvT4yJd_46u-34" value="" style="group" vertex="1" connectable="0" parent="1">
          <mxGeometry x="-760" y="-1150" width="760" height="670" as="geometry" />
        </mxCell>
        <mxCell id="VxciDFVyZBmMgLWvr2K4-1" value="" style="rounded=1;whiteSpace=wrap;html=1;sketch=1;hachureGap=4;jiggle=2;curveFitting=1;fontFamily=Architects Daughter;fontSource=https%3A%2F%2Ffonts.googleapis.com%2Fcss%3Ffamily%3DArchitects%2BDaughter;fillColor=none;arcSize=4;strokeWidth=2;" vertex="1" parent="RMnD2rOGrsvT4yJd_46u-34">
          <mxGeometry x="39" y="120" width="670" height="220" as="geometry" />
        </mxCell>
        <mxCell id="VxciDFVyZBmMgLWvr2K4-2" value="" style="group;textDirection=rtl;align=right;" vertex="1" connectable="0" parent="RMnD2rOGrsvT4yJd_46u-34">
          <mxGeometry width="760" height="670" as="geometry" />
        </mxCell>
        <mxCell id="VxciDFVyZBmMgLWvr2K4-3" value="" style="rounded=1;whiteSpace=wrap;html=1;hachureGap=4;fontFamily=Mina;strokeWidth=2;fillColor=none;strokeColor=#000000;fontSize=16;fontStyle=1;labelBorderColor=none;textShadow=0;labelBackgroundColor=none;align=left;spacing=7;verticalAlign=middle;arcSize=7;fontColor=#333333;" vertex="1" parent="VxciDFVyZBmMgLWvr2K4-2">
          <mxGeometry y="45" width="760" height="605" as="geometry" />
        </mxCell>
        <mxCell id="VxciDFVyZBmMgLWvr2K4-4" value="&lt;span style=&quot;text-align: right;&quot;&gt;Chapter `5`&lt;/span&gt;" style="rounded=1;whiteSpace=wrap;html=1;hachureGap=4;fontFamily=Mina;strokeWidth=2;fillColor=#333333;strokeColor=#FFFFFF;fontSize=22;fontStyle=1;labelBorderColor=none;textShadow=0;labelBackgroundColor=none;align=center;spacing=5;verticalAlign=middle;spacingTop=0;spacingRight=0;fontColor=#FFFFFF;container=0;" vertex="1" parent="VxciDFVyZBmMgLWvr2K4-2">
          <mxGeometry x="310" width="155.78" height="45" as="geometry" />
        </mxCell>
        <mxCell id="VxciDFVyZBmMgLWvr2K4-5" value="" style="group" vertex="1" connectable="0" parent="VxciDFVyZBmMgLWvr2K4-2">
          <mxGeometry x="39" y="80" width="670" height="550" as="geometry" />
        </mxCell>
        <mxCell id="VxciDFVyZBmMgLWvr2K4-6" value="&lt;div&gt;&lt;font style=&quot;font-size: 20px;&quot;&gt;Access Control mechanism based on&amp;nbsp;&lt;span style=&quot;background-color: transparent;&quot;&gt;3 types of information&lt;/span&gt;&lt;/font&gt;&lt;/div&gt;" style="rounded=1;html=1;sketch=1;hachureGap=4;jiggle=2;curveFitting=1;fontFamily=Mali;fontSource=https%3A%2F%2Ffonts.googleapis.com%2Fcss%3Ffamily%3DMali;strokeWidth=2;fillColor=#E6E6E6;strokeColor=default;fontSize=23;fontStyle=1;labelBorderColor=none;textShadow=0;labelBackgroundColor=none;arcSize=33;fillStyle=cross-hatch;fontColor=#000000;whiteSpace=wrap;" vertex="1" parent="VxciDFVyZBmMgLWvr2K4-5">
          <mxGeometry x="30" width="620" height="40" as="geometry" />
        </mxCell>
        <mxCell id="VxciDFVyZBmMgLWvr2K4-7" value="" style="group;fontFamily=Mali;fontSource=https%3A%2F%2Ffonts.googleapis.com%2Fcss%3Ffamily%3DMali;" vertex="1" connectable="0" parent="VxciDFVyZBmMgLWvr2K4-5">
          <mxGeometry x="21" y="60" width="280" height="80" as="geometry" />
        </mxCell>
        <mxCell id="VxciDFVyZBmMgLWvr2K4-8" value="Subjects" style="rounded=1;whiteSpace=wrap;html=1;sketch=1;hachureGap=4;jiggle=2;curveFitting=1;fontFamily=Mali;fontSource=https%3A%2F%2Ffonts.googleapis.com%2Fcss%3Ffamily%3DMali;strokeWidth=2;fillColor=#D5E8D4;strokeColor=#36393d;fontSize=20;fontStyle=1;labelBorderColor=none;textShadow=0;labelBackgroundColor=none;verticalAlign=bottom;spacingBottom=3;fillStyle=cross-hatch;" vertex="1" parent="VxciDFVyZBmMgLWvr2K4-7">
          <mxGeometry x="20" width="110" height="30" as="geometry" />
        </mxCell>
        <mxCell id="VxciDFVyZBmMgLWvr2K4-9" value="&lt;div&gt;A subject is capable of&amp;nbsp;&lt;span style=&quot;background-color: transparent; color: light-dark(rgb(0, 0, 0), rgb(255, 255, 255));&quot;&gt;accessing an object.&lt;/span&gt;&lt;/div&gt;" style="rounded=1;whiteSpace=wrap;html=1;sketch=1;hachureGap=4;jiggle=2;curveFitting=1;fontFamily=Mali;fontSource=https%3A%2F%2Ffonts.googleapis.com%2Fcss%3Ffamily%3DMali;strokeWidth=2;fillColor=#D5E8D4;strokeColor=#36393d;fontSize=16;fontStyle=1;labelBorderColor=none;textShadow=0;labelBackgroundColor=none;align=left;spacing=7;verticalAlign=middle;fillStyle=cross-hatch;" vertex="1" parent="VxciDFVyZBmMgLWvr2K4-7">
          <mxGeometry y="30" width="280" height="50" as="geometry" />
        </mxCell>
        <mxCell id="VxciDFVyZBmMgLWvr2K4-10" value="" style="group" vertex="1" connectable="0" parent="VxciDFVyZBmMgLWvr2K4-5">
          <mxGeometry x="331" y="60" width="320" height="80" as="geometry" />
        </mxCell>
        <mxCell id="VxciDFVyZBmMgLWvr2K4-11" value="" style="group" vertex="1" connectable="0" parent="VxciDFVyZBmMgLWvr2K4-10">
          <mxGeometry y="30" width="320" height="50" as="geometry" />
        </mxCell>
        <mxCell id="VxciDFVyZBmMgLWvr2K4-12" value="&lt;div&gt;An object is an entity to which&lt;span style=&quot;background-color: transparent; color: light-dark(rgb(0, 0, 0), rgb(255, 255, 255));&quot;&gt;&amp;nbsp;access can be controlled.&lt;/span&gt;&lt;/div&gt;" style="rounded=1;whiteSpace=wrap;html=1;sketch=1;hachureGap=4;jiggle=2;curveFitting=1;fontFamily=Mali;fontSource=https%3A%2F%2Ffonts.googleapis.com%2Fcss%3Ffamily%3DMali;strokeWidth=2;fillColor=#FFF2CC;strokeColor=#36393d;fontSize=16;fontStyle=1;labelBorderColor=none;textShadow=0;labelBackgroundColor=none;align=left;spacing=7;verticalAlign=middle;fillStyle=cross-hatch;" vertex="1" parent="VxciDFVyZBmMgLWvr2K4-11">
          <mxGeometry width="320" height="50" as="geometry" />
        </mxCell>
        <mxCell id="VxciDFVyZBmMgLWvr2K4-13" value="Object" style="rounded=1;whiteSpace=wrap;html=1;sketch=1;hachureGap=4;jiggle=2;curveFitting=1;fontFamily=Mali;fontSource=https%3A%2F%2Ffonts.googleapis.com%2Fcss%3Ffamily%3DMali;strokeWidth=2;fillColor=#FFF2CC;strokeColor=#36393d;fontSize=20;fontStyle=1;labelBorderColor=none;textShadow=0;labelBackgroundColor=none;fillStyle=cross-hatch;" vertex="1" parent="VxciDFVyZBmMgLWvr2K4-10">
          <mxGeometry x="10" width="90" height="30" as="geometry" />
        </mxCell>
        <mxCell id="VxciDFVyZBmMgLWvr2K4-14" value="" style="group;fontFamily=Mali;fontSource=https%3A%2F%2Ffonts.googleapis.com%2Fcss%3Ffamily%3DMali;" vertex="1" connectable="0" parent="VxciDFVyZBmMgLWvr2K4-5">
          <mxGeometry x="21" y="160" width="280" height="80" as="geometry" />
        </mxCell>
        <mxCell id="VxciDFVyZBmMgLWvr2K4-15" value="&lt;div&gt;Access&amp;nbsp;&lt;span style=&quot;background-color: transparent; color: light-dark(rgb(0, 0, 0), rgb(255, 255, 255));&quot;&gt;Rights&lt;/span&gt;&lt;/div&gt;" style="rounded=1;whiteSpace=wrap;html=1;sketch=1;hachureGap=4;jiggle=2;curveFitting=1;fontFamily=Mali;fontSource=https%3A%2F%2Ffonts.googleapis.com%2Fcss%3Ffamily%3DMali;strokeWidth=2;fillColor=#F8CECC;strokeColor=#36393d;fontSize=20;fontStyle=1;labelBorderColor=none;textShadow=0;labelBackgroundColor=none;verticalAlign=bottom;spacingBottom=3;fillStyle=cross-hatch;" vertex="1" parent="VxciDFVyZBmMgLWvr2K4-14">
          <mxGeometry x="20" width="150" height="30" as="geometry" />
        </mxCell>
        <mxCell id="VxciDFVyZBmMgLWvr2K4-16" value="&lt;div&gt;define the&lt;span style=&quot;background-color: transparent; color: light-dark(rgb(0, 0, 0), rgb(255, 255, 255));&quot;&gt;&amp;nbsp;ways in which a subject can access the object.&lt;/span&gt;&lt;/div&gt;" style="rounded=1;whiteSpace=wrap;html=1;sketch=1;hachureGap=4;jiggle=2;curveFitting=1;fontFamily=Mali;fontSource=https%3A%2F%2Ffonts.googleapis.com%2Fcss%3Ffamily%3DMali;strokeWidth=2;fillColor=#F8CECC;strokeColor=#36393d;fontSize=16;fontStyle=1;labelBorderColor=none;textShadow=0;labelBackgroundColor=none;align=left;spacing=7;verticalAlign=middle;fillStyle=cross-hatch;" vertex="1" parent="VxciDFVyZBmMgLWvr2K4-14">
          <mxGeometry y="30" width="280" height="50" as="geometry" />
        </mxCell>
        <mxCell id="VxciDFVyZBmMgLWvr2K4-17" value="" style="group" vertex="1" connectable="0" parent="VxciDFVyZBmMgLWvr2K4-2">
          <mxGeometry x="39" y="466" width="310" height="80" as="geometry" />
        </mxCell>
        <mxCell id="VxciDFVyZBmMgLWvr2K4-18" value="&amp;nbsp;Access Control List (ACL)" style="rounded=1;whiteSpace=wrap;html=1;sketch=1;hachureGap=4;jiggle=2;curveFitting=1;fontFamily=Mali;fontSource=https%3A%2F%2Ffonts.googleapis.com%2Fcss%3Ffamily%3DMali;strokeWidth=2;fillColor=#FFF0F8;strokeColor=#36393d;fontSize=20;fontStyle=1;labelBorderColor=none;textShadow=0;labelBackgroundColor=none;fillStyle=cross-hatch;" vertex="1" parent="VxciDFVyZBmMgLWvr2K4-17">
          <mxGeometry x="10" width="260" height="30" as="geometry" />
        </mxCell>
        <mxCell id="VxciDFVyZBmMgLWvr2K4-19" value="&lt;div&gt;&lt;span style=&quot;background-color: transparent; color: light-dark(rgb(0, 0, 0), rgb(255, 255, 255));&quot;&gt;for a given object&lt;/span&gt;&lt;span style=&quot;background-color: transparent; color: light-dark(rgb(0, 0, 0), rgb(255, 255, 255));&quot;&gt;&amp;nbsp;defines the access rights for each subject.&lt;/span&gt;&lt;/div&gt;" style="rounded=1;whiteSpace=wrap;html=1;sketch=1;hachureGap=4;jiggle=2;curveFitting=1;fontFamily=Mali;fontSource=https%3A%2F%2Ffonts.googleapis.com%2Fcss%3Ffamily%3DMali;strokeWidth=2;fillColor=#FFF0F8;strokeColor=#36393d;fontSize=16;fontStyle=1;labelBorderColor=none;textShadow=0;labelBackgroundColor=none;align=left;spacing=7;verticalAlign=middle;fillStyle=cross-hatch;" vertex="1" parent="VxciDFVyZBmMgLWvr2K4-17">
          <mxGeometry y="30" width="310" height="50" as="geometry" />
        </mxCell>
        <mxCell id="VxciDFVyZBmMgLWvr2K4-20" value="" style="group" vertex="1" connectable="0" parent="VxciDFVyZBmMgLWvr2K4-2">
          <mxGeometry x="359" y="466" width="360" height="80" as="geometry" />
        </mxCell>
        <mxCell id="VxciDFVyZBmMgLWvr2K4-21" value="" style="group" vertex="1" connectable="0" parent="VxciDFVyZBmMgLWvr2K4-20">
          <mxGeometry width="360" height="80" as="geometry" />
        </mxCell>
        <mxCell id="VxciDFVyZBmMgLWvr2K4-22" value="&amp;nbsp;Capability List CL" style="rounded=1;whiteSpace=wrap;html=1;sketch=1;hachureGap=4;jiggle=2;curveFitting=1;fontFamily=Mali;fontSource=https%3A%2F%2Ffonts.googleapis.com%2Fcss%3Ffamily%3DMali;strokeWidth=2;fillColor=#FFF0F8;strokeColor=#36393d;fontSize=20;fontStyle=1;labelBorderColor=none;textShadow=0;labelBackgroundColor=none;fillStyle=cross-hatch;" vertex="1" parent="VxciDFVyZBmMgLWvr2K4-21">
          <mxGeometry x="14" width="190" height="30" as="geometry" />
        </mxCell>
        <mxCell id="VxciDFVyZBmMgLWvr2K4-23" value="&lt;div&gt;&lt;span style=&quot;background-color: transparent; color: light-dark(rgb(0, 0, 0), rgb(255, 255, 255));&quot;&gt;for a subject&lt;/span&gt;&lt;span style=&quot;background-color: transparent; color: light-dark(rgb(0, 0, 0), rgb(255, 255, 255));&quot;&gt;&amp;nbsp;rights to access each object.&lt;/span&gt;&lt;/div&gt;" style="rounded=1;whiteSpace=wrap;html=1;sketch=1;hachureGap=4;jiggle=2;curveFitting=1;fontFamily=Mali;fontSource=https%3A%2F%2Ffonts.googleapis.com%2Fcss%3Ffamily%3DMali;strokeWidth=2;fillColor=#FFF0F8;strokeColor=#36393d;fontSize=16;fontStyle=1;labelBorderColor=none;textShadow=0;labelBackgroundColor=none;align=left;spacing=7;verticalAlign=middle;fillStyle=cross-hatch;" vertex="1" parent="VxciDFVyZBmMgLWvr2K4-21">
          <mxGeometry y="30" width="360" height="50" as="geometry" />
        </mxCell>
        <mxCell id="VxciDFVyZBmMgLWvr2K4-24" value="Access Control" style="rounded=1;whiteSpace=wrap;html=1;sketch=1;hachureGap=4;jiggle=2;curveFitting=1;fontFamily=Mali;fontSource=https%3A%2F%2Ffonts.googleapis.com%2Fcss%3Ffamily%3DMali;strokeWidth=2;fillColor=#E5E5FF;strokeColor=#36393d;fontSize=20;fontStyle=1;labelBorderColor=none;textShadow=0;labelBackgroundColor=none;fillStyle=cross-hatch;" vertex="1" parent="VxciDFVyZBmMgLWvr2K4-2">
          <mxGeometry x="49" y="369" width="160" height="30" as="geometry" />
        </mxCell>
        <mxCell id="VxciDFVyZBmMgLWvr2K4-25" value="&lt;div&gt;enforces&amp;nbsp;&lt;span style=&quot;background-color: transparent; color: light-dark(rgb(0, 0, 0), rgb(255, 255, 255));&quot;&gt;the access&lt;/span&gt;&lt;span style=&quot;background-color: transparent; color: light-dark(rgb(0, 0, 0), rgb(255, 255, 255));&quot;&gt;&amp;nbsp;rights when a subject requests to access an&amp;nbsp;&lt;/span&gt;&lt;span style=&quot;background-color: transparent; color: light-dark(rgb(0, 0, 0), rgb(255, 255, 255));&quot;&gt;object&lt;/span&gt;&lt;/div&gt;" style="rounded=1;whiteSpace=wrap;html=1;sketch=1;hachureGap=4;jiggle=2;curveFitting=1;fontFamily=Mali;fontSource=https%3A%2F%2Ffonts.googleapis.com%2Fcss%3Ffamily%3DMali;strokeWidth=2;fillColor=#E5E5FF;strokeColor=#36393d;fontSize=16;fontStyle=1;labelBorderColor=none;textShadow=0;labelBackgroundColor=none;align=left;spacing=7;verticalAlign=middle;fillStyle=cross-hatch;" vertex="1" parent="VxciDFVyZBmMgLWvr2K4-2">
          <mxGeometry x="36" y="399" width="590" height="40" as="geometry" />
        </mxCell>
        <mxCell id="VxciDFVyZBmMgLWvr2K4-26" value="&lt;div&gt;&lt;font style=&quot;color: rgb(204, 0, 0);&quot; data-font-src=&quot;https://fonts.googleapis.com/css?family=Fustat&quot; face=&quot;Fustat&quot;&gt;ا&lt;span&gt;&lt;font data-font-src=&quot;https://fonts.googleapis.com/css?family=Kufam&quot;&gt;لتوضيح للفهم:&lt;/font&gt;&lt;/span&gt;&lt;/font&gt;&lt;/div&gt;&lt;div&gt;&lt;font face=&quot;Beiruti&quot; size=&quot;1&quot;&gt;لما أي subject يحاول يدخل على object، الـ Access Control بيشتغل ويتأكد من إنه يطبق القوانين دي.&lt;/font&gt;&lt;/div&gt;&lt;div&gt;&lt;span style=&quot;background-color: transparent;&quot;&gt;&lt;font face=&quot;Beiruti&quot; size=&quot;1&quot;&gt;فيه طريقتين مشهورين علشان السيستم يعرف مين له حق يعمل إيه:&lt;/font&gt;&lt;/span&gt;&lt;/div&gt;&lt;div style=&quot;direction: rtl;&quot;&gt;&lt;font face=&quot;Beiruti&quot; size=&quot;1&quot;&gt;ACL&amp;nbsp; دي عبارة عن &quot;ليستة&quot; مرتبطة بكل Object&amp;nbsp;&lt;/font&gt;&lt;span style=&quot;background-color: transparent;&quot;&gt;&lt;font face=&quot;Beiruti&quot; size=&quot;1&quot;&gt;بتقول: كل Subject يقدر يعمل إيه على الـ Object ده&lt;/font&gt;&lt;/span&gt;&lt;/div&gt;&lt;div style=&quot;direction: rtl;&quot;&gt;&lt;font face=&quot;Beiruti&quot; size=&quot;1&quot;&gt;CL&amp;nbsp;&lt;/font&gt;&lt;span style=&quot;background-color: transparent;&quot;&gt;&lt;font face=&quot;Beiruti&quot; size=&quot;1&quot;&gt;دي العكس!&amp;nbsp;&lt;/font&gt;&lt;/span&gt;&lt;span style=&quot;background-color: transparent; color: light-dark(rgb(0, 0, 0), rgb(255, 255, 255));&quot;&gt;&lt;font face=&quot;Beiruti&quot; size=&quot;1&quot;&gt;زي &quot;ليستة&quot; مرتبطة بكل Subject&amp;nbsp;&lt;/font&gt;&lt;/span&gt;&lt;span style=&quot;background-color: transparent; color: light-dark(rgb(0, 0, 0), rgb(255, 255, 255));&quot;&gt;&lt;font face=&quot;Beiruti&quot; size=&quot;1&quot;&gt;بتقول: الـ Subject ده يقدر&amp;nbsp; يوصل لأنهي Objects ويعمل عليهم إيه&lt;/font&gt;&lt;/span&gt;&lt;/div&gt;" style="text;html=1;align=right;verticalAlign=middle;resizable=0;points=[];autosize=1;strokeColor=none;fillColor=none;textDirection=rtl;fontStyle=1" vertex="1" parent="VxciDFVyZBmMgLWvr2K4-2">
          <mxGeometry x="-24" y="546" width="380" height="90" as="geometry" />
        </mxCell>
        <mxCell id="VxciDFVyZBmMgLWvr2K4-27" value="&lt;div&gt;&lt;font face=&quot;Fustat&quot; data-font-src=&quot;https://fonts.googleapis.com/css?family=Fustat&quot; style=&quot;color: rgb(204, 0, 0);&quot;&gt;ا&lt;span&gt;&lt;font data-font-src=&quot;https://fonts.googleapis.com/css?family=Kufam&quot;&gt;لتوضيح للفهم:&lt;/font&gt;&lt;/span&gt;&lt;/font&gt;&lt;/div&gt;&lt;div&gt;&lt;font data-font-src=&quot;https://fonts.googleapis.com/css?family=Beiruti&quot; face=&quot;Beiruti&quot; style=&quot;font-size: 9px;&quot;&gt;المبدأ الأساسي هنا هو: مين يقدر يعمل إيه على إيه؟&lt;/font&gt;&lt;/div&gt;&lt;div&gt;&lt;font data-font-src=&quot;https://fonts.googleapis.com/css?family=Beiruti&quot; face=&quot;Beiruti&quot; style=&quot;font-size: 9px;&quot;&gt;يعني لما حد زي يوزر أو برنامج (subject) يحاول يدخل على حاجة زي فايل أو قاعدة بيانات(object)، لازم النظام يقرر:&lt;/font&gt;&lt;/div&gt;&lt;div&gt;&lt;font data-font-src=&quot;https://fonts.googleapis.com/css?family=Beiruti&quot; face=&quot;Beiruti&quot; style=&quot;font-size: 9px;&quot;&gt;&lt;font data-font-src=&quot;https://fonts.googleapis.com/css?family=Katibeh&quot; style=&quot;&quot;&gt;هل الشخص ده فعلاً مسموح له يوصل للحاجة دي؟ ولو مسموح، يقدر يعمل إيه بالظبط؟ يقرأ؟ يكتب؟ &lt;/font&gt;&lt;font data-font-src=&quot;https://fonts.googleapis.com/css?family=Mali&quot; style=&quot;&quot;&gt;(Access Control)&lt;/font&gt;&lt;/font&gt;&lt;/div&gt;" style="text;html=1;align=right;verticalAlign=middle;resizable=0;points=[];autosize=1;strokeColor=none;fillColor=none;textDirection=rtl;fontStyle=1" vertex="1" parent="VxciDFVyZBmMgLWvr2K4-2">
          <mxGeometry x="-1" y="256" width="360" height="70" as="geometry" />
        </mxCell>
        <mxCell id="RMnD2rOGrsvT4yJd_46u-38" value="" style="group;fontFamily=Amiri Quran;fontSource=https%3A%2F%2Ffonts.googleapis.com%2Fcss%3Ffamily%3DAmiri%2BQuran;" vertex="1" connectable="0" parent="1">
          <mxGeometry x="-588" y="-160" width="350" height="146" as="geometry" />
        </mxCell>
        <mxCell id="RMnD2rOGrsvT4yJd_46u-39" value="" style="verticalLabelPosition=bottom;html=1;verticalAlign=top;align=center;strokeColor=#000000;fillColor=#e51400;shape=mxgraph.azure.azure_alert;fontColor=#ffffff;strokeWidth=2;" vertex="1" parent="RMnD2rOGrsvT4yJd_46u-38">
          <mxGeometry y="60.00387362637411" width="85.71374714896987" height="72.85714285714285" as="geometry" />
        </mxCell>
        <mxCell id="RMnD2rOGrsvT4yJd_46u-40" value="Disclaimer" style="text;html=1;align=center;verticalAlign=middle;whiteSpace=wrap;rounded=0;fontFamily=Dune Rise;fontSize=24;fontColor=#FF0000;fontStyle=1;" vertex="1" parent="RMnD2rOGrsvT4yJd_46u-38">
          <mxGeometry x="63.71297562722664" width="275.87" height="40" as="geometry" />
        </mxCell>
        <mxCell id="RMnD2rOGrsvT4yJd_46u-41" value="ان ده ملخص معمول من طلبة &lt;font style=&quot;color: rgb(0, 0, 204);&quot;&gt;و الأجابات مش كاملة زي السلايدز&lt;span style=&quot;background-color: initial;&quot;&gt;&amp;nbsp;&lt;/span&gt;&lt;/font&gt;&lt;span style=&quot;background-color: initial; color: light-dark(rgb(0, 0, 0), rgb(255, 255, 255)); margin: 0px; padding: 0px; border: 0px; vertical-align: baseline; outline: 0px;&quot;&gt;و&lt;/span&gt;&lt;div&gt;&lt;span style=&quot;background-color: initial; margin: 0px; padding: 0px; border: 0px; vertical-align: baseline; outline: 0px;&quot;&gt;&lt;div style=&quot;text-align: center;&quot;&gt;&lt;span style=&quot;background-color: initial; margin: 0px; padding: 0px; border: 0px; vertical-align: baseline; outline: 0px;&quot;&gt;&quot;&lt;font style=&quot;font-size: 27px;&quot; data-font-src=&quot;https://fonts.googleapis.com/css?family=Amiri+Quran&quot; face=&quot;Amiri Quran&quot;&gt;جل من لا يسهو&lt;/font&gt;&lt;/span&gt;&lt;span style=&quot;background-color: initial; margin: 0px; padding: 0px; border: 0px; vertical-align: baseline; outline: 0px;&quot;&gt;&quot;&lt;/span&gt;&lt;/div&gt;&lt;/span&gt;&lt;/div&gt;&lt;div&gt;&lt;br&gt;&lt;/div&gt;" style="text;html=1;align=right;verticalAlign=middle;whiteSpace=wrap;rounded=0;fontFamily=Cairo;fontSource=https%3A%2F%2Ffonts.googleapis.com%2Fcss%3Ffamily%3DCairo;fontSize=16;fontStyle=1;textShadow=0;" vertex="1" parent="RMnD2rOGrsvT4yJd_46u-38">
          <mxGeometry x="74.13" y="46.43" width="275.87" height="100" as="geometry" />
        </mxCell>
        <mxCell id="RMnD2rOGrsvT4yJd_46u-43" value="&lt;div style=&quot;line-height: 150%;&quot;&gt;Cyber Security For &lt;font style=&quot;color: rgb(0, 0, 255);&quot;&gt;Final&lt;/font&gt;&lt;/div&gt;" style="whiteSpace=wrap;html=1;fillColor=none;strokeColor=none;fontSize=47;fontStyle=1;fontFamily=Oxanium;fontSource=https%3A%2F%2Ffonts.googleapis.com%2Fcss%3Ffamily%3DOxanium;labelBorderColor=none;textShadow=0;" vertex="1" parent="1">
          <mxGeometry x="-554" y="-390" width="348" height="130" as="geometry" />
        </mxCell>
        <mxCell id="RMnD2rOGrsvT4yJd_46u-44" value="&lt;font&gt;&lt;span style=&quot;font-size: 22px;&quot;&gt;دي بقي اللي بيقولوا عليها الزتونة&amp;nbsp;&lt;/span&gt;&lt;/font&gt;" style="text;html=1;align=center;verticalAlign=middle;resizable=0;points=[];autosize=1;strokeColor=none;fillColor=none;fontFamily=Katibeh;fontSource=https%3A%2F%2Ffonts.googleapis.com%2Fcss%3Ffamily%3DKatibeh;fontStyle=0;fontColor=#CC6600;" vertex="1" parent="1">
          <mxGeometry x="-500" y="-240" width="240" height="40" as="geometry" />
        </mxCell>
        <mxCell id="BInqn7c2tcAaK_KYe1yq-1" value="" style="rounded=1;whiteSpace=wrap;html=1;sketch=1;hachureGap=4;jiggle=2;curveFitting=1;fontFamily=Architects Daughter;fontSource=https%3A%2F%2Ffonts.googleapis.com%2Fcss%3Ffamily%3DArchitects%2BDaughter;fillColor=none;arcSize=4;strokeWidth=2;" vertex="1" parent="1">
          <mxGeometry x="-1575" y="-1070" width="670" height="560" as="geometry" />
        </mxCell>
        <mxCell id="BInqn7c2tcAaK_KYe1yq-2" value="" style="rounded=1;whiteSpace=wrap;html=1;hachureGap=4;fontFamily=Mina;strokeWidth=2;fillColor=none;strokeColor=#000000;fontSize=16;fontStyle=1;labelBorderColor=none;textShadow=0;labelBackgroundColor=none;align=left;spacing=7;verticalAlign=middle;arcSize=7;fontColor=#333333;" vertex="1" parent="1">
          <mxGeometry x="-1620" y="-1105" width="760" height="2135" as="geometry" />
        </mxCell>
        <mxCell id="BInqn7c2tcAaK_KYe1yq-3" value="&lt;span style=&quot;text-align: right;&quot;&gt;Chapter `1`&lt;/span&gt;" style="rounded=1;whiteSpace=wrap;html=1;hachureGap=4;fontFamily=Mina;strokeWidth=2;fillColor=#333333;strokeColor=#FFFFFF;fontSize=22;fontStyle=1;labelBorderColor=none;textShadow=0;labelBackgroundColor=none;align=center;spacing=5;verticalAlign=middle;spacingTop=0;spacingRight=0;fontColor=#FFFFFF;container=0;" vertex="1" parent="1">
          <mxGeometry x="-1312" y="-1150" width="155.78" height="45" as="geometry" />
        </mxCell>
        <mxCell id="BInqn7c2tcAaK_KYe1yq-4" value="" style="group" vertex="1" connectable="0" parent="1">
          <mxGeometry x="-1577" y="510" width="670" height="500" as="geometry" />
        </mxCell>
        <mxCell id="BInqn7c2tcAaK_KYe1yq-5" value="" style="group" vertex="1" connectable="0" parent="BInqn7c2tcAaK_KYe1yq-4">
          <mxGeometry y="80" width="670" height="420" as="geometry" />
        </mxCell>
        <mxCell id="BInqn7c2tcAaK_KYe1yq-6" value="" style="whiteSpace=wrap;html=1;fillColor=none;dashed=1;dashPattern=8 8;strokeWidth=2;" vertex="1" parent="BInqn7c2tcAaK_KYe1yq-5">
          <mxGeometry width="670" height="420" as="geometry" />
        </mxCell>
        <mxCell id="BInqn7c2tcAaK_KYe1yq-7" value="" style="group" vertex="1" connectable="0" parent="BInqn7c2tcAaK_KYe1yq-5">
          <mxGeometry x="223.71202898550723" y="110" width="179.63768115942028" height="146" as="geometry" />
        </mxCell>
        <mxCell id="BInqn7c2tcAaK_KYe1yq-8" value="" style="whiteSpace=wrap;html=1;" vertex="1" parent="BInqn7c2tcAaK_KYe1yq-7">
          <mxGeometry width="179.63768115942028" height="116" as="geometry" />
        </mxCell>
        <mxCell id="BInqn7c2tcAaK_KYe1yq-9" value="" style="edgeStyle=orthogonalEdgeStyle;rounded=0;orthogonalLoop=1;jettySize=auto;html=1;endArrow=none;startFill=0;fillColor=#f5f5f5;strokeColor=#666666;" edge="1" parent="BInqn7c2tcAaK_KYe1yq-7" source="BInqn7c2tcAaK_KYe1yq-10" target="BInqn7c2tcAaK_KYe1yq-11">
          <mxGeometry relative="1" as="geometry" />
        </mxCell>
        <mxCell id="BInqn7c2tcAaK_KYe1yq-10" value="S" style="ellipse;whiteSpace=wrap;html=1;fillColor=#fff2cc;strokeColor=#d6b656;fontStyle=1;fontSize=17;" vertex="1" parent="BInqn7c2tcAaK_KYe1yq-7">
          <mxGeometry x="4.855072463768116" y="10" width="38.84057971014493" height="40" as="geometry" />
        </mxCell>
        <mxCell id="BInqn7c2tcAaK_KYe1yq-11" value="D" style="ellipse;whiteSpace=wrap;html=1;fillColor=#d5e8d4;strokeColor=#82b366;fontStyle=1;fontSize=17;" vertex="1" parent="BInqn7c2tcAaK_KYe1yq-7">
          <mxGeometry x="135.94202898550725" y="10" width="38.84057971014493" height="40" as="geometry" />
        </mxCell>
        <mxCell id="BInqn7c2tcAaK_KYe1yq-12" value="Interception" style="text;html=1;align=center;verticalAlign=middle;resizable=0;points=[];autosize=1;strokeColor=none;fillColor=none;fontFamily=Mali;fontSource=https%3A%2F%2Ffonts.googleapis.com%2Fcss%3Ffamily%3DMali;" vertex="1" parent="BInqn7c2tcAaK_KYe1yq-7">
          <mxGeometry x="41.268115942028984" y="90" width="100" height="30" as="geometry" />
        </mxCell>
        <mxCell id="BInqn7c2tcAaK_KYe1yq-13" value="Confidentiality" style="text;html=1;align=center;verticalAlign=middle;resizable=0;points=[];autosize=1;strokeColor=none;fillColor=none;fontFamily=Mali;fontSource=https%3A%2F%2Ffonts.googleapis.com%2Fcss%3Ffamily%3DMali;fontColor=#0000CC;fontStyle=1" vertex="1" parent="BInqn7c2tcAaK_KYe1yq-7">
          <mxGeometry x="36.41304347826087" y="116" width="110" height="30" as="geometry" />
        </mxCell>
        <mxCell id="BInqn7c2tcAaK_KYe1yq-14" value="" style="verticalLabelPosition=bottom;verticalAlign=top;html=1;shape=mxgraph.basic.flash;flipV=0;flipH=1;" vertex="1" parent="BInqn7c2tcAaK_KYe1yq-7">
          <mxGeometry x="84.96376811594203" y="20.5" width="9.710144927536232" height="29.5" as="geometry" />
        </mxCell>
        <mxCell id="BInqn7c2tcAaK_KYe1yq-15" value="" style="ellipse;whiteSpace=wrap;html=1;fillColor=#b1ddf0;fontStyle=1;fontSize=17;strokeColor=#10739e;" vertex="1" parent="BInqn7c2tcAaK_KYe1yq-7">
          <mxGeometry x="70.39855072463769" y="50" width="38.84057971014493" height="40" as="geometry" />
        </mxCell>
        <mxCell id="BInqn7c2tcAaK_KYe1yq-16" value="" style="group" vertex="1" connectable="0" parent="BInqn7c2tcAaK_KYe1yq-5">
          <mxGeometry x="224.78985507246375" y="10" width="179.63768115942028" height="70" as="geometry" />
        </mxCell>
        <mxCell id="BInqn7c2tcAaK_KYe1yq-17" value="" style="whiteSpace=wrap;html=1;" vertex="1" parent="BInqn7c2tcAaK_KYe1yq-16">
          <mxGeometry width="179.63768115942028" height="70" as="geometry" />
        </mxCell>
        <mxCell id="BInqn7c2tcAaK_KYe1yq-18" value="" style="edgeStyle=orthogonalEdgeStyle;rounded=0;orthogonalLoop=1;jettySize=auto;html=1;endArrow=none;startFill=0;fillColor=#f5f5f5;strokeColor=#666666;" edge="1" parent="BInqn7c2tcAaK_KYe1yq-16" source="BInqn7c2tcAaK_KYe1yq-19" target="BInqn7c2tcAaK_KYe1yq-20">
          <mxGeometry relative="1" as="geometry" />
        </mxCell>
        <mxCell id="BInqn7c2tcAaK_KYe1yq-19" value="S" style="ellipse;whiteSpace=wrap;html=1;fillColor=#fff2cc;strokeColor=#d6b656;fontStyle=1;fontSize=17;" vertex="1" parent="BInqn7c2tcAaK_KYe1yq-16">
          <mxGeometry x="4.855072463768116" y="10" width="38.84057971014493" height="40" as="geometry" />
        </mxCell>
        <mxCell id="BInqn7c2tcAaK_KYe1yq-20" value="D" style="ellipse;whiteSpace=wrap;html=1;fillColor=#d5e8d4;strokeColor=#82b366;fontStyle=1;fontSize=17;" vertex="1" parent="BInqn7c2tcAaK_KYe1yq-16">
          <mxGeometry x="135.94202898550725" y="10" width="38.84057971014493" height="40" as="geometry" />
        </mxCell>
        <mxCell id="BInqn7c2tcAaK_KYe1yq-21" value="Normal Flow" style="text;html=1;align=center;verticalAlign=middle;resizable=0;points=[];autosize=1;strokeColor=none;fillColor=none;fontFamily=Mali;fontSource=https%3A%2F%2Ffonts.googleapis.com%2Fcss%3Ffamily%3DMali;" vertex="1" parent="BInqn7c2tcAaK_KYe1yq-16">
          <mxGeometry x="38.84057971014493" y="40" width="100" height="30" as="geometry" />
        </mxCell>
        <mxCell id="BInqn7c2tcAaK_KYe1yq-22" value="" style="group" vertex="1" connectable="0" parent="BInqn7c2tcAaK_KYe1yq-5">
          <mxGeometry x="25.246376811594203" y="270" width="577.7536231884058" height="146" as="geometry" />
        </mxCell>
        <mxCell id="BInqn7c2tcAaK_KYe1yq-23" value="" style="group" vertex="1" connectable="0" parent="BInqn7c2tcAaK_KYe1yq-22">
          <mxGeometry width="179.63768115942028" height="146" as="geometry" />
        </mxCell>
        <mxCell id="BInqn7c2tcAaK_KYe1yq-24" value="" style="group" vertex="1" connectable="0" parent="BInqn7c2tcAaK_KYe1yq-23">
          <mxGeometry width="179.63768115942028" height="146" as="geometry" />
        </mxCell>
        <mxCell id="BInqn7c2tcAaK_KYe1yq-25" value="" style="whiteSpace=wrap;html=1;" vertex="1" parent="BInqn7c2tcAaK_KYe1yq-24">
          <mxGeometry width="179.63768115942028" height="116" as="geometry" />
        </mxCell>
        <mxCell id="BInqn7c2tcAaK_KYe1yq-26" value="" style="edgeStyle=orthogonalEdgeStyle;rounded=0;orthogonalLoop=1;jettySize=auto;html=1;endArrow=baseDash;startFill=0;fillColor=#f5f5f5;strokeColor=#666666;endFill=0;" edge="1" parent="BInqn7c2tcAaK_KYe1yq-24" source="BInqn7c2tcAaK_KYe1yq-27">
          <mxGeometry relative="1" as="geometry">
            <mxPoint x="87.39130434782608" y="30" as="targetPoint" />
          </mxGeometry>
        </mxCell>
        <mxCell id="BInqn7c2tcAaK_KYe1yq-27" value="S" style="ellipse;whiteSpace=wrap;html=1;fillColor=#fff2cc;strokeColor=#d6b656;fontStyle=1;fontSize=17;" vertex="1" parent="BInqn7c2tcAaK_KYe1yq-24">
          <mxGeometry x="4.855072463768116" y="10" width="38.84057971014493" height="40" as="geometry" />
        </mxCell>
        <mxCell id="BInqn7c2tcAaK_KYe1yq-28" value="D" style="ellipse;whiteSpace=wrap;html=1;fillColor=#d5e8d4;strokeColor=#82b366;fontStyle=1;fontSize=17;" vertex="1" parent="BInqn7c2tcAaK_KYe1yq-24">
          <mxGeometry x="135.94202898550725" y="10" width="38.84057971014493" height="40" as="geometry" />
        </mxCell>
        <mxCell id="BInqn7c2tcAaK_KYe1yq-29" value="Availability" style="text;html=1;align=center;verticalAlign=middle;resizable=0;points=[];autosize=1;strokeColor=none;fillColor=none;fontFamily=Mali;fontSource=https%3A%2F%2Ffonts.googleapis.com%2Fcss%3Ffamily%3DMali;fontColor=#0000CC;fontStyle=1" vertex="1" parent="BInqn7c2tcAaK_KYe1yq-24">
          <mxGeometry x="43.69565217391304" y="116" width="90" height="30" as="geometry" />
        </mxCell>
        <mxCell id="BInqn7c2tcAaK_KYe1yq-30" value="Interruption" style="text;html=1;align=center;verticalAlign=middle;resizable=0;points=[];autosize=1;strokeColor=none;fillColor=none;fontFamily=Mali;fontSource=https%3A%2F%2Ffonts.googleapis.com%2Fcss%3Ffamily%3DMali;" vertex="1" parent="BInqn7c2tcAaK_KYe1yq-24">
          <mxGeometry x="38.84057971014493" y="86" width="100" height="30" as="geometry" />
        </mxCell>
        <mxCell id="BInqn7c2tcAaK_KYe1yq-31" value="" style="group" vertex="1" connectable="0" parent="BInqn7c2tcAaK_KYe1yq-22">
          <mxGeometry x="199.05797101449275" width="179.63768115942028" height="146" as="geometry" />
        </mxCell>
        <mxCell id="BInqn7c2tcAaK_KYe1yq-32" value="" style="whiteSpace=wrap;html=1;" vertex="1" parent="BInqn7c2tcAaK_KYe1yq-31">
          <mxGeometry width="179.63768115942028" height="116" as="geometry" />
        </mxCell>
        <mxCell id="BInqn7c2tcAaK_KYe1yq-33" value="" style="edgeStyle=orthogonalEdgeStyle;rounded=0;orthogonalLoop=1;jettySize=auto;html=1;endArrow=none;startFill=0;fillColor=#f5f5f5;strokeColor=#666666;" edge="1" parent="BInqn7c2tcAaK_KYe1yq-31" source="BInqn7c2tcAaK_KYe1yq-34" target="BInqn7c2tcAaK_KYe1yq-39">
          <mxGeometry relative="1" as="geometry">
            <Array as="points">
              <mxPoint x="77.68115942028986" y="30" />
            </Array>
          </mxGeometry>
        </mxCell>
        <mxCell id="BInqn7c2tcAaK_KYe1yq-34" value="S" style="ellipse;whiteSpace=wrap;html=1;fillColor=#fff2cc;strokeColor=#d6b656;fontStyle=1;fontSize=17;" vertex="1" parent="BInqn7c2tcAaK_KYe1yq-31">
          <mxGeometry x="4.855072463768116" y="10" width="38.84057971014493" height="40" as="geometry" />
        </mxCell>
        <mxCell id="BInqn7c2tcAaK_KYe1yq-35" value="D" style="ellipse;whiteSpace=wrap;html=1;fillColor=#d5e8d4;strokeColor=#82b366;fontStyle=1;fontSize=17;" vertex="1" parent="BInqn7c2tcAaK_KYe1yq-31">
          <mxGeometry x="135.94202898550725" y="10" width="38.84057971014493" height="40" as="geometry" />
        </mxCell>
        <mxCell id="BInqn7c2tcAaK_KYe1yq-36" value="Modification" style="text;html=1;align=center;verticalAlign=middle;resizable=0;points=[];autosize=1;strokeColor=none;fillColor=none;fontFamily=Mali;fontSource=https%3A%2F%2Ffonts.googleapis.com%2Fcss%3Ffamily%3DMali;" vertex="1" parent="BInqn7c2tcAaK_KYe1yq-31">
          <mxGeometry x="41.268115942028984" y="90" width="100" height="30" as="geometry" />
        </mxCell>
        <mxCell id="BInqn7c2tcAaK_KYe1yq-37" value="Integrity" style="text;html=1;align=center;verticalAlign=middle;resizable=0;points=[];autosize=1;strokeColor=none;fillColor=none;fontFamily=Mali;fontSource=https%3A%2F%2Ffonts.googleapis.com%2Fcss%3Ffamily%3DMali;fontColor=#0000CC;fontStyle=1" vertex="1" parent="BInqn7c2tcAaK_KYe1yq-31">
          <mxGeometry x="50.97826086956522" y="116" width="80" height="30" as="geometry" />
        </mxCell>
        <mxCell id="BInqn7c2tcAaK_KYe1yq-38" style="edgeStyle=orthogonalEdgeStyle;rounded=0;orthogonalLoop=1;jettySize=auto;html=1;endArrow=none;startFill=0;fillColor=#f5f5f5;strokeColor=#666666;" edge="1" parent="BInqn7c2tcAaK_KYe1yq-31" source="BInqn7c2tcAaK_KYe1yq-39" target="BInqn7c2tcAaK_KYe1yq-35">
          <mxGeometry relative="1" as="geometry">
            <Array as="points">
              <mxPoint x="103.89855072463767" y="30" />
            </Array>
          </mxGeometry>
        </mxCell>
        <mxCell id="BInqn7c2tcAaK_KYe1yq-39" value="" style="ellipse;whiteSpace=wrap;html=1;fillColor=#b1ddf0;fontStyle=1;fontSize=17;strokeColor=#10739e;" vertex="1" parent="BInqn7c2tcAaK_KYe1yq-31">
          <mxGeometry x="70.39855072463769" y="50" width="38.84057971014493" height="40" as="geometry" />
        </mxCell>
        <mxCell id="BInqn7c2tcAaK_KYe1yq-40" value="" style="group" vertex="1" connectable="0" parent="BInqn7c2tcAaK_KYe1yq-22">
          <mxGeometry x="398.1159420289855" width="179.63768115942028" height="146" as="geometry" />
        </mxCell>
        <mxCell id="BInqn7c2tcAaK_KYe1yq-41" value="" style="whiteSpace=wrap;html=1;" vertex="1" parent="BInqn7c2tcAaK_KYe1yq-40">
          <mxGeometry width="179.63768115942028" height="116" as="geometry" />
        </mxCell>
        <mxCell id="BInqn7c2tcAaK_KYe1yq-42" value="S" style="ellipse;whiteSpace=wrap;html=1;fillColor=#fff2cc;strokeColor=#d6b656;fontStyle=1;fontSize=17;" vertex="1" parent="BInqn7c2tcAaK_KYe1yq-40">
          <mxGeometry x="4.855072463768116" y="10" width="38.84057971014493" height="40" as="geometry" />
        </mxCell>
        <mxCell id="BInqn7c2tcAaK_KYe1yq-43" value="D" style="ellipse;whiteSpace=wrap;html=1;fillColor=#d5e8d4;strokeColor=#82b366;fontStyle=1;fontSize=17;" vertex="1" parent="BInqn7c2tcAaK_KYe1yq-40">
          <mxGeometry x="135.94202898550725" y="10" width="38.84057971014493" height="40" as="geometry" />
        </mxCell>
        <mxCell id="BInqn7c2tcAaK_KYe1yq-44" value="Fabrication" style="text;html=1;align=center;verticalAlign=middle;resizable=0;points=[];autosize=1;strokeColor=none;fillColor=none;fontFamily=Mali;fontSource=https%3A%2F%2Ffonts.googleapis.com%2Fcss%3Ffamily%3DMali;" vertex="1" parent="BInqn7c2tcAaK_KYe1yq-40">
          <mxGeometry x="46.1231884057971" y="90" width="90" height="30" as="geometry" />
        </mxCell>
        <mxCell id="BInqn7c2tcAaK_KYe1yq-45" value="Integrity" style="text;html=1;align=center;verticalAlign=middle;resizable=0;points=[];autosize=1;strokeColor=none;fillColor=none;fontFamily=Mali;fontSource=https%3A%2F%2Ffonts.googleapis.com%2Fcss%3Ffamily%3DMali;fontColor=#0000CC;fontStyle=1" vertex="1" parent="BInqn7c2tcAaK_KYe1yq-40">
          <mxGeometry x="50.97826086956522" y="116" width="80" height="30" as="geometry" />
        </mxCell>
        <mxCell id="BInqn7c2tcAaK_KYe1yq-46" style="edgeStyle=orthogonalEdgeStyle;rounded=0;orthogonalLoop=1;jettySize=auto;html=1;endArrow=none;startFill=0;fillColor=#f5f5f5;strokeColor=#666666;" edge="1" parent="BInqn7c2tcAaK_KYe1yq-40" source="BInqn7c2tcAaK_KYe1yq-47" target="BInqn7c2tcAaK_KYe1yq-43">
          <mxGeometry relative="1" as="geometry">
            <Array as="points">
              <mxPoint x="103.89855072463767" y="30" />
            </Array>
          </mxGeometry>
        </mxCell>
        <mxCell id="BInqn7c2tcAaK_KYe1yq-47" value="" style="ellipse;whiteSpace=wrap;html=1;fillColor=#b1ddf0;fontStyle=1;fontSize=17;strokeColor=#10739e;" vertex="1" parent="BInqn7c2tcAaK_KYe1yq-40">
          <mxGeometry x="70.39855072463769" y="50" width="38.84057971014493" height="40" as="geometry" />
        </mxCell>
        <mxCell id="BInqn7c2tcAaK_KYe1yq-48" value="Normal" style="text;html=1;align=center;verticalAlign=middle;resizable=0;points=[];autosize=1;strokeColor=none;fillColor=none;rotation=90;fontColor=#B5739D;fontStyle=1;fontFamily=Mali;fontSource=https%3A%2F%2Ffonts.googleapis.com%2Fcss%3Ffamily%3DMali;fontSize=15;" vertex="1" parent="BInqn7c2tcAaK_KYe1yq-5">
          <mxGeometry x="592.3188405797101" y="30" width="80" height="30" as="geometry" />
        </mxCell>
        <mxCell id="BInqn7c2tcAaK_KYe1yq-49" value="Passive" style="text;html=1;align=center;verticalAlign=middle;resizable=0;points=[];autosize=1;strokeColor=none;fillColor=none;rotation=90;fontColor=#B5739D;fontStyle=1;fontFamily=Mali;fontSource=https%3A%2F%2Ffonts.googleapis.com%2Fcss%3Ffamily%3DMali;fontSize=15;" vertex="1" parent="BInqn7c2tcAaK_KYe1yq-5">
          <mxGeometry x="592.3188405797101" y="168" width="80" height="30" as="geometry" />
        </mxCell>
        <mxCell id="BInqn7c2tcAaK_KYe1yq-50" value="Active" style="text;html=1;align=center;verticalAlign=middle;resizable=0;points=[];autosize=1;strokeColor=none;fillColor=none;rotation=90;fontColor=#B5739D;fontStyle=1;fontFamily=Mali;fontSource=https%3A%2F%2Ffonts.googleapis.com%2Fcss%3Ffamily%3DMali;fontSize=15;" vertex="1" parent="BInqn7c2tcAaK_KYe1yq-5">
          <mxGeometry x="597.1739130434783" y="328" width="70" height="30" as="geometry" />
        </mxCell>
        <mxCell id="BInqn7c2tcAaK_KYe1yq-51" value="" style="edgeStyle=none;orthogonalLoop=1;jettySize=auto;html=1;rounded=0;endArrow=none;startFill=0;dashed=1;dashPattern=8 8;fillColor=#f5f5f5;strokeColor=#666666;strokeWidth=2;" edge="1" parent="BInqn7c2tcAaK_KYe1yq-5">
          <mxGeometry width="100" relative="1" as="geometry">
            <mxPoint x="4.855072463768116" y="259" as="sourcePoint" />
            <mxPoint x="664.1739130434783" y="256" as="targetPoint" />
            <Array as="points" />
          </mxGeometry>
        </mxCell>
        <mxCell id="BInqn7c2tcAaK_KYe1yq-52" value="" style="edgeStyle=none;orthogonalLoop=1;jettySize=auto;html=1;rounded=0;endArrow=none;startFill=0;dashed=1;dashPattern=8 8;fillColor=#f5f5f5;strokeColor=#666666;strokeWidth=2;entryX=1;entryY=0.241;entryDx=0;entryDy=0;entryPerimeter=0;" edge="1" parent="BInqn7c2tcAaK_KYe1yq-5" target="BInqn7c2tcAaK_KYe1yq-6">
          <mxGeometry width="100" relative="1" as="geometry">
            <mxPoint x="0.9710144927536232" y="95" as="sourcePoint" />
            <mxPoint x="660.2898550724638" y="100" as="targetPoint" />
            <Array as="points" />
          </mxGeometry>
        </mxCell>
        <mxCell id="BInqn7c2tcAaK_KYe1yq-53" value="&lt;font style=&quot;color: rgb(0, 0, 204);&quot; face=&quot;Mali&quot; data-font-src=&quot;https://fonts.googleapis.com/css?family=Mali&quot;&gt;&lt;span&gt;Attack Types&lt;/span&gt;&lt;/font&gt;" style="text;html=1;align=center;verticalAlign=middle;resizable=0;points=[];autosize=1;strokeColor=none;fillColor=none;textShadow=0;labelBackgroundColor=none;fontSize=30;fontStyle=1" vertex="1" parent="BInqn7c2tcAaK_KYe1yq-4">
          <mxGeometry x="207" width="220" height="50" as="geometry" />
        </mxCell>
        <mxCell id="BInqn7c2tcAaK_KYe1yq-54" value="interaction with the user through GUI" style="rounded=1;whiteSpace=wrap;html=1;hachureGap=4;fontFamily=Mina;strokeWidth=2;fillColor=#FFF2CC;strokeColor=#000000;fontSize=16;fontStyle=1;labelBorderColor=none;textShadow=0;labelBackgroundColor=none;align=left;spacing=7;verticalAlign=middle;sketch=1;curveFitting=1;jiggle=2;" vertex="1" parent="1">
          <mxGeometry x="-1529" y="-967" width="286" height="40" as="geometry" />
        </mxCell>
        <mxCell id="BInqn7c2tcAaK_KYe1yq-55" value="Preparing user inquiries and request through standard interface" style="rounded=1;whiteSpace=wrap;html=1;hachureGap=4;fontFamily=Mina;strokeWidth=2;fillColor=#FFF2CC;strokeColor=#000000;fontSize=16;fontStyle=1;labelBorderColor=none;textShadow=0;labelBackgroundColor=none;align=left;spacing=7;verticalAlign=middle;sketch=1;curveFitting=1;jiggle=2;" vertex="1" parent="1">
          <mxGeometry x="-1529" y="-927" width="485" height="40" as="geometry" />
        </mxCell>
        <mxCell id="BInqn7c2tcAaK_KYe1yq-56" value="Communication with the server" style="rounded=1;whiteSpace=wrap;html=1;hachureGap=4;fontFamily=Mina;strokeWidth=2;fillColor=#FFF2CC;strokeColor=#000000;fontSize=16;fontStyle=1;labelBorderColor=none;textShadow=0;labelBackgroundColor=none;align=left;spacing=7;verticalAlign=middle;sketch=1;curveFitting=1;jiggle=2;" vertex="1" parent="1">
          <mxGeometry x="-1529" y="-887" width="240" height="40" as="geometry" />
        </mxCell>
        <mxCell id="BInqn7c2tcAaK_KYe1yq-57" value="Perform analysis on the data received from the server" style="rounded=1;whiteSpace=wrap;html=1;hachureGap=4;fontFamily=Mina;strokeWidth=2;fillColor=#FFF2CC;strokeColor=#000000;fontSize=16;fontStyle=1;labelBorderColor=none;textShadow=0;labelBackgroundColor=none;align=left;spacing=7;verticalAlign=middle;sketch=1;curveFitting=1;jiggle=2;" vertex="1" parent="1">
          <mxGeometry x="-1529" y="-847" width="420" height="40" as="geometry" />
        </mxCell>
        <mxCell id="BInqn7c2tcAaK_KYe1yq-58" value="A client is an entity consists of operating system and collection of programs to perform set of function included:" style="rounded=1;whiteSpace=wrap;html=1;hachureGap=4;fontFamily=Mina;strokeWidth=2;fillColor=#cce5ff;strokeColor=#000000;fontSize=16;fontStyle=1;labelBorderColor=none;textShadow=0;labelBackgroundColor=none;align=left;spacing=7;verticalAlign=middle;sketch=1;curveFitting=1;jiggle=2;" vertex="1" parent="1">
          <mxGeometry x="-1564" y="-1020" width="645" height="53" as="geometry" />
        </mxCell>
        <mxCell id="BInqn7c2tcAaK_KYe1yq-59" value="Client" style="rounded=1;whiteSpace=wrap;html=1;hachureGap=4;fontFamily=Mina;strokeWidth=2;fillColor=#dae8fc;strokeColor=#000000;fontSize=22;fontStyle=1;labelBorderColor=none;textShadow=0;labelBackgroundColor=none;align=center;spacing=5;verticalAlign=middle;spacingTop=0;spacingRight=2;container=0;fillStyle=cross-hatch;sketch=1;curveFitting=1;jiggle=2;" vertex="1" parent="1">
          <mxGeometry x="-1544" y="-1060" width="80" height="40" as="geometry" />
        </mxCell>
        <mxCell id="BInqn7c2tcAaK_KYe1yq-60" value="&amp;nbsp;provides one or more services, is a passive machine, only respond to inquires or requests from clients for e.g. DB" style="rounded=1;whiteSpace=wrap;html=1;hachureGap=4;fontFamily=Mina;strokeWidth=2;fillColor=#cce5ff;strokeColor=#000000;fontSize=16;fontStyle=1;labelBorderColor=none;textShadow=0;labelBackgroundColor=none;align=left;spacing=7;verticalAlign=middle;sketch=1;curveFitting=1;jiggle=2;" vertex="1" parent="1">
          <mxGeometry x="-1562.5" y="-740" width="645" height="50" as="geometry" />
        </mxCell>
        <mxCell id="BInqn7c2tcAaK_KYe1yq-61" value="Server" style="rounded=1;whiteSpace=wrap;html=1;hachureGap=4;fontFamily=Mina;strokeWidth=2;fillColor=#dae8fc;strokeColor=#000000;fontSize=22;fontStyle=1;labelBorderColor=none;textShadow=0;labelBackgroundColor=none;align=center;spacing=5;verticalAlign=middle;spacingTop=0;spacingRight=2;container=0;fillStyle=cross-hatch;sketch=1;curveFitting=1;jiggle=2;" vertex="1" parent="1">
          <mxGeometry x="-1542.5" y="-780" width="80" height="40" as="geometry" />
        </mxCell>
        <mxCell id="BInqn7c2tcAaK_KYe1yq-62" value="" style="image;points=[];aspect=fixed;html=1;align=center;shadow=0;dashed=0;image=img/lib/allied_telesis/computer_and_terminals/Personal_Computer_with_Server.svg;imageBackground=none;imageBorder=none;" vertex="1" parent="1">
          <mxGeometry x="-1057.25" y="-606.95" width="73.9" height="73.9" as="geometry" />
        </mxCell>
        <mxCell id="BInqn7c2tcAaK_KYe1yq-63" value="" style="image;points=[];aspect=fixed;html=1;align=center;shadow=0;dashed=0;image=img/lib/allied_telesis/computer_and_terminals/Personal_Computer.svg;" vertex="1" parent="1">
          <mxGeometry x="-1462.25" y="-607.5" width="55.34" height="75" as="geometry" />
        </mxCell>
        <mxCell id="BInqn7c2tcAaK_KYe1yq-64" style="edgeStyle=orthogonalEdgeStyle;rounded=0;orthogonalLoop=1;jettySize=auto;html=1;endArrow=none;startFill=0;" edge="1" parent="1" source="BInqn7c2tcAaK_KYe1yq-66" target="BInqn7c2tcAaK_KYe1yq-63">
          <mxGeometry relative="1" as="geometry" />
        </mxCell>
        <mxCell id="BInqn7c2tcAaK_KYe1yq-65" style="edgeStyle=orthogonalEdgeStyle;rounded=0;orthogonalLoop=1;jettySize=auto;html=1;endArrow=none;startFill=0;" edge="1" parent="1" source="BInqn7c2tcAaK_KYe1yq-66" target="BInqn7c2tcAaK_KYe1yq-62">
          <mxGeometry relative="1" as="geometry" />
        </mxCell>
        <mxCell id="BInqn7c2tcAaK_KYe1yq-66" value="&lt;b&gt;&lt;font data-font-src=&quot;https://fonts.googleapis.com/css?family=Mali&quot; face=&quot;Mali&quot;&gt;LAN&lt;/font&gt;&lt;/b&gt;" style="ellipse;whiteSpace=wrap;html=1;strokeWidth=2;fontFamily=Sifonn Basic;fontSize=16;verticalAlign=middle;spacingBottom=7;fillColor=#cce5ff;strokeColor=#36393d;" vertex="1" parent="1">
          <mxGeometry x="-1277.25" y="-587.5" width="90" height="35" as="geometry" />
        </mxCell>
        <mxCell id="BInqn7c2tcAaK_KYe1yq-67" value="Server" style="text;html=1;align=center;verticalAlign=middle;resizable=0;points=[];autosize=1;strokeColor=none;fillColor=none;" vertex="1" parent="1">
          <mxGeometry x="-1007.25" y="-630" width="60" height="30" as="geometry" />
        </mxCell>
        <mxCell id="BInqn7c2tcAaK_KYe1yq-68" value="Client&lt;div&gt;Workstation&lt;/div&gt;" style="text;html=1;align=center;verticalAlign=middle;resizable=0;points=[];autosize=1;strokeColor=none;fillColor=none;" vertex="1" parent="1">
          <mxGeometry x="-1535.75" y="-625" width="90" height="40" as="geometry" />
        </mxCell>
        <mxCell id="BInqn7c2tcAaK_KYe1yq-69" value="" style="group" vertex="1" connectable="0" parent="1">
          <mxGeometry x="-1167.25" y="-670" width="120" height="70" as="geometry" />
        </mxCell>
        <mxCell id="BInqn7c2tcAaK_KYe1yq-70" value="&lt;div&gt;&amp;nbsp;Distributed&lt;span style=&quot;background-color: transparent; color: light-dark(rgb(0, 0, 0), rgb(255, 255, 255));&quot;&gt;&amp;nbsp;Services&lt;/span&gt;&lt;/div&gt;" style="whiteSpace=wrap;html=1;" vertex="1" parent="BInqn7c2tcAaK_KYe1yq-69">
          <mxGeometry width="120" height="20" as="geometry" />
        </mxCell>
        <mxCell id="BInqn7c2tcAaK_KYe1yq-71" value="&lt;div&gt;Client Interface&lt;/div&gt;" style="whiteSpace=wrap;html=1;" vertex="1" parent="BInqn7c2tcAaK_KYe1yq-69">
          <mxGeometry y="20" width="120" height="20" as="geometry" />
        </mxCell>
        <mxCell id="BInqn7c2tcAaK_KYe1yq-72" value="&lt;div&gt;Communication interface&lt;/div&gt;" style="whiteSpace=wrap;html=1;" vertex="1" parent="BInqn7c2tcAaK_KYe1yq-69">
          <mxGeometry y="40" width="120" height="30" as="geometry" />
        </mxCell>
        <mxCell id="BInqn7c2tcAaK_KYe1yq-73" value="" style="group" vertex="1" connectable="0" parent="1">
          <mxGeometry x="-1427.25" y="-670" width="120" height="70" as="geometry" />
        </mxCell>
        <mxCell id="BInqn7c2tcAaK_KYe1yq-74" value="&lt;div&gt;End User&amp;nbsp;&lt;span style=&quot;background-color: transparent; color: light-dark(rgb(0, 0, 0), rgb(255, 255, 255));&quot;&gt;Interface&lt;/span&gt;&lt;/div&gt;" style="whiteSpace=wrap;html=1;" vertex="1" parent="BInqn7c2tcAaK_KYe1yq-73">
          <mxGeometry width="120" height="20" as="geometry" />
        </mxCell>
        <mxCell id="BInqn7c2tcAaK_KYe1yq-75" value="&lt;div&gt;&amp;nbsp;Server&lt;span style=&quot;background-color: transparent; color: light-dark(rgb(0, 0, 0), rgb(255, 255, 255));&quot;&gt;&amp;nbsp;Interface&lt;/span&gt;&lt;/div&gt;" style="whiteSpace=wrap;html=1;" vertex="1" parent="BInqn7c2tcAaK_KYe1yq-73">
          <mxGeometry y="20" width="120" height="20" as="geometry" />
        </mxCell>
        <mxCell id="BInqn7c2tcAaK_KYe1yq-76" value="&lt;div&gt;Communication interface&lt;/div&gt;" style="whiteSpace=wrap;html=1;" vertex="1" parent="BInqn7c2tcAaK_KYe1yq-73">
          <mxGeometry y="40" width="120" height="30" as="geometry" />
        </mxCell>
        <mxCell id="BInqn7c2tcAaK_KYe1yq-77" style="rounded=0;orthogonalLoop=1;jettySize=auto;html=1;edgeStyle=orthogonalEdgeStyle;endArrow=none;startFill=0;" edge="1" parent="1" source="BInqn7c2tcAaK_KYe1yq-71" target="BInqn7c2tcAaK_KYe1yq-62">
          <mxGeometry relative="1" as="geometry">
            <Array as="points">
              <mxPoint x="-1020.25" y="-640" />
            </Array>
          </mxGeometry>
        </mxCell>
        <mxCell id="BInqn7c2tcAaK_KYe1yq-78" style="edgeStyle=orthogonalEdgeStyle;rounded=0;orthogonalLoop=1;jettySize=auto;html=1;endArrow=none;startFill=0;" edge="1" parent="1" source="BInqn7c2tcAaK_KYe1yq-75">
          <mxGeometry relative="1" as="geometry">
            <mxPoint x="-1447.25" y="-606" as="targetPoint" />
            <Array as="points">
              <mxPoint x="-1447.25" y="-640" />
              <mxPoint x="-1447.25" y="-607" />
            </Array>
          </mxGeometry>
        </mxCell>
        <mxCell id="BInqn7c2tcAaK_KYe1yq-79" value="Breaching secret data" style="rounded=1;whiteSpace=wrap;html=1;hachureGap=4;fontFamily=Mina;strokeWidth=2;fillColor=#FFF2CC;strokeColor=#000000;fontSize=16;fontStyle=1;labelBorderColor=none;textShadow=0;labelBackgroundColor=none;align=left;spacing=7;verticalAlign=middle;sketch=1;curveFitting=1;jiggle=2;" vertex="1" parent="1">
          <mxGeometry x="-1474.75" y="-470" width="173" height="40" as="geometry" />
        </mxCell>
        <mxCell id="BInqn7c2tcAaK_KYe1yq-80" value="Unauthorized logons" style="rounded=1;whiteSpace=wrap;html=1;hachureGap=4;fontFamily=Mina;strokeWidth=2;fillColor=#FFF2CC;strokeColor=#000000;fontSize=16;fontStyle=1;labelBorderColor=none;textShadow=0;labelBackgroundColor=none;align=left;spacing=7;verticalAlign=middle;sketch=1;curveFitting=1;jiggle=2;" vertex="1" parent="1">
          <mxGeometry x="-1474.75" y="-430" width="164" height="40" as="geometry" />
        </mxCell>
        <mxCell id="BInqn7c2tcAaK_KYe1yq-81" value="Unauthorized denial of service" style="rounded=1;whiteSpace=wrap;html=1;hachureGap=4;fontFamily=Mina;strokeWidth=2;fillColor=#FFF2CC;strokeColor=#000000;fontSize=16;fontStyle=1;labelBorderColor=none;textShadow=0;labelBackgroundColor=none;align=left;spacing=7;verticalAlign=middle;sketch=1;curveFitting=1;jiggle=2;" vertex="1" parent="1">
          <mxGeometry x="-1474.75" y="-390" width="235" height="40" as="geometry" />
        </mxCell>
        <mxCell id="BInqn7c2tcAaK_KYe1yq-82" value="Classes of Security Risks" style="rounded=1;whiteSpace=wrap;html=1;hachureGap=4;fontFamily=Mina;strokeWidth=2;fillColor=#fff2cc;strokeColor=#000000;fontSize=22;fontStyle=1;labelBorderColor=none;textShadow=0;labelBackgroundColor=none;align=center;spacing=5;verticalAlign=middle;spacingTop=0;spacingRight=2;container=0;fillStyle=cross-hatch;sketch=1;curveFitting=1;jiggle=2;" vertex="1" parent="1">
          <mxGeometry x="-1568" y="-470" width="93.25" height="120" as="geometry" />
        </mxCell>
        <mxCell id="BInqn7c2tcAaK_KYe1yq-83" value="" style="group" vertex="1" connectable="0" parent="1">
          <mxGeometry x="-1577" y="-320" width="670" height="790" as="geometry" />
        </mxCell>
        <mxCell id="BInqn7c2tcAaK_KYe1yq-84" value="" style="rounded=1;whiteSpace=wrap;html=1;sketch=1;hachureGap=4;jiggle=2;curveFitting=1;fontFamily=Architects Daughter;fontSource=https%3A%2F%2Ffonts.googleapis.com%2Fcss%3Ffamily%3DArchitects%2BDaughter;fillColor=none;arcSize=4;strokeWidth=2;" vertex="1" parent="BInqn7c2tcAaK_KYe1yq-83">
          <mxGeometry y="40" width="670" height="750" as="geometry" />
        </mxCell>
        <mxCell id="BInqn7c2tcAaK_KYe1yq-85" value="&lt;span style=&quot;font-size: 20px;&quot;&gt;Security Concepts&lt;/span&gt;" style="rounded=1;html=1;sketch=1;hachureGap=4;jiggle=2;curveFitting=1;fontFamily=Mali;fontSource=https%3A%2F%2Ffonts.googleapis.com%2Fcss%3Ffamily%3DMali;strokeWidth=2;fillColor=#E6E6E6;strokeColor=default;fontSize=23;fontStyle=1;labelBorderColor=none;textShadow=0;labelBackgroundColor=none;arcSize=33;fillStyle=cross-hatch;fontColor=#000000;whiteSpace=wrap;" vertex="1" parent="BInqn7c2tcAaK_KYe1yq-83">
          <mxGeometry x="220" width="200" height="40" as="geometry" />
        </mxCell>
        <mxCell id="BInqn7c2tcAaK_KYe1yq-86" value="" style="group;fontFamily=Mali;fontSource=https%3A%2F%2Ffonts.googleapis.com%2Fcss%3Ffamily%3DMali;" vertex="1" connectable="0" parent="BInqn7c2tcAaK_KYe1yq-83">
          <mxGeometry x="14" y="60" width="640" height="80" as="geometry" />
        </mxCell>
        <mxCell id="BInqn7c2tcAaK_KYe1yq-87" value="" style="rounded=1;whiteSpace=wrap;html=1;sketch=1;hachureGap=4;jiggle=2;curveFitting=1;fontFamily=Mali;fontSource=https%3A%2F%2Ffonts.googleapis.com%2Fcss%3Ffamily%3DMali;strokeWidth=2;fillColor=#D5E8D4;strokeColor=#36393d;fontSize=16;fontStyle=1;labelBorderColor=none;textShadow=0;labelBackgroundColor=none;align=left;spacing=7;verticalAlign=middle;fillStyle=cross-hatch;" vertex="1" parent="BInqn7c2tcAaK_KYe1yq-86">
          <mxGeometry y="30" width="640" height="50" as="geometry" />
        </mxCell>
        <mxCell id="BInqn7c2tcAaK_KYe1yq-88" value="" style="group" vertex="1" connectable="0" parent="BInqn7c2tcAaK_KYe1yq-83">
          <mxGeometry x="14" y="150" width="640" height="80" as="geometry" />
        </mxCell>
        <mxCell id="BInqn7c2tcAaK_KYe1yq-89" value="" style="group" vertex="1" connectable="0" parent="BInqn7c2tcAaK_KYe1yq-88">
          <mxGeometry y="30" width="640" height="50" as="geometry" />
        </mxCell>
        <mxCell id="BInqn7c2tcAaK_KYe1yq-90" value="" style="rounded=1;whiteSpace=wrap;html=1;sketch=1;hachureGap=4;jiggle=2;curveFitting=1;fontFamily=Mali;fontSource=https%3A%2F%2Ffonts.googleapis.com%2Fcss%3Ffamily%3DMali;strokeWidth=2;fillColor=#FFF2CC;strokeColor=#36393d;fontSize=16;fontStyle=1;labelBorderColor=none;textShadow=0;labelBackgroundColor=none;align=left;spacing=7;verticalAlign=middle;fillStyle=cross-hatch;" vertex="1" parent="BInqn7c2tcAaK_KYe1yq-89">
          <mxGeometry width="640" height="50" as="geometry" />
        </mxCell>
        <mxCell id="BInqn7c2tcAaK_KYe1yq-91" value="" style="group;fontFamily=Mali;fontSource=https%3A%2F%2Ffonts.googleapis.com%2Fcss%3Ffamily%3DMali;" vertex="1" connectable="0" parent="BInqn7c2tcAaK_KYe1yq-83">
          <mxGeometry x="14" y="240" width="640" height="80" as="geometry" />
        </mxCell>
        <mxCell id="BInqn7c2tcAaK_KYe1yq-92" value="" style="rounded=1;whiteSpace=wrap;html=1;sketch=1;hachureGap=4;jiggle=2;curveFitting=1;fontFamily=Mali;fontSource=https%3A%2F%2Ffonts.googleapis.com%2Fcss%3Ffamily%3DMali;strokeWidth=2;fillColor=#E6D0DE;strokeColor=#36393d;fontSize=16;fontStyle=1;labelBorderColor=none;textShadow=0;labelBackgroundColor=none;align=left;spacing=7;verticalAlign=middle;fillStyle=cross-hatch;" vertex="1" parent="BInqn7c2tcAaK_KYe1yq-91">
          <mxGeometry y="30" width="640" height="50" as="geometry" />
        </mxCell>
        <mxCell id="BInqn7c2tcAaK_KYe1yq-93" value="" style="group;fontFamily=Mali;fontSource=https%3A%2F%2Ffonts.googleapis.com%2Fcss%3Ffamily%3DMali;" vertex="1" connectable="0" parent="BInqn7c2tcAaK_KYe1yq-83">
          <mxGeometry x="14" y="330" width="640" height="80" as="geometry" />
        </mxCell>
        <mxCell id="BInqn7c2tcAaK_KYe1yq-94" value="" style="rounded=1;whiteSpace=wrap;html=1;sketch=1;hachureGap=4;jiggle=2;curveFitting=1;fontFamily=Mali;fontSource=https%3A%2F%2Ffonts.googleapis.com%2Fcss%3Ffamily%3DMali;strokeWidth=2;fillColor=#FFF4C3;strokeColor=#36393d;fontSize=16;fontStyle=1;labelBorderColor=none;textShadow=0;labelBackgroundColor=none;align=left;spacing=7;verticalAlign=middle;fillStyle=cross-hatch;" vertex="1" parent="BInqn7c2tcAaK_KYe1yq-93">
          <mxGeometry y="30" width="640" height="50" as="geometry" />
        </mxCell>
        <mxCell id="BInqn7c2tcAaK_KYe1yq-95" value="Identification" style="rounded=1;whiteSpace=wrap;html=1;sketch=1;hachureGap=4;jiggle=2;curveFitting=1;fontFamily=Mali;fontSource=https%3A%2F%2Ffonts.googleapis.com%2Fcss%3Ffamily%3DMali;strokeWidth=2;fillColor=#D5E8D4;strokeColor=#36393d;fontSize=20;fontStyle=1;labelBorderColor=none;textShadow=0;labelBackgroundColor=none;verticalAlign=bottom;spacingBottom=3;fillStyle=cross-hatch;" vertex="1" parent="BInqn7c2tcAaK_KYe1yq-83">
          <mxGeometry x="30" y="60" width="150" height="30" as="geometry" />
        </mxCell>
        <mxCell id="BInqn7c2tcAaK_KYe1yq-96" value="Authentication" style="rounded=1;whiteSpace=wrap;html=1;sketch=1;hachureGap=4;jiggle=2;curveFitting=1;fontFamily=Mali;fontSource=https%3A%2F%2Ffonts.googleapis.com%2Fcss%3Ffamily%3DMali;strokeWidth=2;fillColor=#FFF2CC;strokeColor=#36393d;fontSize=20;fontStyle=1;labelBorderColor=none;textShadow=0;labelBackgroundColor=none;fillStyle=cross-hatch;" vertex="1" parent="BInqn7c2tcAaK_KYe1yq-83">
          <mxGeometry x="30" y="150" width="164" height="30" as="geometry" />
        </mxCell>
        <mxCell id="BInqn7c2tcAaK_KYe1yq-97" value="Authorization" style="rounded=1;whiteSpace=wrap;html=1;sketch=1;hachureGap=4;jiggle=2;curveFitting=1;fontFamily=Mali;fontSource=https%3A%2F%2Ffonts.googleapis.com%2Fcss%3Ffamily%3DMali;strokeWidth=2;fillColor=#E6D0DE;strokeColor=#36393d;fontSize=20;fontStyle=1;labelBorderColor=none;textShadow=0;labelBackgroundColor=none;verticalAlign=bottom;spacingBottom=3;fillStyle=cross-hatch;" vertex="1" parent="BInqn7c2tcAaK_KYe1yq-83">
          <mxGeometry x="30" y="240" width="144" height="30" as="geometry" />
        </mxCell>
        <mxCell id="BInqn7c2tcAaK_KYe1yq-98" value="Access Control" style="rounded=1;whiteSpace=wrap;html=1;sketch=1;hachureGap=4;jiggle=2;curveFitting=1;fontFamily=Mali;fontSource=https%3A%2F%2Ffonts.googleapis.com%2Fcss%3Ffamily%3DMali;strokeWidth=2;fillColor=#FFF4C3;strokeColor=#36393d;fontSize=20;fontStyle=1;labelBorderColor=none;textShadow=0;labelBackgroundColor=none;verticalAlign=bottom;spacingBottom=3;fillStyle=cross-hatch;" vertex="1" parent="BInqn7c2tcAaK_KYe1yq-83">
          <mxGeometry x="30" y="330" width="164" height="30" as="geometry" />
        </mxCell>
        <mxCell id="BInqn7c2tcAaK_KYe1yq-99" value="Confidentiality" style="rounded=1;whiteSpace=wrap;html=1;sketch=1;hachureGap=4;jiggle=2;curveFitting=1;fontFamily=Mali;fontSource=https%3A%2F%2Ffonts.googleapis.com%2Fcss%3Ffamily%3DMali;strokeWidth=2;fillColor=#D4E1F5;strokeColor=#36393d;fontSize=20;fontStyle=1;labelBorderColor=none;textShadow=0;labelBackgroundColor=none;verticalAlign=bottom;spacingBottom=3;fillStyle=cross-hatch;" vertex="1" parent="BInqn7c2tcAaK_KYe1yq-83">
          <mxGeometry x="30" y="420" width="154" height="30" as="geometry" />
        </mxCell>
        <mxCell id="BInqn7c2tcAaK_KYe1yq-100" value="Denial of service" style="rounded=1;whiteSpace=wrap;html=1;sketch=1;hachureGap=4;jiggle=2;curveFitting=1;fontFamily=Mali;fontSource=https%3A%2F%2Ffonts.googleapis.com%2Fcss%3Ffamily%3DMali;strokeWidth=2;fillColor=#b0e3e6;strokeColor=#000000;fontSize=20;fontStyle=1;labelBorderColor=none;textShadow=0;labelBackgroundColor=none;verticalAlign=bottom;spacingBottom=3;fillStyle=cross-hatch;" vertex="1" parent="BInqn7c2tcAaK_KYe1yq-83">
          <mxGeometry x="30" y="690" width="180" height="30" as="geometry" />
        </mxCell>
        <mxCell id="BInqn7c2tcAaK_KYe1yq-101" value="Non-Repudiation" style="rounded=1;whiteSpace=wrap;html=1;sketch=1;hachureGap=4;jiggle=2;curveFitting=1;fontFamily=Mali;fontSource=https%3A%2F%2Ffonts.googleapis.com%2Fcss%3Ffamily%3DMali;strokeWidth=2;fillColor=light-dark(#DDE8C4,#D7DCDF);strokeColor=#36393d;fontSize=20;fontStyle=1;labelBorderColor=none;textShadow=0;labelBackgroundColor=none;verticalAlign=bottom;spacingBottom=3;fillStyle=cross-hatch;" vertex="1" parent="BInqn7c2tcAaK_KYe1yq-83">
          <mxGeometry x="30" y="600" width="172.5" height="30" as="geometry" />
        </mxCell>
        <mxCell id="BInqn7c2tcAaK_KYe1yq-102" value="Data integrity" style="rounded=1;whiteSpace=wrap;html=1;sketch=1;hachureGap=4;jiggle=2;curveFitting=1;fontFamily=Mali;fontSource=https%3A%2F%2Ffonts.googleapis.com%2Fcss%3Ffamily%3DMali;strokeWidth=2;fillColor=#fad9d5;strokeColor=#000000;fontSize=20;fontStyle=1;labelBorderColor=none;textShadow=0;labelBackgroundColor=none;verticalAlign=bottom;spacingBottom=3;fillStyle=cross-hatch;" vertex="1" parent="BInqn7c2tcAaK_KYe1yq-83">
          <mxGeometry x="30" y="510" width="144" height="30" as="geometry" />
        </mxCell>
        <mxCell id="BInqn7c2tcAaK_KYe1yq-103" value="" style="group;fontFamily=Mali;fontSource=https%3A%2F%2Ffonts.googleapis.com%2Fcss%3Ffamily%3DMali;" vertex="1" connectable="0" parent="1">
          <mxGeometry x="-1563" y="100" width="640" height="80" as="geometry" />
        </mxCell>
        <mxCell id="BInqn7c2tcAaK_KYe1yq-104" value="" style="rounded=1;whiteSpace=wrap;html=1;sketch=1;hachureGap=4;jiggle=2;curveFitting=1;fontFamily=Mali;fontSource=https%3A%2F%2Ffonts.googleapis.com%2Fcss%3Ffamily%3DMali;strokeWidth=2;fillColor=#D4E1F5;strokeColor=#36393d;fontSize=16;fontStyle=1;labelBorderColor=none;textShadow=0;labelBackgroundColor=none;align=left;spacing=7;verticalAlign=middle;fillStyle=cross-hatch;" vertex="1" parent="BInqn7c2tcAaK_KYe1yq-103">
          <mxGeometry y="30" width="640" height="50" as="geometry" />
        </mxCell>
        <mxCell id="BInqn7c2tcAaK_KYe1yq-105" value="" style="group" vertex="1" connectable="0" parent="1">
          <mxGeometry x="-1563" y="370" width="640" height="80" as="geometry" />
        </mxCell>
        <mxCell id="BInqn7c2tcAaK_KYe1yq-106" value="" style="rounded=1;whiteSpace=wrap;html=1;sketch=1;hachureGap=4;jiggle=2;curveFitting=1;fontFamily=Mali;fontSource=https%3A%2F%2Ffonts.googleapis.com%2Fcss%3Ffamily%3DMali;strokeWidth=2;fillColor=#b0e3e6;strokeColor=#000000;fontSize=16;fontStyle=1;labelBorderColor=none;textShadow=0;labelBackgroundColor=none;align=left;spacing=7;verticalAlign=middle;fillStyle=cross-hatch;" vertex="1" parent="BInqn7c2tcAaK_KYe1yq-105">
          <mxGeometry y="30" width="640" height="50" as="geometry" />
        </mxCell>
        <mxCell id="BInqn7c2tcAaK_KYe1yq-107" value="" style="group" vertex="1" connectable="0" parent="1">
          <mxGeometry x="-1563" y="280" width="640" height="80" as="geometry" />
        </mxCell>
        <mxCell id="BInqn7c2tcAaK_KYe1yq-108" value="" style="rounded=1;whiteSpace=wrap;html=1;sketch=1;hachureGap=4;jiggle=2;curveFitting=1;fontFamily=Mali;fontSource=https%3A%2F%2Ffonts.googleapis.com%2Fcss%3Ffamily%3DMali;strokeWidth=2;fillColor=light-dark(#DDE8C4,#D7DCDF);strokeColor=#36393d;fontSize=16;fontStyle=1;labelBorderColor=none;textShadow=0;labelBackgroundColor=none;align=left;spacing=7;verticalAlign=middle;fillStyle=cross-hatch;" vertex="1" parent="BInqn7c2tcAaK_KYe1yq-107">
          <mxGeometry y="30" width="640" height="50" as="geometry" />
        </mxCell>
        <mxCell id="BInqn7c2tcAaK_KYe1yq-109" value="" style="group" vertex="1" connectable="0" parent="1">
          <mxGeometry x="-1563" y="190" width="640" height="80" as="geometry" />
        </mxCell>
        <mxCell id="BInqn7c2tcAaK_KYe1yq-110" value="" style="rounded=1;whiteSpace=wrap;html=1;sketch=1;hachureGap=4;jiggle=2;curveFitting=1;fontFamily=Mali;fontSource=https%3A%2F%2Ffonts.googleapis.com%2Fcss%3Ffamily%3DMali;strokeWidth=2;fillColor=#fad9d5;strokeColor=#000000;fontSize=16;fontStyle=1;labelBorderColor=none;textShadow=0;labelBackgroundColor=none;align=left;spacing=7;verticalAlign=middle;fillStyle=cross-hatch;" vertex="1" parent="BInqn7c2tcAaK_KYe1yq-109">
          <mxGeometry y="30" width="640" height="50" as="geometry" />
        </mxCell>
      </root>
    </mxGraphModel>
  </diagram>
  <diagram id="ObZV-cBkYtPE1eUfSv3g" name="Chapter 1">
    <mxGraphModel dx="5539" dy="3574" grid="1" gridSize="10" guides="1" tooltips="1" connect="1" arrows="1" fold="1" page="1" pageScale="1" pageWidth="827" pageHeight="1169" math="1" shadow="0">
      <root>
        <mxCell id="0" />
        <mxCell id="1" parent="0" />
        <mxCell id="SsYzKDh9Box-iffjaEJu-95" value="" style="rounded=1;whiteSpace=wrap;html=1;sketch=1;hachureGap=4;jiggle=2;curveFitting=1;fontFamily=Architects Daughter;fontSource=https%3A%2F%2Ffonts.googleapis.com%2Fcss%3Ffamily%3DArchitects%2BDaughter;fillColor=none;arcSize=4;strokeWidth=2;" vertex="1" parent="1">
          <mxGeometry x="-1575" y="-1070" width="670" height="560" as="geometry" />
        </mxCell>
        <mxCell id="XR1OcPMou9w3WdXvXVhl-1" value="" style="rounded=1;whiteSpace=wrap;html=1;hachureGap=4;fontFamily=Mina;strokeWidth=2;fillColor=none;strokeColor=#000000;fontSize=16;fontStyle=1;labelBorderColor=none;textShadow=0;labelBackgroundColor=none;align=left;spacing=7;verticalAlign=middle;arcSize=7;fontColor=#333333;" vertex="1" parent="1">
          <mxGeometry x="-1620" y="-1105" width="760" height="2135" as="geometry" />
        </mxCell>
        <mxCell id="XR1OcPMou9w3WdXvXVhl-32" value="&lt;span style=&quot;text-align: right;&quot;&gt;Chapter `1`&lt;/span&gt;" style="rounded=1;whiteSpace=wrap;html=1;hachureGap=4;fontFamily=Mina;strokeWidth=2;fillColor=#333333;strokeColor=#FFFFFF;fontSize=22;fontStyle=1;labelBorderColor=none;textShadow=0;labelBackgroundColor=none;align=center;spacing=5;verticalAlign=middle;spacingTop=0;spacingRight=0;fontColor=#FFFFFF;container=0;" vertex="1" parent="1">
          <mxGeometry x="-1312" y="-1150" width="155.78" height="45" as="geometry" />
        </mxCell>
        <mxCell id="SsYzKDh9Box-iffjaEJu-73" value="" style="group" vertex="1" connectable="0" parent="1">
          <mxGeometry x="-1577" y="510" width="670" height="500" as="geometry" />
        </mxCell>
        <mxCell id="SsYzKDh9Box-iffjaEJu-71" value="" style="group" vertex="1" connectable="0" parent="SsYzKDh9Box-iffjaEJu-73">
          <mxGeometry y="80" width="670" height="420" as="geometry" />
        </mxCell>
        <mxCell id="SsYzKDh9Box-iffjaEJu-69" value="" style="whiteSpace=wrap;html=1;fillColor=none;dashed=1;dashPattern=8 8;strokeWidth=2;" vertex="1" parent="SsYzKDh9Box-iffjaEJu-71">
          <mxGeometry width="670" height="420" as="geometry" />
        </mxCell>
        <mxCell id="SsYzKDh9Box-iffjaEJu-24" value="" style="group" vertex="1" connectable="0" parent="SsYzKDh9Box-iffjaEJu-71">
          <mxGeometry x="223.71202898550723" y="110" width="179.63768115942028" height="146" as="geometry" />
        </mxCell>
        <mxCell id="SsYzKDh9Box-iffjaEJu-8" value="" style="whiteSpace=wrap;html=1;" vertex="1" parent="SsYzKDh9Box-iffjaEJu-24">
          <mxGeometry width="179.63768115942028" height="116" as="geometry" />
        </mxCell>
        <mxCell id="SsYzKDh9Box-iffjaEJu-9" value="" style="edgeStyle=orthogonalEdgeStyle;rounded=0;orthogonalLoop=1;jettySize=auto;html=1;endArrow=none;startFill=0;fillColor=#f5f5f5;strokeColor=#666666;" edge="1" source="SsYzKDh9Box-iffjaEJu-10" target="SsYzKDh9Box-iffjaEJu-11" parent="SsYzKDh9Box-iffjaEJu-24">
          <mxGeometry relative="1" as="geometry" />
        </mxCell>
        <mxCell id="SsYzKDh9Box-iffjaEJu-10" value="S" style="ellipse;whiteSpace=wrap;html=1;fillColor=#fff2cc;strokeColor=#d6b656;fontStyle=1;fontSize=17;" vertex="1" parent="SsYzKDh9Box-iffjaEJu-24">
          <mxGeometry x="4.855072463768116" y="10" width="38.84057971014493" height="40" as="geometry" />
        </mxCell>
        <mxCell id="SsYzKDh9Box-iffjaEJu-11" value="D" style="ellipse;whiteSpace=wrap;html=1;fillColor=#d5e8d4;strokeColor=#82b366;fontStyle=1;fontSize=17;" vertex="1" parent="SsYzKDh9Box-iffjaEJu-24">
          <mxGeometry x="135.94202898550725" y="10" width="38.84057971014493" height="40" as="geometry" />
        </mxCell>
        <mxCell id="SsYzKDh9Box-iffjaEJu-12" value="Interception" style="text;html=1;align=center;verticalAlign=middle;resizable=0;points=[];autosize=1;strokeColor=none;fillColor=none;fontFamily=Mali;fontSource=https%3A%2F%2Ffonts.googleapis.com%2Fcss%3Ffamily%3DMali;" vertex="1" parent="SsYzKDh9Box-iffjaEJu-24">
          <mxGeometry x="41.268115942028984" y="90" width="100" height="30" as="geometry" />
        </mxCell>
        <mxCell id="SsYzKDh9Box-iffjaEJu-13" value="Confidentiality" style="text;html=1;align=center;verticalAlign=middle;resizable=0;points=[];autosize=1;strokeColor=none;fillColor=none;fontFamily=Mali;fontSource=https%3A%2F%2Ffonts.googleapis.com%2Fcss%3Ffamily%3DMali;fontColor=#0000CC;fontStyle=1" vertex="1" parent="SsYzKDh9Box-iffjaEJu-24">
          <mxGeometry x="36.41304347826087" y="116" width="110" height="30" as="geometry" />
        </mxCell>
        <mxCell id="SsYzKDh9Box-iffjaEJu-22" value="" style="verticalLabelPosition=bottom;verticalAlign=top;html=1;shape=mxgraph.basic.flash;flipV=0;flipH=1;" vertex="1" parent="SsYzKDh9Box-iffjaEJu-24">
          <mxGeometry x="84.96376811594203" y="20.5" width="9.710144927536232" height="29.5" as="geometry" />
        </mxCell>
        <mxCell id="SsYzKDh9Box-iffjaEJu-23" value="" style="ellipse;whiteSpace=wrap;html=1;fillColor=#b1ddf0;fontStyle=1;fontSize=17;strokeColor=#10739e;" vertex="1" parent="SsYzKDh9Box-iffjaEJu-24">
          <mxGeometry x="70.39855072463769" y="50" width="38.84057971014493" height="40" as="geometry" />
        </mxCell>
        <mxCell id="SsYzKDh9Box-iffjaEJu-25" value="" style="group" vertex="1" connectable="0" parent="SsYzKDh9Box-iffjaEJu-71">
          <mxGeometry x="224.78985507246375" y="10" width="179.63768115942028" height="70" as="geometry" />
        </mxCell>
        <mxCell id="SsYzKDh9Box-iffjaEJu-2" value="" style="whiteSpace=wrap;html=1;" vertex="1" parent="SsYzKDh9Box-iffjaEJu-25">
          <mxGeometry width="179.63768115942028" height="70" as="geometry" />
        </mxCell>
        <mxCell id="SsYzKDh9Box-iffjaEJu-6" value="" style="edgeStyle=orthogonalEdgeStyle;rounded=0;orthogonalLoop=1;jettySize=auto;html=1;endArrow=none;startFill=0;fillColor=#f5f5f5;strokeColor=#666666;" edge="1" parent="SsYzKDh9Box-iffjaEJu-25" source="SsYzKDh9Box-iffjaEJu-3" target="SsYzKDh9Box-iffjaEJu-4">
          <mxGeometry relative="1" as="geometry" />
        </mxCell>
        <mxCell id="SsYzKDh9Box-iffjaEJu-3" value="S" style="ellipse;whiteSpace=wrap;html=1;fillColor=#fff2cc;strokeColor=#d6b656;fontStyle=1;fontSize=17;" vertex="1" parent="SsYzKDh9Box-iffjaEJu-25">
          <mxGeometry x="4.855072463768116" y="10" width="38.84057971014493" height="40" as="geometry" />
        </mxCell>
        <mxCell id="SsYzKDh9Box-iffjaEJu-4" value="D" style="ellipse;whiteSpace=wrap;html=1;fillColor=#d5e8d4;strokeColor=#82b366;fontStyle=1;fontSize=17;" vertex="1" parent="SsYzKDh9Box-iffjaEJu-25">
          <mxGeometry x="135.94202898550725" y="10" width="38.84057971014493" height="40" as="geometry" />
        </mxCell>
        <mxCell id="SsYzKDh9Box-iffjaEJu-7" value="Normal Flow" style="text;html=1;align=center;verticalAlign=middle;resizable=0;points=[];autosize=1;strokeColor=none;fillColor=none;fontFamily=Mali;fontSource=https%3A%2F%2Ffonts.googleapis.com%2Fcss%3Ffamily%3DMali;" vertex="1" parent="SsYzKDh9Box-iffjaEJu-25">
          <mxGeometry x="38.84057971014493" y="40" width="100" height="30" as="geometry" />
        </mxCell>
        <mxCell id="SsYzKDh9Box-iffjaEJu-63" value="" style="group" vertex="1" connectable="0" parent="SsYzKDh9Box-iffjaEJu-71">
          <mxGeometry x="25.246376811594203" y="270" width="577.7536231884058" height="146" as="geometry" />
        </mxCell>
        <mxCell id="SsYzKDh9Box-iffjaEJu-33" value="" style="group" vertex="1" connectable="0" parent="SsYzKDh9Box-iffjaEJu-63">
          <mxGeometry width="179.63768115942028" height="146" as="geometry" />
        </mxCell>
        <mxCell id="SsYzKDh9Box-iffjaEJu-26" value="" style="group" vertex="1" connectable="0" parent="SsYzKDh9Box-iffjaEJu-33">
          <mxGeometry width="179.63768115942028" height="146" as="geometry" />
        </mxCell>
        <mxCell id="SsYzKDh9Box-iffjaEJu-27" value="" style="whiteSpace=wrap;html=1;" vertex="1" parent="SsYzKDh9Box-iffjaEJu-26">
          <mxGeometry width="179.63768115942028" height="116" as="geometry" />
        </mxCell>
        <mxCell id="SsYzKDh9Box-iffjaEJu-28" value="" style="edgeStyle=orthogonalEdgeStyle;rounded=0;orthogonalLoop=1;jettySize=auto;html=1;endArrow=baseDash;startFill=0;fillColor=#f5f5f5;strokeColor=#666666;endFill=0;" edge="1" parent="SsYzKDh9Box-iffjaEJu-26" source="SsYzKDh9Box-iffjaEJu-29">
          <mxGeometry relative="1" as="geometry">
            <mxPoint x="87.39130434782608" y="30" as="targetPoint" />
          </mxGeometry>
        </mxCell>
        <mxCell id="SsYzKDh9Box-iffjaEJu-29" value="S" style="ellipse;whiteSpace=wrap;html=1;fillColor=#fff2cc;strokeColor=#d6b656;fontStyle=1;fontSize=17;" vertex="1" parent="SsYzKDh9Box-iffjaEJu-26">
          <mxGeometry x="4.855072463768116" y="10" width="38.84057971014493" height="40" as="geometry" />
        </mxCell>
        <mxCell id="SsYzKDh9Box-iffjaEJu-30" value="D" style="ellipse;whiteSpace=wrap;html=1;fillColor=#d5e8d4;strokeColor=#82b366;fontStyle=1;fontSize=17;" vertex="1" parent="SsYzKDh9Box-iffjaEJu-26">
          <mxGeometry x="135.94202898550725" y="10" width="38.84057971014493" height="40" as="geometry" />
        </mxCell>
        <mxCell id="SsYzKDh9Box-iffjaEJu-32" value="Availability" style="text;html=1;align=center;verticalAlign=middle;resizable=0;points=[];autosize=1;strokeColor=none;fillColor=none;fontFamily=Mali;fontSource=https%3A%2F%2Ffonts.googleapis.com%2Fcss%3Ffamily%3DMali;fontColor=#0000CC;fontStyle=1" vertex="1" parent="SsYzKDh9Box-iffjaEJu-26">
          <mxGeometry x="43.69565217391304" y="116" width="90" height="30" as="geometry" />
        </mxCell>
        <mxCell id="SsYzKDh9Box-iffjaEJu-31" value="Interruption" style="text;html=1;align=center;verticalAlign=middle;resizable=0;points=[];autosize=1;strokeColor=none;fillColor=none;fontFamily=Mali;fontSource=https%3A%2F%2Ffonts.googleapis.com%2Fcss%3Ffamily%3DMali;" vertex="1" parent="SsYzKDh9Box-iffjaEJu-26">
          <mxGeometry x="38.84057971014493" y="86" width="100" height="30" as="geometry" />
        </mxCell>
        <mxCell id="SsYzKDh9Box-iffjaEJu-53" value="" style="group" vertex="1" connectable="0" parent="SsYzKDh9Box-iffjaEJu-63">
          <mxGeometry x="199.05797101449275" width="179.63768115942028" height="146" as="geometry" />
        </mxCell>
        <mxCell id="SsYzKDh9Box-iffjaEJu-44" value="" style="whiteSpace=wrap;html=1;" vertex="1" parent="SsYzKDh9Box-iffjaEJu-53">
          <mxGeometry width="179.63768115942028" height="116" as="geometry" />
        </mxCell>
        <mxCell id="SsYzKDh9Box-iffjaEJu-45" value="" style="edgeStyle=orthogonalEdgeStyle;rounded=0;orthogonalLoop=1;jettySize=auto;html=1;endArrow=none;startFill=0;fillColor=#f5f5f5;strokeColor=#666666;" edge="1" parent="SsYzKDh9Box-iffjaEJu-53" source="SsYzKDh9Box-iffjaEJu-46" target="SsYzKDh9Box-iffjaEJu-51">
          <mxGeometry relative="1" as="geometry">
            <Array as="points">
              <mxPoint x="77.68115942028986" y="30" />
            </Array>
          </mxGeometry>
        </mxCell>
        <mxCell id="SsYzKDh9Box-iffjaEJu-46" value="S" style="ellipse;whiteSpace=wrap;html=1;fillColor=#fff2cc;strokeColor=#d6b656;fontStyle=1;fontSize=17;" vertex="1" parent="SsYzKDh9Box-iffjaEJu-53">
          <mxGeometry x="4.855072463768116" y="10" width="38.84057971014493" height="40" as="geometry" />
        </mxCell>
        <mxCell id="SsYzKDh9Box-iffjaEJu-47" value="D" style="ellipse;whiteSpace=wrap;html=1;fillColor=#d5e8d4;strokeColor=#82b366;fontStyle=1;fontSize=17;" vertex="1" parent="SsYzKDh9Box-iffjaEJu-53">
          <mxGeometry x="135.94202898550725" y="10" width="38.84057971014493" height="40" as="geometry" />
        </mxCell>
        <mxCell id="SsYzKDh9Box-iffjaEJu-48" value="Modification" style="text;html=1;align=center;verticalAlign=middle;resizable=0;points=[];autosize=1;strokeColor=none;fillColor=none;fontFamily=Mali;fontSource=https%3A%2F%2Ffonts.googleapis.com%2Fcss%3Ffamily%3DMali;" vertex="1" parent="SsYzKDh9Box-iffjaEJu-53">
          <mxGeometry x="41.268115942028984" y="90" width="100" height="30" as="geometry" />
        </mxCell>
        <mxCell id="SsYzKDh9Box-iffjaEJu-49" value="Integrity" style="text;html=1;align=center;verticalAlign=middle;resizable=0;points=[];autosize=1;strokeColor=none;fillColor=none;fontFamily=Mali;fontSource=https%3A%2F%2Ffonts.googleapis.com%2Fcss%3Ffamily%3DMali;fontColor=#0000CC;fontStyle=1" vertex="1" parent="SsYzKDh9Box-iffjaEJu-53">
          <mxGeometry x="50.97826086956522" y="116" width="80" height="30" as="geometry" />
        </mxCell>
        <mxCell id="SsYzKDh9Box-iffjaEJu-52" style="edgeStyle=orthogonalEdgeStyle;rounded=0;orthogonalLoop=1;jettySize=auto;html=1;endArrow=none;startFill=0;fillColor=#f5f5f5;strokeColor=#666666;" edge="1" parent="SsYzKDh9Box-iffjaEJu-53" source="SsYzKDh9Box-iffjaEJu-51" target="SsYzKDh9Box-iffjaEJu-47">
          <mxGeometry relative="1" as="geometry">
            <Array as="points">
              <mxPoint x="103.89855072463767" y="30" />
            </Array>
          </mxGeometry>
        </mxCell>
        <mxCell id="SsYzKDh9Box-iffjaEJu-51" value="" style="ellipse;whiteSpace=wrap;html=1;fillColor=#b1ddf0;fontStyle=1;fontSize=17;strokeColor=#10739e;" vertex="1" parent="SsYzKDh9Box-iffjaEJu-53">
          <mxGeometry x="70.39855072463769" y="50" width="38.84057971014493" height="40" as="geometry" />
        </mxCell>
        <mxCell id="SsYzKDh9Box-iffjaEJu-54" value="" style="group" vertex="1" connectable="0" parent="SsYzKDh9Box-iffjaEJu-63">
          <mxGeometry x="398.1159420289855" width="179.63768115942028" height="146" as="geometry" />
        </mxCell>
        <mxCell id="SsYzKDh9Box-iffjaEJu-55" value="" style="whiteSpace=wrap;html=1;" vertex="1" parent="SsYzKDh9Box-iffjaEJu-54">
          <mxGeometry width="179.63768115942028" height="116" as="geometry" />
        </mxCell>
        <mxCell id="SsYzKDh9Box-iffjaEJu-57" value="S" style="ellipse;whiteSpace=wrap;html=1;fillColor=#fff2cc;strokeColor=#d6b656;fontStyle=1;fontSize=17;" vertex="1" parent="SsYzKDh9Box-iffjaEJu-54">
          <mxGeometry x="4.855072463768116" y="10" width="38.84057971014493" height="40" as="geometry" />
        </mxCell>
        <mxCell id="SsYzKDh9Box-iffjaEJu-58" value="D" style="ellipse;whiteSpace=wrap;html=1;fillColor=#d5e8d4;strokeColor=#82b366;fontStyle=1;fontSize=17;" vertex="1" parent="SsYzKDh9Box-iffjaEJu-54">
          <mxGeometry x="135.94202898550725" y="10" width="38.84057971014493" height="40" as="geometry" />
        </mxCell>
        <mxCell id="SsYzKDh9Box-iffjaEJu-59" value="Fabrication" style="text;html=1;align=center;verticalAlign=middle;resizable=0;points=[];autosize=1;strokeColor=none;fillColor=none;fontFamily=Mali;fontSource=https%3A%2F%2Ffonts.googleapis.com%2Fcss%3Ffamily%3DMali;" vertex="1" parent="SsYzKDh9Box-iffjaEJu-54">
          <mxGeometry x="46.1231884057971" y="90" width="90" height="30" as="geometry" />
        </mxCell>
        <mxCell id="SsYzKDh9Box-iffjaEJu-60" value="Integrity" style="text;html=1;align=center;verticalAlign=middle;resizable=0;points=[];autosize=1;strokeColor=none;fillColor=none;fontFamily=Mali;fontSource=https%3A%2F%2Ffonts.googleapis.com%2Fcss%3Ffamily%3DMali;fontColor=#0000CC;fontStyle=1" vertex="1" parent="SsYzKDh9Box-iffjaEJu-54">
          <mxGeometry x="50.97826086956522" y="116" width="80" height="30" as="geometry" />
        </mxCell>
        <mxCell id="SsYzKDh9Box-iffjaEJu-61" style="edgeStyle=orthogonalEdgeStyle;rounded=0;orthogonalLoop=1;jettySize=auto;html=1;endArrow=none;startFill=0;fillColor=#f5f5f5;strokeColor=#666666;" edge="1" parent="SsYzKDh9Box-iffjaEJu-54" source="SsYzKDh9Box-iffjaEJu-62" target="SsYzKDh9Box-iffjaEJu-58">
          <mxGeometry relative="1" as="geometry">
            <Array as="points">
              <mxPoint x="103.89855072463767" y="30" />
            </Array>
          </mxGeometry>
        </mxCell>
        <mxCell id="SsYzKDh9Box-iffjaEJu-62" value="" style="ellipse;whiteSpace=wrap;html=1;fillColor=#b1ddf0;fontStyle=1;fontSize=17;strokeColor=#10739e;" vertex="1" parent="SsYzKDh9Box-iffjaEJu-54">
          <mxGeometry x="70.39855072463769" y="50" width="38.84057971014493" height="40" as="geometry" />
        </mxCell>
        <mxCell id="SsYzKDh9Box-iffjaEJu-64" value="Normal" style="text;html=1;align=center;verticalAlign=middle;resizable=0;points=[];autosize=1;strokeColor=none;fillColor=none;rotation=90;fontColor=#B5739D;fontStyle=1;fontFamily=Mali;fontSource=https%3A%2F%2Ffonts.googleapis.com%2Fcss%3Ffamily%3DMali;fontSize=15;" vertex="1" parent="SsYzKDh9Box-iffjaEJu-71">
          <mxGeometry x="592.3188405797101" y="30" width="80" height="30" as="geometry" />
        </mxCell>
        <mxCell id="SsYzKDh9Box-iffjaEJu-65" value="Passive" style="text;html=1;align=center;verticalAlign=middle;resizable=0;points=[];autosize=1;strokeColor=none;fillColor=none;rotation=90;fontColor=#B5739D;fontStyle=1;fontFamily=Mali;fontSource=https%3A%2F%2Ffonts.googleapis.com%2Fcss%3Ffamily%3DMali;fontSize=15;" vertex="1" parent="SsYzKDh9Box-iffjaEJu-71">
          <mxGeometry x="592.3188405797101" y="168" width="80" height="30" as="geometry" />
        </mxCell>
        <mxCell id="SsYzKDh9Box-iffjaEJu-66" value="Active" style="text;html=1;align=center;verticalAlign=middle;resizable=0;points=[];autosize=1;strokeColor=none;fillColor=none;rotation=90;fontColor=#B5739D;fontStyle=1;fontFamily=Mali;fontSource=https%3A%2F%2Ffonts.googleapis.com%2Fcss%3Ffamily%3DMali;fontSize=15;" vertex="1" parent="SsYzKDh9Box-iffjaEJu-71">
          <mxGeometry x="597.1739130434783" y="328" width="70" height="30" as="geometry" />
        </mxCell>
        <mxCell id="SsYzKDh9Box-iffjaEJu-68" value="" style="edgeStyle=none;orthogonalLoop=1;jettySize=auto;html=1;rounded=0;endArrow=none;startFill=0;dashed=1;dashPattern=8 8;fillColor=#f5f5f5;strokeColor=#666666;strokeWidth=2;" edge="1" parent="SsYzKDh9Box-iffjaEJu-71">
          <mxGeometry width="100" relative="1" as="geometry">
            <mxPoint x="4.855072463768116" y="259" as="sourcePoint" />
            <mxPoint x="664.1739130434783" y="256" as="targetPoint" />
            <Array as="points" />
          </mxGeometry>
        </mxCell>
        <mxCell id="SsYzKDh9Box-iffjaEJu-70" value="" style="edgeStyle=none;orthogonalLoop=1;jettySize=auto;html=1;rounded=0;endArrow=none;startFill=0;dashed=1;dashPattern=8 8;fillColor=#f5f5f5;strokeColor=#666666;strokeWidth=2;entryX=1;entryY=0.241;entryDx=0;entryDy=0;entryPerimeter=0;" edge="1" parent="SsYzKDh9Box-iffjaEJu-71" target="SsYzKDh9Box-iffjaEJu-69">
          <mxGeometry width="100" relative="1" as="geometry">
            <mxPoint x="0.9710144927536232" y="95" as="sourcePoint" />
            <mxPoint x="660.2898550724638" y="100" as="targetPoint" />
            <Array as="points" />
          </mxGeometry>
        </mxCell>
        <mxCell id="SsYzKDh9Box-iffjaEJu-72" value="&lt;font style=&quot;color: rgb(0, 0, 204);&quot; face=&quot;Mali&quot; data-font-src=&quot;https://fonts.googleapis.com/css?family=Mali&quot;&gt;&lt;span&gt;Attack Types&lt;/span&gt;&lt;/font&gt;" style="text;html=1;align=center;verticalAlign=middle;resizable=0;points=[];autosize=1;strokeColor=none;fillColor=none;textShadow=0;labelBackgroundColor=none;fontSize=30;fontStyle=1" vertex="1" parent="SsYzKDh9Box-iffjaEJu-73">
          <mxGeometry x="207" width="220" height="50" as="geometry" />
        </mxCell>
        <mxCell id="SsYzKDh9Box-iffjaEJu-78" value="interaction with the user through GUI" style="rounded=1;whiteSpace=wrap;html=1;hachureGap=4;fontFamily=Mina;strokeWidth=2;fillColor=#FFF2CC;strokeColor=#000000;fontSize=16;fontStyle=1;labelBorderColor=none;textShadow=0;labelBackgroundColor=none;align=left;spacing=7;verticalAlign=middle;sketch=1;curveFitting=1;jiggle=2;" vertex="1" parent="1">
          <mxGeometry x="-1529" y="-967" width="286" height="40" as="geometry" />
        </mxCell>
        <mxCell id="SsYzKDh9Box-iffjaEJu-79" value="Preparing user inquiries and request through standard interface" style="rounded=1;whiteSpace=wrap;html=1;hachureGap=4;fontFamily=Mina;strokeWidth=2;fillColor=#FFF2CC;strokeColor=#000000;fontSize=16;fontStyle=1;labelBorderColor=none;textShadow=0;labelBackgroundColor=none;align=left;spacing=7;verticalAlign=middle;sketch=1;curveFitting=1;jiggle=2;" vertex="1" parent="1">
          <mxGeometry x="-1529" y="-927" width="485" height="40" as="geometry" />
        </mxCell>
        <mxCell id="SsYzKDh9Box-iffjaEJu-80" value="Communication with the server" style="rounded=1;whiteSpace=wrap;html=1;hachureGap=4;fontFamily=Mina;strokeWidth=2;fillColor=#FFF2CC;strokeColor=#000000;fontSize=16;fontStyle=1;labelBorderColor=none;textShadow=0;labelBackgroundColor=none;align=left;spacing=7;verticalAlign=middle;sketch=1;curveFitting=1;jiggle=2;" vertex="1" parent="1">
          <mxGeometry x="-1529" y="-887" width="240" height="40" as="geometry" />
        </mxCell>
        <mxCell id="SsYzKDh9Box-iffjaEJu-81" value="Perform analysis on the data received from the server" style="rounded=1;whiteSpace=wrap;html=1;hachureGap=4;fontFamily=Mina;strokeWidth=2;fillColor=#FFF2CC;strokeColor=#000000;fontSize=16;fontStyle=1;labelBorderColor=none;textShadow=0;labelBackgroundColor=none;align=left;spacing=7;verticalAlign=middle;sketch=1;curveFitting=1;jiggle=2;" vertex="1" parent="1">
          <mxGeometry x="-1529" y="-847" width="420" height="40" as="geometry" />
        </mxCell>
        <mxCell id="SsYzKDh9Box-iffjaEJu-75" value="A client is an entity consists of operating system and collection of programs to perform set of function included:" style="rounded=1;whiteSpace=wrap;html=1;hachureGap=4;fontFamily=Mina;strokeWidth=2;fillColor=#cce5ff;strokeColor=#000000;fontSize=16;fontStyle=1;labelBorderColor=none;textShadow=0;labelBackgroundColor=none;align=left;spacing=7;verticalAlign=middle;sketch=1;curveFitting=1;jiggle=2;" vertex="1" parent="1">
          <mxGeometry x="-1564" y="-1020" width="645" height="53" as="geometry" />
        </mxCell>
        <mxCell id="SsYzKDh9Box-iffjaEJu-76" value="Client" style="rounded=1;whiteSpace=wrap;html=1;hachureGap=4;fontFamily=Mina;strokeWidth=2;fillColor=#dae8fc;strokeColor=#000000;fontSize=22;fontStyle=1;labelBorderColor=none;textShadow=0;labelBackgroundColor=none;align=center;spacing=5;verticalAlign=middle;spacingTop=0;spacingRight=2;container=0;fillStyle=cross-hatch;sketch=1;curveFitting=1;jiggle=2;" vertex="1" parent="1">
          <mxGeometry x="-1544" y="-1060" width="80" height="40" as="geometry" />
        </mxCell>
        <mxCell id="SsYzKDh9Box-iffjaEJu-100" value="&amp;nbsp;provides one or more services, is a passive machine, only respond to inquires or requests from clients for e.g. DB" style="rounded=1;whiteSpace=wrap;html=1;hachureGap=4;fontFamily=Mina;strokeWidth=2;fillColor=#cce5ff;strokeColor=#000000;fontSize=16;fontStyle=1;labelBorderColor=none;textShadow=0;labelBackgroundColor=none;align=left;spacing=7;verticalAlign=middle;sketch=1;curveFitting=1;jiggle=2;" vertex="1" parent="1">
          <mxGeometry x="-1562.5" y="-740" width="645" height="50" as="geometry" />
        </mxCell>
        <mxCell id="SsYzKDh9Box-iffjaEJu-101" value="Server" style="rounded=1;whiteSpace=wrap;html=1;hachureGap=4;fontFamily=Mina;strokeWidth=2;fillColor=#dae8fc;strokeColor=#000000;fontSize=22;fontStyle=1;labelBorderColor=none;textShadow=0;labelBackgroundColor=none;align=center;spacing=5;verticalAlign=middle;spacingTop=0;spacingRight=2;container=0;fillStyle=cross-hatch;sketch=1;curveFitting=1;jiggle=2;" vertex="1" parent="1">
          <mxGeometry x="-1542.5" y="-780" width="80" height="40" as="geometry" />
        </mxCell>
        <mxCell id="SsYzKDh9Box-iffjaEJu-103" value="" style="image;points=[];aspect=fixed;html=1;align=center;shadow=0;dashed=0;image=img/lib/allied_telesis/computer_and_terminals/Personal_Computer_with_Server.svg;imageBackground=none;imageBorder=none;" vertex="1" parent="1">
          <mxGeometry x="-1057.25" y="-606.95" width="73.9" height="73.9" as="geometry" />
        </mxCell>
        <mxCell id="SsYzKDh9Box-iffjaEJu-104" value="" style="image;points=[];aspect=fixed;html=1;align=center;shadow=0;dashed=0;image=img/lib/allied_telesis/computer_and_terminals/Personal_Computer.svg;" vertex="1" parent="1">
          <mxGeometry x="-1462.25" y="-607.5" width="55.34" height="75" as="geometry" />
        </mxCell>
        <mxCell id="SsYzKDh9Box-iffjaEJu-106" style="edgeStyle=orthogonalEdgeStyle;rounded=0;orthogonalLoop=1;jettySize=auto;html=1;endArrow=none;startFill=0;" edge="1" parent="1" source="SsYzKDh9Box-iffjaEJu-105" target="SsYzKDh9Box-iffjaEJu-104">
          <mxGeometry relative="1" as="geometry" />
        </mxCell>
        <mxCell id="SsYzKDh9Box-iffjaEJu-107" style="edgeStyle=orthogonalEdgeStyle;rounded=0;orthogonalLoop=1;jettySize=auto;html=1;endArrow=none;startFill=0;" edge="1" parent="1" source="SsYzKDh9Box-iffjaEJu-105" target="SsYzKDh9Box-iffjaEJu-103">
          <mxGeometry relative="1" as="geometry" />
        </mxCell>
        <mxCell id="SsYzKDh9Box-iffjaEJu-105" value="&lt;b&gt;&lt;font data-font-src=&quot;https://fonts.googleapis.com/css?family=Mali&quot; face=&quot;Mali&quot;&gt;LAN&lt;/font&gt;&lt;/b&gt;" style="ellipse;whiteSpace=wrap;html=1;strokeWidth=2;fontFamily=Sifonn Basic;fontSize=16;verticalAlign=middle;spacingBottom=7;fillColor=#cce5ff;strokeColor=#36393d;" vertex="1" parent="1">
          <mxGeometry x="-1277.25" y="-587.5" width="90" height="35" as="geometry" />
        </mxCell>
        <mxCell id="SsYzKDh9Box-iffjaEJu-108" value="Server" style="text;html=1;align=center;verticalAlign=middle;resizable=0;points=[];autosize=1;strokeColor=none;fillColor=none;" vertex="1" parent="1">
          <mxGeometry x="-1007.25" y="-630" width="60" height="30" as="geometry" />
        </mxCell>
        <mxCell id="SsYzKDh9Box-iffjaEJu-109" value="Client&lt;div&gt;Workstation&lt;/div&gt;" style="text;html=1;align=center;verticalAlign=middle;resizable=0;points=[];autosize=1;strokeColor=none;fillColor=none;" vertex="1" parent="1">
          <mxGeometry x="-1535.75" y="-625" width="90" height="40" as="geometry" />
        </mxCell>
        <mxCell id="SsYzKDh9Box-iffjaEJu-124" value="" style="group" vertex="1" connectable="0" parent="1">
          <mxGeometry x="-1167.25" y="-670" width="120" height="70" as="geometry" />
        </mxCell>
        <mxCell id="SsYzKDh9Box-iffjaEJu-118" value="&lt;div&gt;&amp;nbsp;Distributed&lt;span style=&quot;background-color: transparent; color: light-dark(rgb(0, 0, 0), rgb(255, 255, 255));&quot;&gt;&amp;nbsp;Services&lt;/span&gt;&lt;/div&gt;" style="whiteSpace=wrap;html=1;" vertex="1" parent="SsYzKDh9Box-iffjaEJu-124">
          <mxGeometry width="120" height="20" as="geometry" />
        </mxCell>
        <mxCell id="SsYzKDh9Box-iffjaEJu-119" value="&lt;div&gt;Client Interface&lt;/div&gt;" style="whiteSpace=wrap;html=1;" vertex="1" parent="SsYzKDh9Box-iffjaEJu-124">
          <mxGeometry y="20" width="120" height="20" as="geometry" />
        </mxCell>
        <mxCell id="SsYzKDh9Box-iffjaEJu-120" value="&lt;div&gt;Communication interface&lt;/div&gt;" style="whiteSpace=wrap;html=1;" vertex="1" parent="SsYzKDh9Box-iffjaEJu-124">
          <mxGeometry y="40" width="120" height="30" as="geometry" />
        </mxCell>
        <mxCell id="SsYzKDh9Box-iffjaEJu-125" value="" style="group" vertex="1" connectable="0" parent="1">
          <mxGeometry x="-1427.25" y="-670" width="120" height="70" as="geometry" />
        </mxCell>
        <mxCell id="SsYzKDh9Box-iffjaEJu-115" value="&lt;div&gt;End User&amp;nbsp;&lt;span style=&quot;background-color: transparent; color: light-dark(rgb(0, 0, 0), rgb(255, 255, 255));&quot;&gt;Interface&lt;/span&gt;&lt;/div&gt;" style="whiteSpace=wrap;html=1;" vertex="1" parent="SsYzKDh9Box-iffjaEJu-125">
          <mxGeometry width="120" height="20" as="geometry" />
        </mxCell>
        <mxCell id="SsYzKDh9Box-iffjaEJu-116" value="&lt;div&gt;&amp;nbsp;Server&lt;span style=&quot;background-color: transparent; color: light-dark(rgb(0, 0, 0), rgb(255, 255, 255));&quot;&gt;&amp;nbsp;Interface&lt;/span&gt;&lt;/div&gt;" style="whiteSpace=wrap;html=1;" vertex="1" parent="SsYzKDh9Box-iffjaEJu-125">
          <mxGeometry y="20" width="120" height="20" as="geometry" />
        </mxCell>
        <mxCell id="SsYzKDh9Box-iffjaEJu-117" value="&lt;div&gt;Communication interface&lt;/div&gt;" style="whiteSpace=wrap;html=1;" vertex="1" parent="SsYzKDh9Box-iffjaEJu-125">
          <mxGeometry y="40" width="120" height="30" as="geometry" />
        </mxCell>
        <mxCell id="SsYzKDh9Box-iffjaEJu-128" style="rounded=0;orthogonalLoop=1;jettySize=auto;html=1;edgeStyle=orthogonalEdgeStyle;endArrow=none;startFill=0;" edge="1" parent="1" source="SsYzKDh9Box-iffjaEJu-119" target="SsYzKDh9Box-iffjaEJu-103">
          <mxGeometry relative="1" as="geometry">
            <Array as="points">
              <mxPoint x="-1020.25" y="-640" />
            </Array>
          </mxGeometry>
        </mxCell>
        <mxCell id="SsYzKDh9Box-iffjaEJu-129" style="edgeStyle=orthogonalEdgeStyle;rounded=0;orthogonalLoop=1;jettySize=auto;html=1;endArrow=none;startFill=0;" edge="1" parent="1" source="SsYzKDh9Box-iffjaEJu-116">
          <mxGeometry relative="1" as="geometry">
            <mxPoint x="-1447.25" y="-606" as="targetPoint" />
            <Array as="points">
              <mxPoint x="-1447.25" y="-640" />
              <mxPoint x="-1447.25" y="-607" />
            </Array>
          </mxGeometry>
        </mxCell>
        <mxCell id="SsYzKDh9Box-iffjaEJu-130" value="Breaching secret data" style="rounded=1;whiteSpace=wrap;html=1;hachureGap=4;fontFamily=Mina;strokeWidth=2;fillColor=#FFF2CC;strokeColor=#000000;fontSize=16;fontStyle=1;labelBorderColor=none;textShadow=0;labelBackgroundColor=none;align=left;spacing=7;verticalAlign=middle;sketch=1;curveFitting=1;jiggle=2;" vertex="1" parent="1">
          <mxGeometry x="-1474.75" y="-470" width="173" height="40" as="geometry" />
        </mxCell>
        <mxCell id="SsYzKDh9Box-iffjaEJu-131" value="Unauthorized logons" style="rounded=1;whiteSpace=wrap;html=1;hachureGap=4;fontFamily=Mina;strokeWidth=2;fillColor=#FFF2CC;strokeColor=#000000;fontSize=16;fontStyle=1;labelBorderColor=none;textShadow=0;labelBackgroundColor=none;align=left;spacing=7;verticalAlign=middle;sketch=1;curveFitting=1;jiggle=2;" vertex="1" parent="1">
          <mxGeometry x="-1474.75" y="-430" width="164" height="40" as="geometry" />
        </mxCell>
        <mxCell id="SsYzKDh9Box-iffjaEJu-132" value="Unauthorized denial of service" style="rounded=1;whiteSpace=wrap;html=1;hachureGap=4;fontFamily=Mina;strokeWidth=2;fillColor=#FFF2CC;strokeColor=#000000;fontSize=16;fontStyle=1;labelBorderColor=none;textShadow=0;labelBackgroundColor=none;align=left;spacing=7;verticalAlign=middle;sketch=1;curveFitting=1;jiggle=2;" vertex="1" parent="1">
          <mxGeometry x="-1474.75" y="-390" width="235" height="40" as="geometry" />
        </mxCell>
        <mxCell id="SsYzKDh9Box-iffjaEJu-133" value="Classes of Security Risks" style="rounded=1;whiteSpace=wrap;html=1;hachureGap=4;fontFamily=Mina;strokeWidth=2;fillColor=#fff2cc;strokeColor=#000000;fontSize=22;fontStyle=1;labelBorderColor=none;textShadow=0;labelBackgroundColor=none;align=center;spacing=5;verticalAlign=middle;spacingTop=0;spacingRight=2;container=0;fillStyle=cross-hatch;sketch=1;curveFitting=1;jiggle=2;" vertex="1" parent="1">
          <mxGeometry x="-1568" y="-470" width="93.25" height="120" as="geometry" />
        </mxCell>
        <mxCell id="SsYzKDh9Box-iffjaEJu-134" value="" style="group" vertex="1" connectable="0" parent="1">
          <mxGeometry x="-1577" y="-320" width="670" height="790" as="geometry" />
        </mxCell>
        <mxCell id="SsYzKDh9Box-iffjaEJu-135" value="" style="rounded=1;whiteSpace=wrap;html=1;sketch=1;hachureGap=4;jiggle=2;curveFitting=1;fontFamily=Architects Daughter;fontSource=https%3A%2F%2Ffonts.googleapis.com%2Fcss%3Ffamily%3DArchitects%2BDaughter;fillColor=none;arcSize=4;strokeWidth=2;" vertex="1" parent="SsYzKDh9Box-iffjaEJu-134">
          <mxGeometry y="40" width="670" height="750" as="geometry" />
        </mxCell>
        <mxCell id="SsYzKDh9Box-iffjaEJu-136" value="&lt;span style=&quot;font-size: 20px;&quot;&gt;Security Concepts&lt;/span&gt;" style="rounded=1;html=1;sketch=1;hachureGap=4;jiggle=2;curveFitting=1;fontFamily=Mali;fontSource=https%3A%2F%2Ffonts.googleapis.com%2Fcss%3Ffamily%3DMali;strokeWidth=2;fillColor=#E6E6E6;strokeColor=default;fontSize=23;fontStyle=1;labelBorderColor=none;textShadow=0;labelBackgroundColor=none;arcSize=33;fillStyle=cross-hatch;fontColor=#000000;whiteSpace=wrap;" vertex="1" parent="SsYzKDh9Box-iffjaEJu-134">
          <mxGeometry x="220" width="200" height="40" as="geometry" />
        </mxCell>
        <mxCell id="SsYzKDh9Box-iffjaEJu-137" value="" style="group;fontFamily=Mali;fontSource=https%3A%2F%2Ffonts.googleapis.com%2Fcss%3Ffamily%3DMali;" vertex="1" connectable="0" parent="SsYzKDh9Box-iffjaEJu-134">
          <mxGeometry x="14" y="60" width="640" height="80" as="geometry" />
        </mxCell>
        <mxCell id="SsYzKDh9Box-iffjaEJu-139" value="" style="rounded=1;whiteSpace=wrap;html=1;sketch=1;hachureGap=4;jiggle=2;curveFitting=1;fontFamily=Mali;fontSource=https%3A%2F%2Ffonts.googleapis.com%2Fcss%3Ffamily%3DMali;strokeWidth=2;fillColor=#D5E8D4;strokeColor=#36393d;fontSize=16;fontStyle=1;labelBorderColor=none;textShadow=0;labelBackgroundColor=none;align=left;spacing=7;verticalAlign=middle;fillStyle=cross-hatch;" vertex="1" parent="SsYzKDh9Box-iffjaEJu-137">
          <mxGeometry y="30" width="640" height="50" as="geometry" />
        </mxCell>
        <mxCell id="SsYzKDh9Box-iffjaEJu-140" value="" style="group" vertex="1" connectable="0" parent="SsYzKDh9Box-iffjaEJu-134">
          <mxGeometry x="14" y="150" width="640" height="80" as="geometry" />
        </mxCell>
        <mxCell id="SsYzKDh9Box-iffjaEJu-141" value="" style="group" vertex="1" connectable="0" parent="SsYzKDh9Box-iffjaEJu-140">
          <mxGeometry y="30" width="640" height="50" as="geometry" />
        </mxCell>
        <mxCell id="SsYzKDh9Box-iffjaEJu-142" value="" style="rounded=1;whiteSpace=wrap;html=1;sketch=1;hachureGap=4;jiggle=2;curveFitting=1;fontFamily=Mali;fontSource=https%3A%2F%2Ffonts.googleapis.com%2Fcss%3Ffamily%3DMali;strokeWidth=2;fillColor=#FFF2CC;strokeColor=#36393d;fontSize=16;fontStyle=1;labelBorderColor=none;textShadow=0;labelBackgroundColor=none;align=left;spacing=7;verticalAlign=middle;fillStyle=cross-hatch;" vertex="1" parent="SsYzKDh9Box-iffjaEJu-141">
          <mxGeometry width="640" height="50" as="geometry" />
        </mxCell>
        <mxCell id="SsYzKDh9Box-iffjaEJu-144" value="" style="group;fontFamily=Mali;fontSource=https%3A%2F%2Ffonts.googleapis.com%2Fcss%3Ffamily%3DMali;" vertex="1" connectable="0" parent="SsYzKDh9Box-iffjaEJu-134">
          <mxGeometry x="14" y="240" width="640" height="80" as="geometry" />
        </mxCell>
        <mxCell id="SsYzKDh9Box-iffjaEJu-146" value="" style="rounded=1;whiteSpace=wrap;html=1;sketch=1;hachureGap=4;jiggle=2;curveFitting=1;fontFamily=Mali;fontSource=https%3A%2F%2Ffonts.googleapis.com%2Fcss%3Ffamily%3DMali;strokeWidth=2;fillColor=#E6D0DE;strokeColor=#36393d;fontSize=16;fontStyle=1;labelBorderColor=none;textShadow=0;labelBackgroundColor=none;align=left;spacing=7;verticalAlign=middle;fillStyle=cross-hatch;" vertex="1" parent="SsYzKDh9Box-iffjaEJu-144">
          <mxGeometry y="30" width="640" height="50" as="geometry" />
        </mxCell>
        <mxCell id="SsYzKDh9Box-iffjaEJu-147" value="" style="group;fontFamily=Mali;fontSource=https%3A%2F%2Ffonts.googleapis.com%2Fcss%3Ffamily%3DMali;" vertex="1" connectable="0" parent="SsYzKDh9Box-iffjaEJu-134">
          <mxGeometry x="14" y="330" width="640" height="80" as="geometry" />
        </mxCell>
        <mxCell id="SsYzKDh9Box-iffjaEJu-149" value="" style="rounded=1;whiteSpace=wrap;html=1;sketch=1;hachureGap=4;jiggle=2;curveFitting=1;fontFamily=Mali;fontSource=https%3A%2F%2Ffonts.googleapis.com%2Fcss%3Ffamily%3DMali;strokeWidth=2;fillColor=#FFF4C3;strokeColor=#36393d;fontSize=16;fontStyle=1;labelBorderColor=none;textShadow=0;labelBackgroundColor=none;align=left;spacing=7;verticalAlign=middle;fillStyle=cross-hatch;" vertex="1" parent="SsYzKDh9Box-iffjaEJu-147">
          <mxGeometry y="30" width="640" height="50" as="geometry" />
        </mxCell>
        <mxCell id="SsYzKDh9Box-iffjaEJu-138" value="Identification" style="rounded=1;whiteSpace=wrap;html=1;sketch=1;hachureGap=4;jiggle=2;curveFitting=1;fontFamily=Mali;fontSource=https%3A%2F%2Ffonts.googleapis.com%2Fcss%3Ffamily%3DMali;strokeWidth=2;fillColor=#D5E8D4;strokeColor=#36393d;fontSize=20;fontStyle=1;labelBorderColor=none;textShadow=0;labelBackgroundColor=none;verticalAlign=bottom;spacingBottom=3;fillStyle=cross-hatch;" vertex="1" parent="SsYzKDh9Box-iffjaEJu-134">
          <mxGeometry x="30" y="60" width="150" height="30" as="geometry" />
        </mxCell>
        <mxCell id="SsYzKDh9Box-iffjaEJu-143" value="Authentication" style="rounded=1;whiteSpace=wrap;html=1;sketch=1;hachureGap=4;jiggle=2;curveFitting=1;fontFamily=Mali;fontSource=https%3A%2F%2Ffonts.googleapis.com%2Fcss%3Ffamily%3DMali;strokeWidth=2;fillColor=#FFF2CC;strokeColor=#36393d;fontSize=20;fontStyle=1;labelBorderColor=none;textShadow=0;labelBackgroundColor=none;fillStyle=cross-hatch;" vertex="1" parent="SsYzKDh9Box-iffjaEJu-134">
          <mxGeometry x="30" y="150" width="164" height="30" as="geometry" />
        </mxCell>
        <mxCell id="SsYzKDh9Box-iffjaEJu-145" value="Authorization" style="rounded=1;whiteSpace=wrap;html=1;sketch=1;hachureGap=4;jiggle=2;curveFitting=1;fontFamily=Mali;fontSource=https%3A%2F%2Ffonts.googleapis.com%2Fcss%3Ffamily%3DMali;strokeWidth=2;fillColor=#E6D0DE;strokeColor=#36393d;fontSize=20;fontStyle=1;labelBorderColor=none;textShadow=0;labelBackgroundColor=none;verticalAlign=bottom;spacingBottom=3;fillStyle=cross-hatch;" vertex="1" parent="SsYzKDh9Box-iffjaEJu-134">
          <mxGeometry x="30" y="240" width="144" height="30" as="geometry" />
        </mxCell>
        <mxCell id="SsYzKDh9Box-iffjaEJu-148" value="Access Control" style="rounded=1;whiteSpace=wrap;html=1;sketch=1;hachureGap=4;jiggle=2;curveFitting=1;fontFamily=Mali;fontSource=https%3A%2F%2Ffonts.googleapis.com%2Fcss%3Ffamily%3DMali;strokeWidth=2;fillColor=#FFF4C3;strokeColor=#36393d;fontSize=20;fontStyle=1;labelBorderColor=none;textShadow=0;labelBackgroundColor=none;verticalAlign=bottom;spacingBottom=3;fillStyle=cross-hatch;" vertex="1" parent="SsYzKDh9Box-iffjaEJu-134">
          <mxGeometry x="30" y="330" width="164" height="30" as="geometry" />
        </mxCell>
        <mxCell id="SsYzKDh9Box-iffjaEJu-151" value="Confidentiality" style="rounded=1;whiteSpace=wrap;html=1;sketch=1;hachureGap=4;jiggle=2;curveFitting=1;fontFamily=Mali;fontSource=https%3A%2F%2Ffonts.googleapis.com%2Fcss%3Ffamily%3DMali;strokeWidth=2;fillColor=#D4E1F5;strokeColor=#36393d;fontSize=20;fontStyle=1;labelBorderColor=none;textShadow=0;labelBackgroundColor=none;verticalAlign=bottom;spacingBottom=3;fillStyle=cross-hatch;" vertex="1" parent="SsYzKDh9Box-iffjaEJu-134">
          <mxGeometry x="30" y="420" width="154" height="30" as="geometry" />
        </mxCell>
        <mxCell id="SsYzKDh9Box-iffjaEJu-159" value="Denial of service" style="rounded=1;whiteSpace=wrap;html=1;sketch=1;hachureGap=4;jiggle=2;curveFitting=1;fontFamily=Mali;fontSource=https%3A%2F%2Ffonts.googleapis.com%2Fcss%3Ffamily%3DMali;strokeWidth=2;fillColor=#b0e3e6;strokeColor=#000000;fontSize=20;fontStyle=1;labelBorderColor=none;textShadow=0;labelBackgroundColor=none;verticalAlign=bottom;spacingBottom=3;fillStyle=cross-hatch;" vertex="1" parent="SsYzKDh9Box-iffjaEJu-134">
          <mxGeometry x="30" y="690" width="180" height="30" as="geometry" />
        </mxCell>
        <mxCell id="SsYzKDh9Box-iffjaEJu-157" value="Non-Repudiation" style="rounded=1;whiteSpace=wrap;html=1;sketch=1;hachureGap=4;jiggle=2;curveFitting=1;fontFamily=Mali;fontSource=https%3A%2F%2Ffonts.googleapis.com%2Fcss%3Ffamily%3DMali;strokeWidth=2;fillColor=light-dark(#DDE8C4,#D7DCDF);strokeColor=#36393d;fontSize=20;fontStyle=1;labelBorderColor=none;textShadow=0;labelBackgroundColor=none;verticalAlign=bottom;spacingBottom=3;fillStyle=cross-hatch;" vertex="1" parent="SsYzKDh9Box-iffjaEJu-134">
          <mxGeometry x="30" y="600" width="172.5" height="30" as="geometry" />
        </mxCell>
        <mxCell id="SsYzKDh9Box-iffjaEJu-154" value="Data integrity" style="rounded=1;whiteSpace=wrap;html=1;sketch=1;hachureGap=4;jiggle=2;curveFitting=1;fontFamily=Mali;fontSource=https%3A%2F%2Ffonts.googleapis.com%2Fcss%3Ffamily%3DMali;strokeWidth=2;fillColor=#fad9d5;strokeColor=#000000;fontSize=20;fontStyle=1;labelBorderColor=none;textShadow=0;labelBackgroundColor=none;verticalAlign=bottom;spacingBottom=3;fillStyle=cross-hatch;" vertex="1" parent="SsYzKDh9Box-iffjaEJu-134">
          <mxGeometry x="30" y="510" width="144" height="30" as="geometry" />
        </mxCell>
        <mxCell id="SsYzKDh9Box-iffjaEJu-150" value="" style="group;fontFamily=Mali;fontSource=https%3A%2F%2Ffonts.googleapis.com%2Fcss%3Ffamily%3DMali;" vertex="1" connectable="0" parent="1">
          <mxGeometry x="-1563" y="100" width="640" height="80" as="geometry" />
        </mxCell>
        <mxCell id="SsYzKDh9Box-iffjaEJu-152" value="" style="rounded=1;whiteSpace=wrap;html=1;sketch=1;hachureGap=4;jiggle=2;curveFitting=1;fontFamily=Mali;fontSource=https%3A%2F%2Ffonts.googleapis.com%2Fcss%3Ffamily%3DMali;strokeWidth=2;fillColor=#D4E1F5;strokeColor=#36393d;fontSize=16;fontStyle=1;labelBorderColor=none;textShadow=0;labelBackgroundColor=none;align=left;spacing=7;verticalAlign=middle;fillStyle=cross-hatch;" vertex="1" parent="SsYzKDh9Box-iffjaEJu-150">
          <mxGeometry y="30" width="640" height="50" as="geometry" />
        </mxCell>
        <mxCell id="SsYzKDh9Box-iffjaEJu-160" value="" style="group" vertex="1" connectable="0" parent="1">
          <mxGeometry x="-1563" y="370" width="640" height="80" as="geometry" />
        </mxCell>
        <mxCell id="SsYzKDh9Box-iffjaEJu-158" value="" style="rounded=1;whiteSpace=wrap;html=1;sketch=1;hachureGap=4;jiggle=2;curveFitting=1;fontFamily=Mali;fontSource=https%3A%2F%2Ffonts.googleapis.com%2Fcss%3Ffamily%3DMali;strokeWidth=2;fillColor=#b0e3e6;strokeColor=#000000;fontSize=16;fontStyle=1;labelBorderColor=none;textShadow=0;labelBackgroundColor=none;align=left;spacing=7;verticalAlign=middle;fillStyle=cross-hatch;" vertex="1" parent="SsYzKDh9Box-iffjaEJu-160">
          <mxGeometry y="30" width="640" height="50" as="geometry" />
        </mxCell>
        <mxCell id="SsYzKDh9Box-iffjaEJu-161" value="" style="group" vertex="1" connectable="0" parent="1">
          <mxGeometry x="-1563" y="280" width="640" height="80" as="geometry" />
        </mxCell>
        <mxCell id="SsYzKDh9Box-iffjaEJu-156" value="" style="rounded=1;whiteSpace=wrap;html=1;sketch=1;hachureGap=4;jiggle=2;curveFitting=1;fontFamily=Mali;fontSource=https%3A%2F%2Ffonts.googleapis.com%2Fcss%3Ffamily%3DMali;strokeWidth=2;fillColor=light-dark(#DDE8C4,#D7DCDF);strokeColor=#36393d;fontSize=16;fontStyle=1;labelBorderColor=none;textShadow=0;labelBackgroundColor=none;align=left;spacing=7;verticalAlign=middle;fillStyle=cross-hatch;" vertex="1" parent="SsYzKDh9Box-iffjaEJu-161">
          <mxGeometry y="30" width="640" height="50" as="geometry" />
        </mxCell>
        <mxCell id="SsYzKDh9Box-iffjaEJu-162" value="" style="group" vertex="1" connectable="0" parent="1">
          <mxGeometry x="-1563" y="190" width="640" height="80" as="geometry" />
        </mxCell>
        <mxCell id="SsYzKDh9Box-iffjaEJu-155" value="" style="rounded=1;whiteSpace=wrap;html=1;sketch=1;hachureGap=4;jiggle=2;curveFitting=1;fontFamily=Mali;fontSource=https%3A%2F%2Ffonts.googleapis.com%2Fcss%3Ffamily%3DMali;strokeWidth=2;fillColor=#fad9d5;strokeColor=#000000;fontSize=16;fontStyle=1;labelBorderColor=none;textShadow=0;labelBackgroundColor=none;align=left;spacing=7;verticalAlign=middle;fillStyle=cross-hatch;" vertex="1" parent="SsYzKDh9Box-iffjaEJu-162">
          <mxGeometry y="30" width="640" height="50" as="geometry" />
        </mxCell>
      </root>
    </mxGraphModel>
  </diagram>
  <diagram name="Chapter 5" id="b7mY4OH7Wkrn23TgjRMf">
    <mxGraphModel dx="1295" dy="802" grid="1" gridSize="10" guides="1" tooltips="1" connect="1" arrows="1" fold="1" page="1" pageScale="1" pageWidth="827" pageHeight="1169" math="1" shadow="0">
      <root>
        <mxCell id="0" />
        <mxCell id="1" parent="0" />
        <mxCell id="HAAhiB19vmieiPqbTShv-5" value="" style="rounded=1;whiteSpace=wrap;html=1;sketch=1;hachureGap=4;jiggle=2;curveFitting=1;fontFamily=Architects Daughter;fontSource=https%3A%2F%2Ffonts.googleapis.com%2Fcss%3Ffamily%3DArchitects%2BDaughter;fillColor=none;arcSize=4;strokeWidth=2;" vertex="1" parent="1">
          <mxGeometry x="73" y="160" width="670" height="220" as="geometry" />
        </mxCell>
        <mxCell id="HAAhiB19vmieiPqbTShv-1" value="" style="group;textDirection=rtl;align=right;" vertex="1" connectable="0" parent="1">
          <mxGeometry x="34" y="40" width="760" height="670" as="geometry" />
        </mxCell>
        <mxCell id="HAAhiB19vmieiPqbTShv-2" value="" style="rounded=1;whiteSpace=wrap;html=1;hachureGap=4;fontFamily=Mina;strokeWidth=2;fillColor=none;strokeColor=#000000;fontSize=16;fontStyle=1;labelBorderColor=none;textShadow=0;labelBackgroundColor=none;align=left;spacing=7;verticalAlign=middle;arcSize=7;fontColor=#333333;" vertex="1" parent="HAAhiB19vmieiPqbTShv-1">
          <mxGeometry y="45" width="760" height="605" as="geometry" />
        </mxCell>
        <mxCell id="HAAhiB19vmieiPqbTShv-3" value="&lt;span style=&quot;text-align: right;&quot;&gt;Chapter `5`&lt;/span&gt;" style="rounded=1;whiteSpace=wrap;html=1;hachureGap=4;fontFamily=Mina;strokeWidth=2;fillColor=#333333;strokeColor=#FFFFFF;fontSize=22;fontStyle=1;labelBorderColor=none;textShadow=0;labelBackgroundColor=none;align=center;spacing=5;verticalAlign=middle;spacingTop=0;spacingRight=0;fontColor=#FFFFFF;container=0;" vertex="1" parent="HAAhiB19vmieiPqbTShv-1">
          <mxGeometry x="310" width="155.78" height="45" as="geometry" />
        </mxCell>
        <mxCell id="HAAhiB19vmieiPqbTShv-4" value="" style="group" vertex="1" connectable="0" parent="HAAhiB19vmieiPqbTShv-1">
          <mxGeometry x="39" y="80" width="670" height="550" as="geometry" />
        </mxCell>
        <mxCell id="HAAhiB19vmieiPqbTShv-6" value="&lt;div&gt;&lt;font style=&quot;font-size: 20px;&quot;&gt;Access Control mechanism based on&amp;nbsp;&lt;span style=&quot;background-color: transparent;&quot;&gt;3 types of information&lt;/span&gt;&lt;/font&gt;&lt;/div&gt;" style="rounded=1;html=1;sketch=1;hachureGap=4;jiggle=2;curveFitting=1;fontFamily=Mali;fontSource=https%3A%2F%2Ffonts.googleapis.com%2Fcss%3Ffamily%3DMali;strokeWidth=2;fillColor=#E6E6E6;strokeColor=default;fontSize=23;fontStyle=1;labelBorderColor=none;textShadow=0;labelBackgroundColor=none;arcSize=33;fillStyle=cross-hatch;fontColor=#000000;whiteSpace=wrap;" vertex="1" parent="HAAhiB19vmieiPqbTShv-4">
          <mxGeometry x="30" width="620" height="40" as="geometry" />
        </mxCell>
        <mxCell id="HAAhiB19vmieiPqbTShv-13" value="" style="group;fontFamily=Mali;fontSource=https%3A%2F%2Ffonts.googleapis.com%2Fcss%3Ffamily%3DMali;" vertex="1" connectable="0" parent="HAAhiB19vmieiPqbTShv-4">
          <mxGeometry x="21" y="60" width="280" height="80" as="geometry" />
        </mxCell>
        <mxCell id="HAAhiB19vmieiPqbTShv-14" value="Subjects" style="rounded=1;whiteSpace=wrap;html=1;sketch=1;hachureGap=4;jiggle=2;curveFitting=1;fontFamily=Mali;fontSource=https%3A%2F%2Ffonts.googleapis.com%2Fcss%3Ffamily%3DMali;strokeWidth=2;fillColor=#D5E8D4;strokeColor=#36393d;fontSize=20;fontStyle=1;labelBorderColor=none;textShadow=0;labelBackgroundColor=none;verticalAlign=bottom;spacingBottom=3;fillStyle=cross-hatch;" vertex="1" parent="HAAhiB19vmieiPqbTShv-13">
          <mxGeometry x="20" width="110" height="30" as="geometry" />
        </mxCell>
        <mxCell id="HAAhiB19vmieiPqbTShv-15" value="&lt;div&gt;A subject is capable of&amp;nbsp;&lt;span style=&quot;background-color: transparent; color: light-dark(rgb(0, 0, 0), rgb(255, 255, 255));&quot;&gt;accessing an object.&lt;/span&gt;&lt;/div&gt;" style="rounded=1;whiteSpace=wrap;html=1;sketch=1;hachureGap=4;jiggle=2;curveFitting=1;fontFamily=Mali;fontSource=https%3A%2F%2Ffonts.googleapis.com%2Fcss%3Ffamily%3DMali;strokeWidth=2;fillColor=#D5E8D4;strokeColor=#36393d;fontSize=16;fontStyle=1;labelBorderColor=none;textShadow=0;labelBackgroundColor=none;align=left;spacing=7;verticalAlign=middle;fillStyle=cross-hatch;" vertex="1" parent="HAAhiB19vmieiPqbTShv-13">
          <mxGeometry y="30" width="280" height="50" as="geometry" />
        </mxCell>
        <mxCell id="HAAhiB19vmieiPqbTShv-22" value="" style="group" vertex="1" connectable="0" parent="HAAhiB19vmieiPqbTShv-4">
          <mxGeometry x="331" y="60" width="320" height="80" as="geometry" />
        </mxCell>
        <mxCell id="HAAhiB19vmieiPqbTShv-16" value="" style="group" vertex="1" connectable="0" parent="HAAhiB19vmieiPqbTShv-22">
          <mxGeometry y="30" width="320" height="50" as="geometry" />
        </mxCell>
        <mxCell id="HAAhiB19vmieiPqbTShv-18" value="&lt;div&gt;An object is an entity to which&lt;span style=&quot;background-color: transparent; color: light-dark(rgb(0, 0, 0), rgb(255, 255, 255));&quot;&gt;&amp;nbsp;access can be controlled.&lt;/span&gt;&lt;/div&gt;" style="rounded=1;whiteSpace=wrap;html=1;sketch=1;hachureGap=4;jiggle=2;curveFitting=1;fontFamily=Mali;fontSource=https%3A%2F%2Ffonts.googleapis.com%2Fcss%3Ffamily%3DMali;strokeWidth=2;fillColor=#FFF2CC;strokeColor=#36393d;fontSize=16;fontStyle=1;labelBorderColor=none;textShadow=0;labelBackgroundColor=none;align=left;spacing=7;verticalAlign=middle;fillStyle=cross-hatch;" vertex="1" parent="HAAhiB19vmieiPqbTShv-16">
          <mxGeometry width="320" height="50" as="geometry" />
        </mxCell>
        <mxCell id="HAAhiB19vmieiPqbTShv-17" value="Object" style="rounded=1;whiteSpace=wrap;html=1;sketch=1;hachureGap=4;jiggle=2;curveFitting=1;fontFamily=Mali;fontSource=https%3A%2F%2Ffonts.googleapis.com%2Fcss%3Ffamily%3DMali;strokeWidth=2;fillColor=#FFF2CC;strokeColor=#36393d;fontSize=20;fontStyle=1;labelBorderColor=none;textShadow=0;labelBackgroundColor=none;fillStyle=cross-hatch;" vertex="1" parent="HAAhiB19vmieiPqbTShv-22">
          <mxGeometry x="10" width="90" height="30" as="geometry" />
        </mxCell>
        <mxCell id="HAAhiB19vmieiPqbTShv-23" value="" style="group;fontFamily=Mali;fontSource=https%3A%2F%2Ffonts.googleapis.com%2Fcss%3Ffamily%3DMali;" vertex="1" connectable="0" parent="HAAhiB19vmieiPqbTShv-4">
          <mxGeometry x="21" y="160" width="280" height="80" as="geometry" />
        </mxCell>
        <mxCell id="HAAhiB19vmieiPqbTShv-24" value="&lt;div&gt;Access&amp;nbsp;&lt;span style=&quot;background-color: transparent; color: light-dark(rgb(0, 0, 0), rgb(255, 255, 255));&quot;&gt;Rights&lt;/span&gt;&lt;/div&gt;" style="rounded=1;whiteSpace=wrap;html=1;sketch=1;hachureGap=4;jiggle=2;curveFitting=1;fontFamily=Mali;fontSource=https%3A%2F%2Ffonts.googleapis.com%2Fcss%3Ffamily%3DMali;strokeWidth=2;fillColor=#F8CECC;strokeColor=#36393d;fontSize=20;fontStyle=1;labelBorderColor=none;textShadow=0;labelBackgroundColor=none;verticalAlign=bottom;spacingBottom=3;fillStyle=cross-hatch;" vertex="1" parent="HAAhiB19vmieiPqbTShv-23">
          <mxGeometry x="20" width="150" height="30" as="geometry" />
        </mxCell>
        <mxCell id="HAAhiB19vmieiPqbTShv-25" value="&lt;div&gt;define the&lt;span style=&quot;background-color: transparent; color: light-dark(rgb(0, 0, 0), rgb(255, 255, 255));&quot;&gt;&amp;nbsp;ways in which a subject can access the object.&lt;/span&gt;&lt;/div&gt;" style="rounded=1;whiteSpace=wrap;html=1;sketch=1;hachureGap=4;jiggle=2;curveFitting=1;fontFamily=Mali;fontSource=https%3A%2F%2Ffonts.googleapis.com%2Fcss%3Ffamily%3DMali;strokeWidth=2;fillColor=#F8CECC;strokeColor=#36393d;fontSize=16;fontStyle=1;labelBorderColor=none;textShadow=0;labelBackgroundColor=none;align=left;spacing=7;verticalAlign=middle;fillStyle=cross-hatch;" vertex="1" parent="HAAhiB19vmieiPqbTShv-23">
          <mxGeometry y="30" width="280" height="50" as="geometry" />
        </mxCell>
        <mxCell id="HAAhiB19vmieiPqbTShv-65" value="" style="group" vertex="1" connectable="0" parent="HAAhiB19vmieiPqbTShv-1">
          <mxGeometry x="39" y="466" width="310" height="80" as="geometry" />
        </mxCell>
        <mxCell id="HAAhiB19vmieiPqbTShv-37" value="&amp;nbsp;Access Control List (ACL)" style="rounded=1;whiteSpace=wrap;html=1;sketch=1;hachureGap=4;jiggle=2;curveFitting=1;fontFamily=Mali;fontSource=https%3A%2F%2Ffonts.googleapis.com%2Fcss%3Ffamily%3DMali;strokeWidth=2;fillColor=#FFF0F8;strokeColor=#36393d;fontSize=20;fontStyle=1;labelBorderColor=none;textShadow=0;labelBackgroundColor=none;fillStyle=cross-hatch;" vertex="1" parent="HAAhiB19vmieiPqbTShv-65">
          <mxGeometry x="10" width="260" height="30" as="geometry" />
        </mxCell>
        <mxCell id="HAAhiB19vmieiPqbTShv-36" value="&lt;div&gt;&lt;span style=&quot;background-color: transparent; color: light-dark(rgb(0, 0, 0), rgb(255, 255, 255));&quot;&gt;for a given object&lt;/span&gt;&lt;span style=&quot;background-color: transparent; color: light-dark(rgb(0, 0, 0), rgb(255, 255, 255));&quot;&gt;&amp;nbsp;defines the access rights for each subject.&lt;/span&gt;&lt;/div&gt;" style="rounded=1;whiteSpace=wrap;html=1;sketch=1;hachureGap=4;jiggle=2;curveFitting=1;fontFamily=Mali;fontSource=https%3A%2F%2Ffonts.googleapis.com%2Fcss%3Ffamily%3DMali;strokeWidth=2;fillColor=#FFF0F8;strokeColor=#36393d;fontSize=16;fontStyle=1;labelBorderColor=none;textShadow=0;labelBackgroundColor=none;align=left;spacing=7;verticalAlign=middle;fillStyle=cross-hatch;" vertex="1" parent="HAAhiB19vmieiPqbTShv-65">
          <mxGeometry y="30" width="310" height="50" as="geometry" />
        </mxCell>
        <mxCell id="HAAhiB19vmieiPqbTShv-66" value="" style="group" vertex="1" connectable="0" parent="HAAhiB19vmieiPqbTShv-1">
          <mxGeometry x="359" y="466" width="360" height="80" as="geometry" />
        </mxCell>
        <mxCell id="HAAhiB19vmieiPqbTShv-67" value="" style="group" vertex="1" connectable="0" parent="HAAhiB19vmieiPqbTShv-66">
          <mxGeometry width="360" height="80" as="geometry" />
        </mxCell>
        <mxCell id="HAAhiB19vmieiPqbTShv-64" value="&amp;nbsp;Capability List CL" style="rounded=1;whiteSpace=wrap;html=1;sketch=1;hachureGap=4;jiggle=2;curveFitting=1;fontFamily=Mali;fontSource=https%3A%2F%2Ffonts.googleapis.com%2Fcss%3Ffamily%3DMali;strokeWidth=2;fillColor=#FFF0F8;strokeColor=#36393d;fontSize=20;fontStyle=1;labelBorderColor=none;textShadow=0;labelBackgroundColor=none;fillStyle=cross-hatch;" vertex="1" parent="HAAhiB19vmieiPqbTShv-67">
          <mxGeometry x="14" width="190" height="30" as="geometry" />
        </mxCell>
        <mxCell id="HAAhiB19vmieiPqbTShv-63" value="&lt;div&gt;&lt;span style=&quot;background-color: transparent; color: light-dark(rgb(0, 0, 0), rgb(255, 255, 255));&quot;&gt;for a subject&lt;/span&gt;&lt;span style=&quot;background-color: transparent; color: light-dark(rgb(0, 0, 0), rgb(255, 255, 255));&quot;&gt;&amp;nbsp;rights to access each object.&lt;/span&gt;&lt;/div&gt;" style="rounded=1;whiteSpace=wrap;html=1;sketch=1;hachureGap=4;jiggle=2;curveFitting=1;fontFamily=Mali;fontSource=https%3A%2F%2Ffonts.googleapis.com%2Fcss%3Ffamily%3DMali;strokeWidth=2;fillColor=#FFF0F8;strokeColor=#36393d;fontSize=16;fontStyle=1;labelBorderColor=none;textShadow=0;labelBackgroundColor=none;align=left;spacing=7;verticalAlign=middle;fillStyle=cross-hatch;" vertex="1" parent="HAAhiB19vmieiPqbTShv-67">
          <mxGeometry y="30" width="360" height="50" as="geometry" />
        </mxCell>
        <mxCell id="HAAhiB19vmieiPqbTShv-33" value="Access Control" style="rounded=1;whiteSpace=wrap;html=1;sketch=1;hachureGap=4;jiggle=2;curveFitting=1;fontFamily=Mali;fontSource=https%3A%2F%2Ffonts.googleapis.com%2Fcss%3Ffamily%3DMali;strokeWidth=2;fillColor=#E5E5FF;strokeColor=#36393d;fontSize=20;fontStyle=1;labelBorderColor=none;textShadow=0;labelBackgroundColor=none;fillStyle=cross-hatch;" vertex="1" parent="HAAhiB19vmieiPqbTShv-1">
          <mxGeometry x="49" y="369" width="160" height="30" as="geometry" />
        </mxCell>
        <mxCell id="HAAhiB19vmieiPqbTShv-32" value="&lt;div&gt;enforces&amp;nbsp;&lt;span style=&quot;background-color: transparent; color: light-dark(rgb(0, 0, 0), rgb(255, 255, 255));&quot;&gt;the access&lt;/span&gt;&lt;span style=&quot;background-color: transparent; color: light-dark(rgb(0, 0, 0), rgb(255, 255, 255));&quot;&gt;&amp;nbsp;rights when a subject requests to access an&amp;nbsp;&lt;/span&gt;&lt;span style=&quot;background-color: transparent; color: light-dark(rgb(0, 0, 0), rgb(255, 255, 255));&quot;&gt;object&lt;/span&gt;&lt;/div&gt;" style="rounded=1;whiteSpace=wrap;html=1;sketch=1;hachureGap=4;jiggle=2;curveFitting=1;fontFamily=Mali;fontSource=https%3A%2F%2Ffonts.googleapis.com%2Fcss%3Ffamily%3DMali;strokeWidth=2;fillColor=#E5E5FF;strokeColor=#36393d;fontSize=16;fontStyle=1;labelBorderColor=none;textShadow=0;labelBackgroundColor=none;align=left;spacing=7;verticalAlign=middle;fillStyle=cross-hatch;" vertex="1" parent="HAAhiB19vmieiPqbTShv-1">
          <mxGeometry x="36" y="399" width="590" height="40" as="geometry" />
        </mxCell>
        <mxCell id="HAAhiB19vmieiPqbTShv-68" value="&lt;div&gt;&lt;font style=&quot;color: rgb(204, 0, 0);&quot; data-font-src=&quot;https://fonts.googleapis.com/css?family=Fustat&quot; face=&quot;Fustat&quot;&gt;ا&lt;span&gt;&lt;font data-font-src=&quot;https://fonts.googleapis.com/css?family=Kufam&quot;&gt;لتوضيح للفهم:&lt;/font&gt;&lt;/span&gt;&lt;/font&gt;&lt;/div&gt;&lt;div&gt;&lt;font face=&quot;Beiruti&quot; size=&quot;1&quot;&gt;لما أي subject يحاول يدخل على object، الـ Access Control بيشتغل ويتأكد من إنه يطبق القوانين دي.&lt;/font&gt;&lt;/div&gt;&lt;div&gt;&lt;span style=&quot;background-color: transparent;&quot;&gt;&lt;font face=&quot;Beiruti&quot; size=&quot;1&quot;&gt;فيه طريقتين مشهورين علشان السيستم يعرف مين له حق يعمل إيه:&lt;/font&gt;&lt;/span&gt;&lt;/div&gt;&lt;div style=&quot;direction: rtl;&quot;&gt;&lt;font face=&quot;Beiruti&quot; size=&quot;1&quot;&gt;ACL&amp;nbsp; دي عبارة عن &quot;ليستة&quot; مرتبطة بكل Object&amp;nbsp;&lt;/font&gt;&lt;span style=&quot;background-color: transparent;&quot;&gt;&lt;font face=&quot;Beiruti&quot; size=&quot;1&quot;&gt;بتقول: كل Subject يقدر يعمل إيه على الـ Object ده&lt;/font&gt;&lt;/span&gt;&lt;/div&gt;&lt;div style=&quot;direction: rtl;&quot;&gt;&lt;font face=&quot;Beiruti&quot; size=&quot;1&quot;&gt;CL&amp;nbsp;&lt;/font&gt;&lt;span style=&quot;background-color: transparent;&quot;&gt;&lt;font face=&quot;Beiruti&quot; size=&quot;1&quot;&gt;دي العكس!&amp;nbsp;&lt;/font&gt;&lt;/span&gt;&lt;span style=&quot;background-color: transparent; color: light-dark(rgb(0, 0, 0), rgb(255, 255, 255));&quot;&gt;&lt;font face=&quot;Beiruti&quot; size=&quot;1&quot;&gt;زي &quot;ليستة&quot; مرتبطة بكل Subject&amp;nbsp;&lt;/font&gt;&lt;/span&gt;&lt;span style=&quot;background-color: transparent; color: light-dark(rgb(0, 0, 0), rgb(255, 255, 255));&quot;&gt;&lt;font face=&quot;Beiruti&quot; size=&quot;1&quot;&gt;بتقول: الـ Subject ده يقدر&amp;nbsp; يوصل لأنهي Objects ويعمل عليهم إيه&lt;/font&gt;&lt;/span&gt;&lt;/div&gt;" style="text;html=1;align=right;verticalAlign=middle;resizable=0;points=[];autosize=1;strokeColor=none;fillColor=none;textDirection=rtl;fontStyle=1" vertex="1" parent="HAAhiB19vmieiPqbTShv-1">
          <mxGeometry x="-24" y="546" width="380" height="90" as="geometry" />
        </mxCell>
        <mxCell id="HAAhiB19vmieiPqbTShv-26" value="&lt;div&gt;&lt;font face=&quot;Fustat&quot; data-font-src=&quot;https://fonts.googleapis.com/css?family=Fustat&quot; style=&quot;color: rgb(204, 0, 0);&quot;&gt;ا&lt;span&gt;&lt;font data-font-src=&quot;https://fonts.googleapis.com/css?family=Kufam&quot;&gt;لتوضيح للفهم:&lt;/font&gt;&lt;/span&gt;&lt;/font&gt;&lt;/div&gt;&lt;div&gt;&lt;font data-font-src=&quot;https://fonts.googleapis.com/css?family=Beiruti&quot; face=&quot;Beiruti&quot; style=&quot;font-size: 9px;&quot;&gt;المبدأ الأساسي هنا هو: مين يقدر يعمل إيه على إيه؟&lt;/font&gt;&lt;/div&gt;&lt;div&gt;&lt;font data-font-src=&quot;https://fonts.googleapis.com/css?family=Beiruti&quot; face=&quot;Beiruti&quot; style=&quot;font-size: 9px;&quot;&gt;يعني لما حد زي يوزر أو برنامج (subject) يحاول يدخل على حاجة زي فايل أو قاعدة بيانات(object)، لازم النظام يقرر:&lt;/font&gt;&lt;/div&gt;&lt;div&gt;&lt;font data-font-src=&quot;https://fonts.googleapis.com/css?family=Beiruti&quot; face=&quot;Beiruti&quot; style=&quot;font-size: 9px;&quot;&gt;&lt;font data-font-src=&quot;https://fonts.googleapis.com/css?family=Katibeh&quot; style=&quot;&quot;&gt;هل الشخص ده فعلاً مسموح له يوصل للحاجة دي؟ ولو مسموح، يقدر يعمل إيه بالظبط؟ يقرأ؟ يكتب؟ &lt;/font&gt;&lt;font data-font-src=&quot;https://fonts.googleapis.com/css?family=Mali&quot; style=&quot;&quot;&gt;(Access Control)&lt;/font&gt;&lt;/font&gt;&lt;/div&gt;" style="text;html=1;align=right;verticalAlign=middle;resizable=0;points=[];autosize=1;strokeColor=none;fillColor=none;textDirection=rtl;fontStyle=1" vertex="1" parent="HAAhiB19vmieiPqbTShv-1">
          <mxGeometry x="-1" y="256" width="360" height="70" as="geometry" />
        </mxCell>
      </root>
    </mxGraphModel>
  </diagram>
  <diagram id="Q__iwEZFWEUwaPVKN-ND" name="Chapter 7">
    <mxGraphModel dx="1188" dy="1910" grid="1" gridSize="10" guides="1" tooltips="1" connect="1" arrows="1" fold="1" page="1" pageScale="1" pageWidth="827" pageHeight="1169" math="1" shadow="0">
      <root>
        <mxCell id="0" />
        <mxCell id="1" parent="0" />
        <mxCell id="VzO92cGVJoTJ4WgYXevm-3" value="" style="rounded=1;whiteSpace=wrap;html=1;hachureGap=4;fontFamily=Mina;strokeWidth=2;fillColor=none;strokeColor=#000000;fontSize=16;fontStyle=1;labelBorderColor=none;textShadow=0;labelBackgroundColor=none;align=left;spacing=7;verticalAlign=middle;arcSize=7;fontColor=#333333;" vertex="1" parent="1">
          <mxGeometry x="27" y="-1095" width="760" height="1150" as="geometry" />
        </mxCell>
        <mxCell id="0QXA4WGaWeLdA1YFr7xY-14" value="&lt;div style=&quot;line-height: 130%;&quot;&gt;&lt;div style=&quot;font-weight: 700; text-wrap-mode: nowrap;&quot;&gt;&lt;font data-font-src=&quot;https://fonts.googleapis.com/css?family=Fustat&quot; face=&quot;Fustat&quot; style=&quot;color: rgb(204, 0, 0);&quot;&gt;ا&lt;font data-font-src=&quot;https://fonts.googleapis.com/css?family=Kufam&quot;&gt;لتوضيح للفهم:&lt;/font&gt;&lt;/font&gt;&lt;/div&gt;&lt;div style=&quot;font-weight: 700; text-wrap-mode: nowrap;&quot;&gt;&lt;font style=&quot;line-height: 130%;&quot; face=&quot;Beiruti&quot; size=&quot;1&quot;&gt;هل الـ Firewall بيحمي من كل حاجة؟&amp;nbsp;&amp;nbsp;&lt;/font&gt;&lt;span style=&quot;font-family: Beiruti; font-size: x-small; background-color: transparent; color: light-dark(rgb(0, 0, 0), rgb(255, 255, 255)); line-height: 130%;&quot;&gt;لأ، فيه مخاطر مش بيعالجها الـ Firewall.&lt;/span&gt;&lt;/div&gt;&lt;div style=&quot;font-weight: 700; text-wrap-mode: nowrap;&quot;&gt;&lt;span style=&quot;color: rgb(82, 136, 127); font-family: Beiruti; font-size: x-small; background-color: transparent; line-height: 130%;&quot;&gt;لو في موظف من جوه الشركة هو اللي بيهاجم، الـ Firewall مش هيقدر يلاحظه، لأنه بيكون مركز على اللي جاي من برّه مش من جوّه.&lt;/span&gt;&lt;/div&gt;&lt;div style=&quot;font-weight: 700; text-wrap-mode: nowrap;&quot;&gt;&lt;font data-font-src=&quot;https://fonts.googleapis.com/css?family=Katibeh&quot; style=&quot;background-color: transparent;&quot;&gt;&lt;font style=&quot;line-height: 130%;&quot; face=&quot;Beiruti&quot; size=&quot;1&quot;&gt;&lt;font style=&quot;color: rgb(163, 158, 0);&quot;&gt;لو في يوزر في الشبكة الخاصة فتح وصلة مباشرة بالإنترنت (زي مودم أو VPN أو Dial-up)، ساعتها البيانات مش هتمر على الـ Firewall، وبالتالي مش هيقدر&amp;nbsp; يحميها.&lt;/font&gt;&lt;/font&gt;&lt;/font&gt;&lt;/div&gt;&lt;div style=&quot;font-weight: 700; text-wrap-mode: nowrap;&quot;&gt;&lt;font data-font-src=&quot;https://fonts.googleapis.com/css?family=Katibeh&quot; style=&quot;background-color: transparent;&quot;&gt;&lt;font style=&quot;line-height: 130%;&quot; face=&quot;Beiruti&quot; size=&quot;1&quot;&gt;&lt;font style=&quot;color: light-dark(rgb(204, 0, 0), rgb(237, 237, 237));&quot;&gt;لو فايل جه عن طريق FTP أو إيميل فيه فيروس، ممكن يعدي من الـ Firewall عادي لو هو مش مبرمج يكشف الفيروسات.&lt;/font&gt;&lt;/font&gt;&lt;/font&gt;&lt;/div&gt;&lt;/div&gt;" style="whiteSpace=wrap;html=1;align=right;fillColor=none;strokeColor=none;textDirection=rtl;labelPosition=center;verticalLabelPosition=middle;verticalAlign=middle;" vertex="1" parent="1">
          <mxGeometry x="219" y="-449" width="580" height="80" as="geometry" />
        </mxCell>
        <mxCell id="0QXA4WGaWeLdA1YFr7xY-15" value="" style="group" vertex="1" connectable="0" parent="1">
          <mxGeometry x="79" y="-829" width="670" height="470" as="geometry" />
        </mxCell>
        <mxCell id="0QXA4WGaWeLdA1YFr7xY-13" value="" style="rounded=1;whiteSpace=wrap;html=1;sketch=1;hachureGap=4;jiggle=2;curveFitting=1;fontFamily=Architects Daughter;fontSource=https%3A%2F%2Ffonts.googleapis.com%2Fcss%3Ffamily%3DArchitects%2BDaughter;fillColor=none;arcSize=4;strokeWidth=2;" vertex="1" parent="0QXA4WGaWeLdA1YFr7xY-15">
          <mxGeometry y="40" width="670" height="430" as="geometry" />
        </mxCell>
        <mxCell id="0QXA4WGaWeLdA1YFr7xY-1" value="&lt;span style=&quot;font-size: 20px;&quot;&gt;Risks Not Addressed By Firewalls&lt;/span&gt;" style="rounded=1;html=1;sketch=1;hachureGap=4;jiggle=2;curveFitting=1;fontFamily=Mali;fontSource=https%3A%2F%2Ffonts.googleapis.com%2Fcss%3Ffamily%3DMali;strokeWidth=2;fillColor=#E6E6E6;strokeColor=default;fontSize=23;fontStyle=1;labelBorderColor=none;textShadow=0;labelBackgroundColor=none;arcSize=33;fillStyle=cross-hatch;fontColor=#000000;whiteSpace=wrap;" vertex="1" parent="0QXA4WGaWeLdA1YFr7xY-15">
          <mxGeometry x="150" width="340" height="40" as="geometry" />
        </mxCell>
        <mxCell id="0QXA4WGaWeLdA1YFr7xY-2" value="" style="group;fontFamily=Mali;fontSource=https%3A%2F%2Ffonts.googleapis.com%2Fcss%3Ffamily%3DMali;" vertex="1" connectable="0" parent="0QXA4WGaWeLdA1YFr7xY-15">
          <mxGeometry x="14" y="60" width="640" height="100" as="geometry" />
        </mxCell>
        <mxCell id="0QXA4WGaWeLdA1YFr7xY-3" value="Insider&#39;s Intrusion" style="rounded=1;whiteSpace=wrap;html=1;sketch=1;hachureGap=4;jiggle=2;curveFitting=1;fontFamily=Mali;fontSource=https%3A%2F%2Ffonts.googleapis.com%2Fcss%3Ffamily%3DMali;strokeWidth=2;fillColor=#D5E8D4;strokeColor=#36393d;fontSize=20;fontStyle=1;labelBorderColor=none;textShadow=0;labelBackgroundColor=none;verticalAlign=bottom;spacingBottom=3;fillStyle=cross-hatch;" vertex="1" parent="0QXA4WGaWeLdA1YFr7xY-2">
          <mxGeometry x="20" width="190" height="30" as="geometry" />
        </mxCell>
        <mxCell id="0QXA4WGaWeLdA1YFr7xY-4" value="firewall cannot protect the resources from attack by an internal user of the private network, also is a gateway that simply intercepts the traffic between a private network and the Internet" style="rounded=1;whiteSpace=wrap;html=1;sketch=1;hachureGap=4;jiggle=2;curveFitting=1;fontFamily=Mali;fontSource=https%3A%2F%2Ffonts.googleapis.com%2Fcss%3Ffamily%3DMali;strokeWidth=2;fillColor=#D5E8D4;strokeColor=#36393d;fontSize=16;fontStyle=1;labelBorderColor=none;textShadow=0;labelBackgroundColor=none;align=left;spacing=7;verticalAlign=middle;fillStyle=cross-hatch;" vertex="1" parent="0QXA4WGaWeLdA1YFr7xY-2">
          <mxGeometry y="30" width="640" height="70" as="geometry" />
        </mxCell>
        <mxCell id="0QXA4WGaWeLdA1YFr7xY-5" value="" style="group" vertex="1" connectable="0" parent="0QXA4WGaWeLdA1YFr7xY-15">
          <mxGeometry x="14" y="190" width="640" height="80" as="geometry" />
        </mxCell>
        <mxCell id="0QXA4WGaWeLdA1YFr7xY-6" value="" style="group" vertex="1" connectable="0" parent="0QXA4WGaWeLdA1YFr7xY-5">
          <mxGeometry y="30" width="640" height="50" as="geometry" />
        </mxCell>
        <mxCell id="0QXA4WGaWeLdA1YFr7xY-7" value="&lt;div&gt;A firewall protects the network only if all Internet traffic passes through it. Traffic that&amp;nbsp;&lt;span style=&quot;background-color: transparent; color: light-dark(rgb(0, 0, 0), rgb(255, 255, 255));&quot;&gt;bypasses the firewall cannot be protected.&amp;nbsp;&lt;/span&gt;&lt;/div&gt;" style="rounded=1;whiteSpace=wrap;html=1;sketch=1;hachureGap=4;jiggle=2;curveFitting=1;fontFamily=Mali;fontSource=https%3A%2F%2Ffonts.googleapis.com%2Fcss%3Ffamily%3DMali;strokeWidth=2;fillColor=#FFF2CC;strokeColor=#36393d;fontSize=16;fontStyle=1;labelBorderColor=none;textShadow=0;labelBackgroundColor=none;align=left;spacing=7;verticalAlign=middle;fillStyle=cross-hatch;" vertex="1" parent="0QXA4WGaWeLdA1YFr7xY-6">
          <mxGeometry width="640" height="50" as="geometry" />
        </mxCell>
        <mxCell id="0QXA4WGaWeLdA1YFr7xY-8" value="Direct Internet Traffic&amp;nbsp;" style="rounded=1;whiteSpace=wrap;html=1;sketch=1;hachureGap=4;jiggle=2;curveFitting=1;fontFamily=Mali;fontSource=https%3A%2F%2Ffonts.googleapis.com%2Fcss%3Ffamily%3DMali;strokeWidth=2;fillColor=#FFF2CC;strokeColor=#36393d;fontSize=20;fontStyle=1;labelBorderColor=none;textShadow=0;labelBackgroundColor=none;fillStyle=cross-hatch;" vertex="1" parent="0QXA4WGaWeLdA1YFr7xY-5">
          <mxGeometry x="16" width="240" height="30" as="geometry" />
        </mxCell>
        <mxCell id="0QXA4WGaWeLdA1YFr7xY-9" value="" style="group;fontFamily=Mali;fontSource=https%3A%2F%2Ffonts.googleapis.com%2Fcss%3Ffamily%3DMali;" vertex="1" connectable="0" parent="0QXA4WGaWeLdA1YFr7xY-15">
          <mxGeometry x="14" y="290" width="640" height="80" as="geometry" />
        </mxCell>
        <mxCell id="0QXA4WGaWeLdA1YFr7xY-10" value="Virus Protection" style="rounded=1;whiteSpace=wrap;html=1;sketch=1;hachureGap=4;jiggle=2;curveFitting=1;fontFamily=Mali;fontSource=https%3A%2F%2Ffonts.googleapis.com%2Fcss%3Ffamily%3DMali;strokeWidth=2;fillColor=#F8CECC;strokeColor=#36393d;fontSize=20;fontStyle=1;labelBorderColor=none;textShadow=0;labelBackgroundColor=none;verticalAlign=bottom;spacingBottom=3;fillStyle=cross-hatch;" vertex="1" parent="0QXA4WGaWeLdA1YFr7xY-9">
          <mxGeometry x="16" width="180" height="30" as="geometry" />
        </mxCell>
        <mxCell id="0QXA4WGaWeLdA1YFr7xY-11" value="firewall cannot protect a private network from external viruses. A virus may be transferred to the private network using File Transfer Protocol (FTP)&amp;nbsp;" style="rounded=1;whiteSpace=wrap;html=1;sketch=1;hachureGap=4;jiggle=2;curveFitting=1;fontFamily=Mali;fontSource=https%3A%2F%2Ffonts.googleapis.com%2Fcss%3Ffamily%3DMali;strokeWidth=2;fillColor=#F8CECC;strokeColor=#36393d;fontSize=16;fontStyle=1;labelBorderColor=none;textShadow=0;labelBackgroundColor=none;align=left;spacing=7;verticalAlign=middle;fillStyle=cross-hatch;" vertex="1" parent="0QXA4WGaWeLdA1YFr7xY-9">
          <mxGeometry y="30" width="640" height="50" as="geometry" />
        </mxCell>
        <mxCell id="0QXA4WGaWeLdA1YFr7xY-31" value="" style="group" vertex="1" connectable="0" parent="1">
          <mxGeometry x="77" y="-329" width="670" height="360" as="geometry" />
        </mxCell>
        <mxCell id="0QXA4WGaWeLdA1YFr7xY-17" value="" style="rounded=1;whiteSpace=wrap;html=1;sketch=1;hachureGap=4;jiggle=2;curveFitting=1;fontFamily=Architects Daughter;fontSource=https%3A%2F%2Ffonts.googleapis.com%2Fcss%3Ffamily%3DArchitects%2BDaughter;fillColor=none;arcSize=4;strokeWidth=2;" vertex="1" parent="0QXA4WGaWeLdA1YFr7xY-31">
          <mxGeometry y="40" width="670" height="320" as="geometry" />
        </mxCell>
        <mxCell id="0QXA4WGaWeLdA1YFr7xY-18" value="&lt;span style=&quot;font-size: 20px;&quot;&gt;Three areas of risks&lt;/span&gt;" style="rounded=1;html=1;sketch=1;hachureGap=4;jiggle=2;curveFitting=1;fontFamily=Mali;fontSource=https%3A%2F%2Ffonts.googleapis.com%2Fcss%3Ffamily%3DMali;strokeWidth=2;fillColor=#E6E6E6;strokeColor=default;fontSize=23;fontStyle=1;labelBorderColor=none;textShadow=0;labelBackgroundColor=none;arcSize=33;fillStyle=cross-hatch;fontColor=#000000;whiteSpace=wrap;" vertex="1" parent="0QXA4WGaWeLdA1YFr7xY-31">
          <mxGeometry x="232" width="220" height="40" as="geometry" />
        </mxCell>
        <mxCell id="0QXA4WGaWeLdA1YFr7xY-19" value="" style="group;fontFamily=Mali;fontSource=https%3A%2F%2Ffonts.googleapis.com%2Fcss%3Ffamily%3DMali;" vertex="1" connectable="0" parent="0QXA4WGaWeLdA1YFr7xY-31">
          <mxGeometry x="14" y="60" width="380" height="80" as="geometry" />
        </mxCell>
        <mxCell id="0QXA4WGaWeLdA1YFr7xY-20" value="Information" style="rounded=1;whiteSpace=wrap;html=1;sketch=1;hachureGap=4;jiggle=2;curveFitting=1;fontFamily=Mali;fontSource=https%3A%2F%2Ffonts.googleapis.com%2Fcss%3Ffamily%3DMali;strokeWidth=2;fillColor=#D5E8D4;strokeColor=#36393d;fontSize=20;fontStyle=1;labelBorderColor=none;textShadow=0;labelBackgroundColor=none;verticalAlign=bottom;spacingBottom=3;fillStyle=cross-hatch;" vertex="1" parent="0QXA4WGaWeLdA1YFr7xY-19">
          <mxGeometry x="20" width="130" height="30" as="geometry" />
        </mxCell>
        <mxCell id="0QXA4WGaWeLdA1YFr7xY-21" value="Someone can steal or destroy the information that is stored on the private network." style="rounded=1;whiteSpace=wrap;html=1;sketch=1;hachureGap=4;jiggle=2;curveFitting=1;fontFamily=Mali;fontSource=https%3A%2F%2Ffonts.googleapis.com%2Fcss%3Ffamily%3DMali;strokeWidth=2;fillColor=#D5E8D4;strokeColor=#36393d;fontSize=16;fontStyle=1;labelBorderColor=none;textShadow=0;labelBackgroundColor=none;align=left;spacing=7;verticalAlign=middle;fillStyle=cross-hatch;" vertex="1" parent="0QXA4WGaWeLdA1YFr7xY-19">
          <mxGeometry y="30" width="380" height="50" as="geometry" />
        </mxCell>
        <mxCell id="0QXA4WGaWeLdA1YFr7xY-26" value="" style="group;fontFamily=Mali;fontSource=https%3A%2F%2Ffonts.googleapis.com%2Fcss%3Ffamily%3DMali;" vertex="1" connectable="0" parent="0QXA4WGaWeLdA1YFr7xY-31">
          <mxGeometry x="14" y="260" width="440" height="80" as="geometry" />
        </mxCell>
        <mxCell id="0QXA4WGaWeLdA1YFr7xY-27" value="Reputation" style="rounded=1;whiteSpace=wrap;html=1;sketch=1;hachureGap=4;jiggle=2;curveFitting=1;fontFamily=Mali;fontSource=https%3A%2F%2Ffonts.googleapis.com%2Fcss%3Ffamily%3DMali;strokeWidth=2;fillColor=#F8CECC;strokeColor=#36393d;fontSize=20;fontStyle=1;labelBorderColor=none;textShadow=0;labelBackgroundColor=none;verticalAlign=bottom;spacingBottom=3;fillStyle=cross-hatch;" vertex="1" parent="0QXA4WGaWeLdA1YFr7xY-26">
          <mxGeometry x="16" width="124" height="30" as="geometry" />
        </mxCell>
        <mxCell id="0QXA4WGaWeLdA1YFr7xY-28" value="Someone can damage the reputation of a business by demonstrating vulnerabilities in its network security." style="rounded=1;whiteSpace=wrap;html=1;sketch=1;hachureGap=4;jiggle=2;curveFitting=1;fontFamily=Mali;fontSource=https%3A%2F%2Ffonts.googleapis.com%2Fcss%3Ffamily%3DMali;strokeWidth=2;fillColor=#F8CECC;strokeColor=#36393d;fontSize=16;fontStyle=1;labelBorderColor=none;textShadow=0;labelBackgroundColor=none;align=left;spacing=7;verticalAlign=middle;fillStyle=cross-hatch;" vertex="1" parent="0QXA4WGaWeLdA1YFr7xY-26">
          <mxGeometry y="30" width="440" height="50" as="geometry" />
        </mxCell>
        <mxCell id="0QXA4WGaWeLdA1YFr7xY-29" value="" style="group" vertex="1" connectable="0" parent="0QXA4WGaWeLdA1YFr7xY-31">
          <mxGeometry x="12" y="160" width="350" height="80" as="geometry" />
        </mxCell>
        <mxCell id="0QXA4WGaWeLdA1YFr7xY-25" value="Resources" style="rounded=1;whiteSpace=wrap;html=1;sketch=1;hachureGap=4;jiggle=2;curveFitting=1;fontFamily=Mali;fontSource=https%3A%2F%2Ffonts.googleapis.com%2Fcss%3Ffamily%3DMali;strokeWidth=2;fillColor=#FFF2CC;strokeColor=#36393d;fontSize=20;fontStyle=1;labelBorderColor=none;textShadow=0;labelBackgroundColor=none;fillStyle=cross-hatch;" vertex="1" parent="0QXA4WGaWeLdA1YFr7xY-29">
          <mxGeometry x="10" width="114" height="30" as="geometry" />
        </mxCell>
        <mxCell id="0QXA4WGaWeLdA1YFr7xY-24" value="Someone can damage or misuse the computer systems on the private network." style="rounded=1;whiteSpace=wrap;html=1;sketch=1;hachureGap=4;jiggle=2;curveFitting=1;fontFamily=Mali;fontSource=https%3A%2F%2Ffonts.googleapis.com%2Fcss%3Ffamily%3DMali;strokeWidth=2;fillColor=#FFF2CC;strokeColor=#36393d;fontSize=16;fontStyle=1;labelBorderColor=none;textShadow=0;labelBackgroundColor=none;align=left;spacing=7;verticalAlign=middle;fillStyle=cross-hatch;" vertex="1" parent="0QXA4WGaWeLdA1YFr7xY-29">
          <mxGeometry y="30" width="350" height="50" as="geometry" />
        </mxCell>
        <mxCell id="0QXA4WGaWeLdA1YFr7xY-30" value="&lt;div style=&quot;line-height: 130%;&quot;&gt;&lt;div style=&quot;font-weight: 700; text-wrap-mode: nowrap;&quot;&gt;&lt;font data-font-src=&quot;https://fonts.googleapis.com/css?family=Fustat&quot; face=&quot;Fustat&quot; style=&quot;color: rgb(204, 0, 0);&quot;&gt;ا&lt;font data-font-src=&quot;https://fonts.googleapis.com/css?family=Kufam&quot;&gt;لتوضيح للفهم:&lt;/font&gt;&lt;/font&gt;&lt;/div&gt;&lt;div style=&quot;&quot;&gt;&lt;span style=&quot;background-color: transparent; text-wrap-mode: nowrap;&quot;&gt;&lt;font size=&quot;1&quot; face=&quot;Beiruti&quot;&gt;&lt;b&gt;لما الشبكة الخاصة تتوصل بالإنترنت، إيه المخاطر اللي ممكن تحصل؟&lt;/b&gt;&lt;/font&gt;&lt;/span&gt;&lt;b style=&quot;font-weight: 700; text-wrap-mode: nowrap; color: rgb(82, 136, 127); font-family: Beiruti; font-size: x-small; background-color: transparent;&quot;&gt;حد ممكن يسرق أو يمسح البيانات اللي على الشبكة&amp;nbsp;&lt;/b&gt;&lt;/div&gt;&lt;div style=&quot;&quot;&gt;&lt;font data-font-src=&quot;https://fonts.googleapis.com/css?family=Katibeh&quot; style=&quot;background-color: transparent;&quot;&gt;&lt;font style=&quot;line-height: 130%;&quot; face=&quot;Beiruti&quot; size=&quot;1&quot;&gt;&lt;font style=&quot;&quot;&gt;&lt;span style=&quot;background-color: transparent; text-wrap-mode: nowrap;&quot;&gt;&lt;font color=&quot;#a39e00&quot;&gt;&lt;b&gt;حد ممكن يبوّظ أو يستخدم أجهزة الشركة بطريقة غلط&amp;nbsp;&lt;br&gt;&lt;/b&gt;&lt;/font&gt;&lt;/span&gt;&lt;font color=&quot;#ba0000&quot;&gt;&lt;span style=&quot;text-wrap-mode: nowrap;&quot;&gt;&lt;b&gt;حد يهاجم الشركة ويكشف ضعف في سيستمها&amp;nbsp;&lt;/b&gt;&lt;/span&gt;&lt;/font&gt;&lt;/font&gt;&lt;/font&gt;&lt;/font&gt;&lt;/div&gt;&lt;/div&gt;" style="whiteSpace=wrap;html=1;align=right;fillColor=none;strokeColor=none;textDirection=rtl;labelPosition=center;verticalLabelPosition=middle;verticalAlign=middle;" vertex="1" parent="0QXA4WGaWeLdA1YFr7xY-31">
          <mxGeometry x="392" y="160" width="251" height="80" as="geometry" />
        </mxCell>
        <mxCell id="0QXA4WGaWeLdA1YFr7xY-32" value="Firewalls" style="rounded=1;whiteSpace=wrap;html=1;sketch=1;hachureGap=4;jiggle=2;curveFitting=1;fontFamily=Mali;fontSource=https%3A%2F%2Ffonts.googleapis.com%2Fcss%3Ffamily%3DMali;strokeWidth=2;fillColor=#E5E5FF;strokeColor=#36393d;fontSize=20;fontStyle=1;labelBorderColor=none;textShadow=0;labelBackgroundColor=none;fillStyle=cross-hatch;" vertex="1" parent="1">
          <mxGeometry x="95" y="-1075" width="111" height="30" as="geometry" />
        </mxCell>
        <mxCell id="0QXA4WGaWeLdA1YFr7xY-33" value="are provides controlled access between a private network and the Internet. Depending on the configuration, the firewall determines whether a data packet or a connection request should be permitted to pass through the firewall or be discarded." style="rounded=1;whiteSpace=wrap;html=1;sketch=1;hachureGap=4;jiggle=2;curveFitting=1;fontFamily=Mali;fontSource=https%3A%2F%2Ffonts.googleapis.com%2Fcss%3Ffamily%3DMali;strokeWidth=2;fillColor=#E5E5FF;strokeColor=#36393d;fontSize=16;fontStyle=1;labelBorderColor=none;textShadow=0;labelBackgroundColor=none;align=left;spacing=7;verticalAlign=middle;fillStyle=cross-hatch;" vertex="1" parent="1">
          <mxGeometry x="82" y="-1045" width="667" height="100" as="geometry" />
        </mxCell>
        <mxCell id="0QXA4WGaWeLdA1YFr7xY-34" value="&lt;div style=&quot;line-height: 130%;&quot;&gt;&lt;div style=&quot;font-weight: 700; text-wrap-mode: nowrap;&quot;&gt;&lt;font data-font-src=&quot;https://fonts.googleapis.com/css?family=Fustat&quot; face=&quot;Fustat&quot; style=&quot;color: rgb(204, 0, 0);&quot;&gt;ا&lt;font data-font-src=&quot;https://fonts.googleapis.com/css?family=Kufam&quot;&gt;لتوضيح للفهم:&lt;/font&gt;&lt;/font&gt;&lt;/div&gt;&lt;div style=&quot;&quot;&gt;&lt;span style=&quot;background-color: transparent; text-wrap-mode: nowrap;&quot;&gt;&lt;font size=&quot;1&quot; face=&quot;Beiruti&quot;&gt;&lt;b&gt;إيه هو الـ Firewall؟&lt;/b&gt;&lt;/font&gt;&lt;/span&gt;&lt;font style=&quot;font-weight: normal; text-wrap-mode: wrap; color: rgb(129, 82, 114); background-color: transparent;&quot; size=&quot;1&quot; face=&quot;Beiruti&quot;&gt;&lt;span style=&quot;text-wrap-mode: nowrap;&quot;&gt;&lt;b&gt;الـ Firewall هو زي البوابة اللي بتحكم الدخول والخروج بين الشبكة الخاصة بتاعتك&amp;nbsp; وبين الإنترنت.&amp;nbsp;&lt;/b&gt;&lt;/span&gt;&lt;/font&gt;&lt;b style=&quot;font-weight: 700; text-wrap-mode: nowrap; color: rgb(129, 82, 114); background-color: transparent; font-family: Beiruti; font-size: x-small;&quot;&gt;يعني مش أي حد من الإنترنت يقدر&amp;nbsp; يدخل على الشبكة بتاعتك كده وخلاص.&lt;/b&gt;&lt;/div&gt;&lt;div style=&quot;&quot;&gt;&lt;div style=&quot;&quot;&gt;&lt;font style=&quot;color: rgb(129, 82, 114);&quot;&gt;&lt;font size=&quot;1&quot; face=&quot;Beiruti&quot;&gt;&lt;span style=&quot;text-wrap-mode: nowrap;&quot;&gt;&lt;b&gt;الـ Firewall بيشوف كل الـ data packets (البيانات اللي بتتنقل) أو connection requests (طلبات الاتصال) ويقرر:&lt;br&gt;&lt;/b&gt;&lt;/span&gt;&lt;/font&gt;&lt;b style=&quot;text-wrap-mode: nowrap; font-family: Beiruti; font-size: x-small; background-color: transparent;&quot;&gt;هل الطلب ده مسموح؟ → يفتحه ويدخل.&lt;/b&gt;&lt;/font&gt;&lt;/div&gt;&lt;div style=&quot;&quot;&gt;&lt;font style=&quot;color: rgb(129, 82, 114);&quot; size=&quot;1&quot; face=&quot;Beiruti&quot;&gt;&lt;span style=&quot;text-wrap-mode: nowrap;&quot;&gt;&lt;b style=&quot;&quot;&gt;&amp;nbsp;ولا خطر أو مش مصرح؟ → يرميه ويرفضه.&lt;/b&gt;&lt;/span&gt;&lt;/font&gt;&lt;/div&gt;&lt;/div&gt;&lt;/div&gt;" style="whiteSpace=wrap;html=1;align=right;fillColor=none;strokeColor=none;textDirection=rtl;labelPosition=center;verticalLabelPosition=middle;verticalAlign=middle;" vertex="1" parent="1">
          <mxGeometry x="182" y="-941" width="550" height="100" as="geometry" />
        </mxCell>
        <mxCell id="VzO92cGVJoTJ4WgYXevm-4" value="&lt;span style=&quot;text-align: right;&quot;&gt;Chapter `7`&lt;/span&gt;" style="rounded=1;whiteSpace=wrap;html=1;hachureGap=4;fontFamily=Mina;strokeWidth=2;fillColor=#333333;strokeColor=#FFFFFF;fontSize=22;fontStyle=1;labelBorderColor=none;textShadow=0;labelBackgroundColor=none;align=center;spacing=5;verticalAlign=middle;spacingTop=0;spacingRight=0;fontColor=#FFFFFF;container=0;" vertex="1" parent="1">
          <mxGeometry x="335" y="-1140" width="155.78" height="45" as="geometry" />
        </mxCell>
      </root>
    </mxGraphModel>
  </diagram>
</mxfile>
